<svg xmlns="http://www.w3.org/2000/svg" xmlns:xlink="http://www.w3.org/1999/xlink" version="1.1" id="Layer_1" x="0px" y="0px" viewBox="0 0 1080 1080" style="enable-background:new 0 0 1080 1080;" xml:space="preserve">
<style type="text/css">
	.st0{fill-rule:evenodd;clip-rule:evenodd;fill:#CBD5E1;}
</style>
<path class="st0" d="M540,0C241.8,0,0,241.8,0,540c0,298.2,241.8,540,540,540c298.2,0,540-241.8,540-540C1080,241.8,838.2,0,540,0z   M137,383.9c0-22.6,18.4-40.7,40.7-40.7h592.8c22.6,0,41,18.1,41,40.7c0,22.6-18.4,41-41,41H177.7C155.4,424.9,137,406.5,137,383.9z   M349.3,692.9c0,22.6-18.4,41-41,41c-22.6,0-40.7-18.4-40.7-41V505.4c0-22.6,18.1-41,40.7-41c22.6,0,41,18.4,41,41V692.9z   M580.4,692.9c0,22.6-18.4,41-41,41c-22.6,0-40.7-18.4-40.7-41V505.4c0-22.6,18.1-41,40.7-41c22.6,0,41,18.4,41,41V692.9z   M902.4,736.8H773c-12.3,0-23.6-5.5-31-14.6c-1-1-2-2.3-2.6-3.2c-6.1-7.1-9.7-16.2-9.7-26.2V505.4c0-22.6,18.4-41,40.7-41  c22.6,0,41,18.4,41,41v149.7h90.8c22.3,0,40.7,18.4,40.7,41C943.1,718.7,924.7,736.8,902.4,736.8z"></path>
</svg>
