<svg xmlns="http://www.w3.org/2000/svg" version="1.1" viewBox="0 0 860 430">
<path d="M0 0 C8.67608023 -0.06984875 17.35206203 -0.12298684 26.02836323 -0.15543652 C30.05815453 -0.17101937 34.08775191 -0.19212066 38.11743164 -0.22631836 C42.01429814 -0.25917784 45.91097939 -0.27690835 49.80797386 -0.28463173 C51.28656106 -0.29012797 52.76513939 -0.30085923 54.24364662 -0.31719017 C67.8294977 -0.46113517 79.6890132 0.855172 89.75 10.6875 C96.16926317 19.30454479 97.09077857 28.49290845 96 39 C93.7253858 49.22298518 87.7929762 58.2110299 79 64 C74.73903058 66.17736579 70.38799706 68.09566664 66 70 C64.66366657 70.6606324 63.3296972 71.32611011 62 72 C63.91217883 79.08237083 65.83377319 86.16213942 67.76171875 93.24023438 C68.41554735 95.64492809 69.06727367 98.05019449 69.71679688 100.45605469 C70.65453489 103.92798654 71.59998886 107.39774093 72.546875 110.8671875 C72.83246277 111.93113739 73.11805054 112.99508728 73.41229248 114.09127808 C76.18419329 126.15577237 76.18419329 126.15577237 83 136 C85.26393971 136.78356902 85.26393971 136.78356902 87.6875 137.1875 C88.49574219 137.34605469 89.30398438 137.50460938 90.13671875 137.66796875 C90.75160156 137.77753906 91.36648438 137.88710937 92 138 C92 139.65 92 141.3 92 143 C78.47 143 64.94 143 51 143 C45.2229332 122.2025595 45.2229332 122.2025595 42.66796875 112.375 C42.24575798 110.75561523 42.24575798 110.75561523 41.8150177 109.10351562 C41.23212245 106.86575699 40.64998221 104.62780156 40.06860352 102.38964844 C39.17427203 98.94911137 38.27569598 95.50969954 37.37695312 92.0703125 C36.807037 89.88027459 36.23736603 87.69017286 35.66796875 85.5 C35.39929489 84.47310059 35.13062103 83.44620117 34.85380554 82.38818359 C34.60967422 81.44539551 34.36554291 80.50260742 34.11401367 79.53125 C33.89815109 78.70173828 33.68228851 77.87222656 33.45988464 77.01757812 C33 75 33 75 33 73 C31.515 73.495 31.515 73.495 30 74 C28.515 73.505 28.515 73.505 27 73 C26.88664307 74.11640869 26.77328613 75.23281738 26.65649414 76.38305664 C26.03425053 81.33715933 24.79711299 86.05797085 23.49609375 90.87109375 C22.99771713 92.76358507 22.49968065 94.65616599 22.00195312 96.54882812 C21.22060933 99.4967256 20.43585726 102.44361613 19.64477539 105.38891602 C18.87711857 108.25548869 18.12330475 111.12543524 17.37109375 113.99609375 C17.01488197 115.29963051 17.01488197 115.29963051 16.651474 116.62950134 C15.27545251 121.92045482 13.92419023 127.5398172 15 133 C17.83749941 136.43795618 20.29462199 137.1294622 24.625 137.5625 C25.44226563 137.64628906 26.25953125 137.73007813 27.1015625 137.81640625 C27.72804688 137.87699219 28.35453125 137.93757812 29 138 C28.67 139.65 28.34 141.3 28 143 C7.21 143 -13.58 143 -35 143 C-34.67 141.35 -34.34 139.7 -34 138 C-33.33613281 137.90203125 -32.67226563 137.8040625 -31.98828125 137.703125 C-30.66376953 137.47882813 -30.66376953 137.47882813 -29.3125 137.25 C-28.00732422 137.04117188 -28.00732422 137.04117188 -26.67578125 136.828125 C-22.42469671 135.51246088 -19.72172531 133.32756955 -17.5904541 129.40722656 C-14.16862101 119.9917562 -11.56607575 110.45141823 -9.09375 100.75 C-8.64266302 99.00268972 -8.1909489 97.25554123 -7.73864746 95.50854492 C-6.79622053 91.862179 -5.85871422 88.21459945 -4.92529297 84.56591797 C-3.74519159 79.95305191 -2.55682336 75.34237121 -1.36532593 70.73243713 C1.45257411 59.82906519 4.24339869 48.91903388 7 38 C7.3108252 36.76894531 7.62165039 35.53789063 7.94189453 34.26953125 C8.6899404 31.28617427 9.42704484 28.30050917 10.15625 25.3125 C10.35456421 24.5181958 10.55287842 23.7238916 10.75720215 22.90551758 C12.54788228 15.6789397 12.54788228 15.6789397 10.82421875 8.703125 C8.52535098 6.55685873 6.89803575 6.23086271 3.8125 5.75 C2.91144531 5.60046875 2.01039063 5.4509375 1.08203125 5.296875 C0.39496094 5.19890625 -0.29210937 5.1009375 -1 5 C-0.67 3.35 -0.34 1.7 0 0 Z M44 10 C41.70819136 16.56220891 39.81932834 23.17792041 38.08203125 29.90625 C37.81992355 30.91216187 37.55781586 31.91807373 37.2877655 32.95446777 C36.73931051 35.06171814 36.19231751 37.16934953 35.64672852 39.27734375 C34.80755305 42.51911024 33.96371885 45.75963733 33.11914062 49 C32.58566797 51.05201328 32.05245535 53.10409419 31.51953125 55.15625 C31.26645706 56.12904907 31.01338287 57.10184814 30.75263977 58.10412598 C30.52207382 58.99595581 30.29150787 59.88778564 30.05395508 60.80664062 C29.84982498 61.59445923 29.64569489 62.38227783 29.43537903 63.19396973 C28.96094066 64.85239722 28.96094066 64.85239722 29 66 C39.03787114 66.4517042 45.6750934 65.92507084 53.625 59.5625 C60.74999699 52.90592842 64.64619752 44.13711227 65.203125 34.4765625 C65.52795551 24.78488465 65.52795551 24.78488465 62 16 C59.00996896 12.97010188 56.01502668 10.08258306 51.6171875 9.90234375 C50.25980469 9.91974609 50.25980469 9.91974609 48.875 9.9375 C47.96492188 9.94652344 47.05484375 9.95554687 46.1171875 9.96484375 C45.06917969 9.98224609 45.06917969 9.98224609 44 10 Z " fill="#CBD5E1" transform="translate(297,8)"></path>
<path d="M0 0 C34.32 0 68.64 0 104 0 C103.33716355 5.30269163 102.62834614 10.00455389 101.37109375 15.125 C101.21713638 15.75736572 101.06317902 16.38973145 100.90455627 17.04125977 C100.41971984 19.02855822 99.92873619 21.01427497 99.4375 23 C99.10440674 24.36057654 98.771721 25.72125291 98.43945312 27.08203125 C97.63029564 30.38902271 96.817033 33.69494713 96 37 C94.68 37 93.36 37 92 37 C91.82984375 36.13117188 91.6596875 35.26234375 91.484375 34.3671875 C89.60884809 25.44845845 87.6054142 19.59807985 80.171875 14.078125 C72.73104016 10.38447317 64.62471945 10.58927832 56.5 10.375 C55.29601562 10.33632813 54.09203125 10.29765625 52.8515625 10.2578125 C49.90118881 10.16414984 46.95081144 10.07842476 44 10 C43.88591797 11.11133301 43.77183594 12.22266602 43.65429688 13.36767578 C43.02262085 18.39584454 41.80558064 23.21868219 40.53125 28.1171875 C40.29088013 29.0555545 40.05051025 29.99392151 39.80285645 30.96072388 C39.29749384 32.92949304 38.78976635 34.89765653 38.27978516 36.86523438 C37.49732976 39.88530641 36.72269409 42.90730446 35.94921875 45.9296875 C35.4561835 47.84647109 34.96270953 49.76314189 34.46875 51.6796875 C34.23643677 52.584841 34.00412354 53.48999451 33.76477051 54.4225769 C33.54784546 55.25749664 33.33092041 56.09241638 33.10742188 56.95263672 C32.91724487 57.68795624 32.72706787 58.42327576 32.53112793 59.18087769 C32 61 32 61 31 63 C31.99 62.67 32.98 62.34 34 62 C36.05160862 61.80992146 38.10354177 61.62245099 40.15722656 61.45629883 C49.9974784 60.61230646 58.3610508 59.25427278 65.375 51.6875 C68.1824268 48.06655748 70.10325222 44.15825476 72 40 C73.65 40 75.3 40 77 40 C75.74254022 47.48765295 74.128194 54.80038438 72.1796875 62.13671875 C71.91616486 63.14217239 71.65264221 64.14762604 71.38113403 65.18354797 C70.54961924 68.35256243 69.71241598 71.52004044 68.875 74.6875 C68.30561054 76.85341602 67.7365967 79.01943081 67.16796875 81.18554688 C65.78298091 86.45817965 64.39333656 91.72956766 63 97 C61.68 97 60.36 97 59 97 C58.98582031 95.98679687 58.97164062 94.97359375 58.95703125 93.9296875 C59.03061845 85.56353716 59.03061845 85.56353716 55.75 78.1875 C50.06720074 73.6670915 44.70025752 73.61288859 37.6875 73.375 C36.75615234 73.33632813 35.82480469 73.29765625 34.86523438 73.2578125 C32.57701593 73.16393687 30.28879705 73.07825491 28 73 C27.87262451 73.84739746 27.87262451 73.84739746 27.74267578 74.71191406 C26.69875225 81.02372919 25.24037715 87.17707654 23.6171875 93.359375 C23.39718079 94.19835327 23.17717407 95.03733154 22.95050049 95.9017334 C22.02755441 99.40738986 21.09925156 102.9115543 20.16259766 106.41357422 C19.47326144 108.99775018 18.79459292 111.58454998 18.1171875 114.171875 C17.90472382 114.9543158 17.69226013 115.73675659 17.47335815 116.54290771 C16.28769005 121.10057177 15.50592103 125.25231597 16 130 C22.92861452 134.61907635 35.00065274 132.62626052 42.94140625 131.3828125 C57.48943068 127.64236481 72.29405982 118.68487377 80.9609375 106.16796875 C83 104 83 104 86.12744141 103.86450195 C87.07538574 103.90921631 88.02333008 103.95393066 89 104 C87.33150055 109.05499743 85.65903605 114.10865901 83.98291016 119.16113281 C83.41346262 120.87952259 82.84509344 122.59827013 82.27783203 124.31738281 C81.46150539 126.79066668 80.64128839 129.2626311 79.8203125 131.734375 C79.56814972 132.50118591 79.31598694 133.26799683 79.05618286 134.05804443 C77.89646426 137.5379299 76.64577556 140.70844887 75 144 C38.37 144 1.74 144 -36 144 C-35.67 142.02 -35.34 140.04 -35 138 C-34.26394531 137.90203125 -33.52789062 137.8040625 -32.76953125 137.703125 C-31.30580078 137.47882813 -31.30580078 137.47882813 -29.8125 137.25 C-28.36810547 137.04117188 -28.36810547 137.04117188 -26.89453125 136.828125 C-22.62676335 135.60711718 -19.86955377 133.46115457 -17.5904541 129.63146973 C-13.91843192 120.4839191 -11.48176474 111.13643395 -9.09375 101.59375 C-8.64283324 99.82015366 -8.19111599 98.04676067 -7.73864746 96.27355957 C-6.55545335 91.62762984 -5.38321324 86.9790055 -4.21331787 82.32971191 C-3.03571357 77.65818879 -1.84740363 72.98939224 -0.66015625 68.3203125 C2.2731856 56.78005768 2.2731856 56.78005768 5.17786407 45.23256683 C6.23151813 41.0215348 7.30805164 36.81811674 8.41723633 32.62133789 C8.64948158 31.7288459 8.88172684 30.83635391 9.12100983 29.91681671 C9.56354936 28.21695414 10.01334386 26.51895606 10.47194672 24.82335663 C11.78532824 19.73346446 12.3129388 15.26118157 12 10 C10.44376001 7.45107536 9.37415842 7.11018523 6.51953125 6.26953125 C5.62621094 6.11871094 4.73289062 5.96789062 3.8125 5.8125 C2.91144531 5.65394531 2.01039063 5.49539063 1.08203125 5.33203125 C0.39496094 5.22246094 -0.29210937 5.11289062 -1 5 C-0.67 3.35 -0.34 1.7 0 0 Z " fill="#CBD5E1" transform="translate(491,277)"></path>
<path d="M0 0 C14.85 0 29.7 0 45 0 C53.65930037 19.26694332 61.96587115 38.65306545 70.12307739 58.13626099 C73.23046285 65.55692491 76.36195813 72.96725762 79.5 80.375 C79.962854 81.46820557 80.42570801 82.56141113 80.90258789 83.68774414 C81.93473511 86.12530001 82.96717911 88.56272952 84 91 C85.77800025 87.76819545 86.74886186 84.59266826 87.67993164 81.02905273 C87.99688492 79.82357285 88.3138382 78.61809296 88.64039612 77.37608337 C88.9806703 76.06201182 89.32058108 74.74784611 89.66015625 73.43359375 C90.0134814 72.07556964 90.36695364 70.7175838 90.7205658 69.3596344 C91.4608822 66.51165465 92.19749547 63.66274599 92.93188477 60.81323242 C93.86654863 57.18894511 94.81317114 53.56790471 95.76307011 49.94758511 C96.49746362 47.14100499 97.22383716 44.33239286 97.94808769 41.52318001 C98.29333873 40.18902905 98.64132616 38.85558273 98.9922657 37.52291679 C102.97483435 24.04403197 102.97483435 24.04403197 101.8125 10.4375 C99.08736013 6.77265672 97.17550182 6.22605804 92.75 5.375 C91.8425 5.25125 90.935 5.1275 90 5 C90.33 3.35 90.66 1.7 91 0 C104.86 0 118.72 0 133 0 C133 1.65 133 3.3 133 5 C132.11248047 5.16435547 132.11248047 5.16435547 131.20703125 5.33203125 C130.41683594 5.49058594 129.62664062 5.64914062 128.8125 5.8125 C128.03519531 5.96332031 127.25789062 6.11414063 126.45703125 6.26953125 C121.43032801 7.76395654 118.50288474 10.02281168 115.98706055 14.60522461 C112.12107959 22.14691471 110.23974904 30.13928753 108.20703125 38.31640625 C107.77557313 40.0047291 107.34275673 41.69270534 106.90867615 43.38035583 C105.99654664 46.9378874 105.09353353 50.49755084 104.19812012 54.05932617 C102.80981214 59.58173339 101.40128967 65.09885263 99.98925781 70.61523438 C98.14600538 77.82257773 96.31031637 85.0317942 94.48095703 92.24267578 C91.6748304 103.29908891 88.82459215 114.34367513 85.93515015 125.37863159 C85.26373553 127.94744819 84.59789624 130.51766026 83.93286133 133.08813477 C83.54402741 134.5796537 83.15496756 136.07111376 82.765625 137.5625 C82.44368164 138.80128906 82.12173828 140.04007813 81.79003906 141.31640625 C81 144 81 144 80 145 C78.33382885 145.04063832 76.66611905 145.042721 75 145 C74.63539673 144.14402222 74.63539673 144.14402222 74.26342773 143.27075195 C64.31467299 119.93852654 54.19402797 96.68084741 44.08909607 73.41596985 C40.40918712 64.94342856 36.73236623 56.46955515 33.05978394 47.99383545 C32.27901216 46.19195484 31.49803063 44.39016511 30.71704102 42.58837891 C30.25869873 41.53054199 29.80035645 40.47270508 29.328125 39.3828125 C28.9455957 38.49996582 28.56306641 37.61711914 28.16894531 36.70751953 C26.77304928 33.47433512 25.38609926 30.23739622 24 27 C21.47018883 36.51422393 18.94050002 46.02847638 16.42089844 55.54541016 C16.12520966 56.66227203 15.82952087 57.77913391 15.52487183 58.92984009 C14.91863024 61.21984272 14.31245015 63.50986164 13.70632935 65.79989624 C11.98588124 72.29519827 10.25508925 78.78758545 8.51191711 85.27682495 C7.49216505 89.07789284 6.47946014 92.88081612 5.46817017 96.68414307 C4.99380942 98.46148911 4.51630857 100.2380004 4.03549194 102.01361084 C-0.79448975 117.19956632 -0.79448975 117.19956632 0.1875 132.5625 C2.91263987 136.22734328 4.82449818 136.77394196 9.25 137.625 C10.61125 137.810625 10.61125 137.810625 12 138 C12 139.98 12 141.96 12 144 C-2.52 144 -17.04 144 -32 144 C-31.67 142.02 -31.34 140.04 -31 138 C-30.3709375 137.96003906 -29.741875 137.92007813 -29.09375 137.87890625 C-23.90478923 137.24591555 -20.42256921 136.12435245 -16.6875 132.375 C-13.65217644 128.41454245 -12.06110967 124.77601864 -10.62597656 120.00854492 C-10.4177187 119.31847697 -10.20946083 118.62840902 -9.99489212 117.91742992 C-7.19687526 108.50542729 -4.75908416 98.99219885 -2.296875 89.48828125 C-1.76862954 87.46038666 -1.24007968 85.43257134 -0.71124268 83.40483093 C0.38693502 79.19082913 1.48259031 74.97618317 2.57617188 70.76098633 C3.9768638 65.36222578 5.38225444 59.96470256 6.7892952 54.56759357 C7.87658688 50.39608979 8.96230191 46.22417708 10.0474472 42.05211449 C10.56547499 40.06054509 11.08378792 38.06904985 11.6023941 36.077631 C12.32396789 33.30514519 13.04362782 30.53216994 13.76269531 27.7590332 C13.97566254 26.94187836 14.18862976 26.12472351 14.40805054 25.2828064 C14.78782963 23.81501705 15.1624354 22.34587306 15.53031158 20.87505531 C15.92864088 19.28487459 16.3483358 17.70006963 16.77264404 16.11662292 C16.88518524 15.06889458 16.88518524 15.06889458 17 14 C13.04571122 9.11529034 8.92577935 6.11425069 2.6875 5.3125 C1.470625 5.209375 0.25375 5.10625 -1 5 C-0.67 3.35 -0.34 1.7 0 0 Z " fill="#CBD5E1" transform="translate(617,277)"></path>
<path d="M0 0 C0.77338431 0.00092179 1.54676863 0.00184359 2.34358883 0.00279331 C3.22844967 0.00141865 4.11331051 0.00004398 5.02498531 -0.00137234 C6.00321758 0.00222294 6.98144985 0.00581821 7.98932552 0.00952244 C9.01359646 0.00937641 10.03786739 0.00923038 11.09317684 0.00907993 C14.49665055 0.00977955 17.9000703 0.0175742 21.30353451 0.02539158 C23.65623094 0.02725559 26.00892776 0.02867957 28.36162472 0.0296793 C34.56769531 0.03350584 40.77374266 0.04333728 46.97980404 0.05438328 C53.30711204 0.06459448 59.63442378 0.06917629 65.96173763 0.0742197 C78.38687807 0.08495942 90.81200124 0.10203747 103.23712826 0.12304783 C102.6012653 2.99688231 101.96468813 5.87055549 101.32770443 8.74414158 C101.05974686 9.95571934 101.05974686 9.95571934 100.786376 11.19177341 C99.455908 17.19007381 98.05348247 23.16565751 96.54962826 29.12304783 C96.33757748 29.97898533 96.1255267 30.83492283 95.90705013 31.71679783 C94.36411238 37.86907957 94.36411238 37.86907957 93.23712826 40.12304783 C91.91712826 40.12304783 90.59712826 40.12304783 89.23712826 40.12304783 C89.13915951 39.13304783 89.04119076 38.14304783 88.94025326 37.12304783 C87.64028627 24.81113333 87.64028627 24.81113333 80.86212826 14.81054783 C75.23463348 12.19085198 69.3103004 11.25452384 63.23712826 10.12304783 C63.01341045 11.17049671 62.78969265 12.21794559 62.55919552 13.29713535 C60.11811296 24.57959022 57.33532375 35.75008428 54.40007114 46.9131918 C53.61006295 49.92009158 52.8252168 52.92829815 52.04173946 55.93690586 C49.81757147 64.47593684 47.58772397 73.01346053 45.3467474 81.54809666 C43.96656235 86.8059222 42.59493579 92.06591922 41.22861958 97.32736492 C40.71076199 99.31474978 40.18971866 101.30130759 39.66529942 103.28697109 C35.20551055 117.51637332 35.20551055 117.51637332 34.23712826 132.12304783 C35.97106772 135.02107696 36.66054181 135.9461501 39.93634701 136.95117283 C40.92247982 137.09039158 41.90861263 137.22961033 42.92462826 137.37304783 C43.91849545 137.52257908 44.91236263 137.67211033 45.93634701 137.82617283 C46.69560482 137.92414158 47.45486263 138.02211033 48.23712826 138.12304783 C47.90712826 139.77304783 47.57712826 141.42304783 47.23712826 143.12304783 C25.78712826 143.12304783 4.33712826 143.12304783 -17.76287174 143.12304783 C-17.43287174 141.47304783 -17.10287174 139.82304783 -16.76287174 138.12304783 C-16.18279362 138.07406345 -15.60271549 138.02507908 -15.00505924 137.97461033 C-10.37693534 137.53165458 -6.02826388 137.09969297 -1.76287174 135.12304783 C4.61222634 124.49484983 7.07430737 110.76769834 10.10822201 98.88086033 C10.55698824 97.14218556 11.00630564 95.40365297 11.45613766 93.66525364 C12.63171688 89.11569215 13.79942412 84.5641464 14.96552181 80.01214695 C16.13486877 75.45402887 17.31252471 70.89805904 18.48908138 66.34179783 C22.57820801 50.49078827 26.66439603 34.6392807 30.55388546 18.73782444 C30.76654552 17.87478703 30.97920559 17.01174961 31.1983099 16.12255955 C31.37721264 15.38931461 31.55611538 14.65606968 31.74043941 13.9006052 C32.23712826 12.12304783 32.23712826 12.12304783 33.23712826 10.12304783 C20.21657488 12.43072516 9.69377591 15.46602972 1.23712826 26.12304783 C-0.81590786 29.20303642 -2.77668912 32.33972662 -4.61858463 35.55053806 C-5.68474674 37.34179783 -5.68474674 37.34179783 -7.76287174 40.12304783 C-9.08287174 40.12304783 -10.40287174 40.12304783 -11.76287174 40.12304783 C-11.18005549 34.80374567 -10.29401419 29.78860108 -8.95037174 24.59570408 C-8.77659 23.92131794 -8.60280827 23.2469318 -8.42376041 22.55210972 C-8.05971008 21.14406086 -7.69323312 19.73663728 -7.32439518 18.32983494 C-6.75831294 16.16813915 -6.20148714 14.00420369 -5.64568424 11.8398447 C-2.62167326 0.18299187 -2.62167326 0.18299187 0 0 Z " fill="#CBD5E1" transform="translate(62.762871742248535,7.876952171325684)"></path>
<path d="M0 0 C1.4540625 0.0309375 1.4540625 0.0309375 2.9375 0.0625 C2.56404499 10.93959653 2.19018887 21.81667919 1.81585789 32.69374561 C1.64194401 37.74756554 1.4681546 42.80138967 1.29467773 47.85522461 C1.0939754 53.70167355 0.89283091 59.54810716 0.69140625 65.39453125 C0.64227239 66.82189165 0.64227239 66.82189165 0.59214592 68.27808762 C0.16041136 80.80700825 -0.28131105 93.33540833 -0.77000427 105.86225891 C-1.0055357 112.01189886 -1.16588415 118.15889605 -1.25 124.3125 C-1.26329849 125.00603073 -1.27659698 125.69956146 -1.29029846 126.41410828 C-1.29651941 131.01878622 -0.48154573 134.7324474 0.9375 139.0625 C3.5775 139.7225 6.2175 140.3825 8.9375 141.0625 C8.980221 142.72861905 8.97813832 144.39632885 8.9375 146.0625 C7.9375 147.0625 7.9375 147.0625 5.69126892 147.18275452 C4.69865555 147.18053391 3.70604218 147.17831329 2.68334961 147.17602539 C1.56226303 147.17594986 0.44117645 147.17587433 -0.71388245 147.17579651 C-2.54353798 147.16805458 -2.54353798 147.16805458 -4.41015625 147.16015625 C-5.65171982 147.1587413 -6.89328339 147.15732635 -8.17247009 147.15586853 C-11.47855491 147.15120591 -14.78457146 147.14221497 -18.09063721 147.13116455 C-21.4621115 147.12094827 -24.83359283 147.11637045 -28.20507812 147.11132812 C-34.82423775 147.10027395 -41.44336493 147.08351736 -48.0625 147.0625 C-48.105221 145.39638095 -48.10313832 143.72867115 -48.0625 142.0625 C-46.46137576 140.46137576 -44.45444078 140.67516544 -42.25 140.375 C-38.65392837 139.64655182 -37.31625317 139.29722168 -34.5625 136.75 C-31.1131242 128.27028448 -30.94917097 119.14542966 -30.51171875 110.10546875 C-30.46768921 109.23224976 -30.42365967 108.35903076 -30.3782959 107.45935059 C-30.27106658 105.32716492 -30.16650707 103.19484527 -30.0625 101.0625 C-53.25435748 98.53326715 -53.25435748 98.53326715 -74.078125 105.33984375 C-76.77782023 108.59665035 -78.59199594 112.17044924 -80.18603516 116.07421875 C-81.43509791 118.90774718 -83.29847061 121.114378 -85.25 123.5 C-88.31777909 127.90062487 -89.14271349 131.7454918 -89.0625 137.0625 C-89.0625 137.7225 -89.0625 138.3825 -89.0625 139.0625 C-86.0925 139.7225 -83.1225 140.3825 -80.0625 141.0625 C-80.0625 143.0425 -80.0625 145.0225 -80.0625 147.0625 C-93.2625 147.0625 -106.4625 147.0625 -120.0625 147.0625 C-119.7325 145.0825 -119.4025 143.1025 -119.0625 141.0625 C-117.1640625 140.0234375 -117.1640625 140.0234375 -114.6875 139.4375 C-103.48232603 135.52205569 -96.1675073 122.79719452 -89.375 113.55078125 C-85.60684205 108.42151477 -81.74054357 103.3685466 -77.875 98.3125 C-73.75144111 92.91012499 -69.63031871 87.50699923 -65.5625 82.0625 C-61.49467646 76.61799431 -57.37299628 71.21531111 -53.25 65.8125 C-48.49531875 59.58131884 -43.75508404 53.34059147 -39.0625 47.0625 C-32.45029652 38.2193867 -25.75235502 29.44198703 -19.05078125 20.66650391 C-17.09522131 18.10535431 -15.1412411 15.54300597 -13.1875 12.98046875 C-12.00008243 11.42441626 -10.81258654 9.86842353 -9.625 8.3125 C-9.07529541 7.5913501 -8.52559082 6.8702002 -7.95922852 6.12719727 C-3.32971902 0.06795345 -3.32971902 0.06795345 0 0 Z M-28.0625 47.0625 C-28.96029765 48.12141634 -29.81527118 49.21667464 -30.65234375 50.32421875 C-31.18432373 51.02450195 -31.71630371 51.72478516 -32.2644043 52.44628906 C-33.12352417 53.58662598 -33.12352417 53.58662598 -34 54.75 C-35.19254147 56.3217412 -36.38525136 57.89335464 -37.578125 59.46484375 C-38.17044922 60.24714355 -38.76277344 61.02944336 -39.37304688 61.83544922 C-41.65131928 64.83868634 -43.94850752 67.82704482 -46.25 70.8125 C-47.03503906 71.8334375 -47.82007813 72.854375 -48.62890625 73.90625 C-50.38246037 76.18052244 -52.14019139 78.45116485 -53.90234375 80.71875 C-54.36809814 81.31977539 -54.83385254 81.92080078 -55.3137207 82.54003906 C-56.21260703 83.69978932 -57.11341209 84.85805559 -58.01635742 86.01464844 C-60.14089121 88.29207876 -60.14089121 88.29207876 -61.0625 91.0625 C-50.5025 91.0625 -39.9425 91.0625 -29.0625 91.0625 C-28.77588779 85.92139352 -28.49046167 80.78024878 -28.20800781 75.63891602 C-28.11169154 73.8921331 -28.01469624 72.14538748 -27.91699219 70.39868164 C-27.77618091 67.87916556 -27.63786153 65.35952275 -27.5 62.83984375 C-27.45625244 62.06664291 -27.41250488 61.29344208 -27.36743164 60.49681091 C-27.12476316 56.01064825 -27.02087633 51.55525492 -27.0625 47.0625 C-27.3925 47.0625 -27.7225 47.0625 -28.0625 47.0625 Z " fill="#CBD5E1" transform="translate(841.0625,273.9375)"></path>
<path d="M0 0 C1.4540625 0.0309375 1.4540625 0.0309375 2.9375 0.0625 C2.56404499 10.93959653 2.19018887 21.81667919 1.81585789 32.69374561 C1.64194401 37.74756554 1.4681546 42.80138967 1.29467773 47.85522461 C1.0939754 53.70167355 0.89283091 59.54810716 0.69140625 65.39453125 C0.64227239 66.82189165 0.64227239 66.82189165 0.59214592 68.27808762 C0.16041136 80.80700825 -0.28131105 93.33540833 -0.77000427 105.86225891 C-1.0055357 112.01189886 -1.16588415 118.15889605 -1.25 124.3125 C-1.26329849 125.00603073 -1.27659698 125.69956146 -1.29029846 126.41410828 C-1.29651941 131.01878622 -0.48154573 134.7324474 0.9375 139.0625 C3.5775 139.7225 6.2175 140.3825 8.9375 141.0625 C8.9375 142.7125 8.9375 144.3625 8.9375 146.0625 C-9.8725 146.0625 -28.6825 146.0625 -48.0625 146.0625 C-47.7325 144.4125 -47.4025 142.7625 -47.0625 141.0625 C-46.04929688 140.95035156 -46.04929688 140.95035156 -45.015625 140.8359375 C-39.2572402 139.98754073 -39.2572402 139.98754073 -34.5625 136.75 C-31.1131242 128.27028448 -30.94917097 119.14542966 -30.51171875 110.10546875 C-30.46768921 109.23224976 -30.42365967 108.35903076 -30.3782959 107.45935059 C-30.27106658 105.32716492 -30.16650707 103.19484527 -30.0625 101.0625 C-53.25435748 98.53326715 -53.25435748 98.53326715 -74.078125 105.33984375 C-76.77782023 108.59665035 -78.59199594 112.17044924 -80.18603516 116.07421875 C-81.43509791 118.90774718 -83.29847061 121.114378 -85.25 123.5 C-88.31777909 127.90062487 -89.14271349 131.7454918 -89.0625 137.0625 C-89.0625 137.7225 -89.0625 138.3825 -89.0625 139.0625 C-86.0925 139.7225 -83.1225 140.3825 -80.0625 141.0625 C-80.0625 142.7125 -80.0625 144.3625 -80.0625 146.0625 C-93.2625 146.0625 -106.4625 146.0625 -120.0625 146.0625 C-119.7325 144.4125 -119.4025 142.7625 -119.0625 141.0625 C-117.1640625 140.12109375 -117.1640625 140.12109375 -114.6875 139.5 C-103.49199629 135.47661586 -96.1880706 122.82518664 -89.375 113.55078125 C-85.60684205 108.42151477 -81.74054357 103.3685466 -77.875 98.3125 C-73.75144111 92.91012499 -69.63031871 87.50699923 -65.5625 82.0625 C-61.49467646 76.61799431 -57.37299628 71.21531111 -53.25 65.8125 C-48.49531875 59.58131884 -43.75508404 53.34059147 -39.0625 47.0625 C-32.45029652 38.2193867 -25.75235502 29.44198703 -19.05078125 20.66650391 C-17.09522131 18.10535431 -15.1412411 15.54300597 -13.1875 12.98046875 C-12.00008243 11.42441626 -10.81258654 9.86842353 -9.625 8.3125 C-9.07529541 7.5913501 -8.52559082 6.8702002 -7.95922852 6.12719727 C-3.32971902 0.06795345 -3.32971902 0.06795345 0 0 Z M-28.0625 47.0625 C-28.96029765 48.12141634 -29.81527118 49.21667464 -30.65234375 50.32421875 C-31.18432373 51.02450195 -31.71630371 51.72478516 -32.2644043 52.44628906 C-33.12352417 53.58662598 -33.12352417 53.58662598 -34 54.75 C-35.19254147 56.3217412 -36.38525136 57.89335464 -37.578125 59.46484375 C-38.17044922 60.24714355 -38.76277344 61.02944336 -39.37304688 61.83544922 C-41.65131928 64.83868634 -43.94850752 67.82704482 -46.25 70.8125 C-47.03503906 71.8334375 -47.82007813 72.854375 -48.62890625 73.90625 C-50.38246037 76.18052244 -52.14019139 78.45116485 -53.90234375 80.71875 C-54.36809814 81.31977539 -54.83385254 81.92080078 -55.3137207 82.54003906 C-56.21260703 83.69978932 -57.11341209 84.85805559 -58.01635742 86.01464844 C-60.14089121 88.29207876 -60.14089121 88.29207876 -61.0625 91.0625 C-50.5025 91.0625 -39.9425 91.0625 -29.0625 91.0625 C-28.77588779 85.92139352 -28.49046167 80.78024878 -28.20800781 75.63891602 C-28.11169154 73.8921331 -28.01469624 72.14538748 -27.91699219 70.39868164 C-27.77618091 67.87916556 -27.63786153 65.35952275 -27.5 62.83984375 C-27.45625244 62.06664291 -27.41250488 61.29344208 -27.36743164 60.49681091 C-27.12476316 56.01064825 -27.02087633 51.55525492 -27.0625 47.0625 C-27.3925 47.0625 -27.7225 47.0625 -28.0625 47.0625 Z " fill="#CBD5E1" transform="translate(246.0625,4.9375)"></path>
<path d="M0 0 C1.39456452 0.00667256 2.78911118 0.01863093 4.18359375 0.03515625 C4.89451172 0.03966797 5.60542969 0.04417969 6.33789062 0.04882812 C8.09899388 0.06064761 9.86005411 0.07858362 11.62109375 0.09765625 C11.51825073 1.10662964 11.51825073 1.10662964 11.41333008 2.13598633 C6.45797333 55.17205609 18.18982992 107.65650006 52.65844727 149.29321289 C54.29931312 151.2399825 55.95482959 153.1725936 57.62109375 155.09765625 C58.13994141 155.69771484 58.65878906 156.29777344 59.19335938 156.91601562 C65.77137679 164.44688436 72.67311604 170.99141682 80.62109375 177.09765625 C82.13123047 178.31388672 82.13123047 178.31388672 83.671875 179.5546875 C117.84206249 206.90242775 160.30347995 219.641602 203.62109375 221.09765625 C203.62109375 226.04765625 203.62109375 230.99765625 203.62109375 236.09765625 C157.74675309 237.83422435 111.89900944 222.06020712 75.62109375 194.09765625 C74.62078125 193.32808594 73.62046875 192.55851563 72.58984375 191.765625 C52.07620655 175.40776775 34.54408972 156.00981062 21.62109375 133.09765625 C21.20504883 132.37046387 20.78900391 131.64327148 20.36035156 130.89404297 C8.71329918 110.33770826 0.66057406 88.40297212 -3.37890625 65.09765625 C-3.56509521 64.02604248 -3.75128418 62.95442871 -3.94311523 61.8503418 C-5.48432456 51.8375845 -5.65493141 42.00024439 -5.5847168 31.88842773 C-5.56626908 29.13971801 -5.56420925 26.39134386 -5.56445312 23.64257812 C-5.55954246 21.8684867 -5.55371612 20.09439753 -5.546875 18.3203125 C-5.54576218 17.51183365 -5.54464935 16.7033548 -5.54350281 15.87037659 C-5.41361372 0.15646282 -5.41361372 0.15646282 0 0 Z " fill="#CBD5E1" transform="translate(226.37890625,185.90234375)"></path>
<path d="M0 0 C44.90528976 -1.92680624 90.62614537 14.73428777 126 42 C127.0003125 42.76957031 128.000625 43.53914063 129.03125 44.33203125 C149.5448872 60.6898885 167.07700403 80.08784563 180 103 C180.41604492 103.72719238 180.83208984 104.45438477 181.26074219 105.20361328 C192.90779457 125.75994799 200.96051969 147.69468413 205 171 C205.18618896 172.07161377 205.37237793 173.14322754 205.56420898 174.24731445 C207.10541831 184.26007175 207.27602516 194.09741186 207.20581055 204.20922852 C207.18736283 206.95793824 207.185303 209.70631239 207.18554688 212.45507812 C207.18063621 214.22916955 207.17480987 216.00325872 207.16796875 217.77734375 C207.16685593 218.5858226 207.1657431 219.39430145 207.16459656 220.22727966 C207.05117613 233.94882387 207.05117613 233.94882387 205 236 C202.46950598 236.07313567 199.96695163 236.09247527 197.4375 236.0625 C196.37112305 236.05573242 196.37112305 236.05573242 195.28320312 236.04882812 C193.52209987 236.03700864 191.76103964 236.01907263 190 236 C190.06856201 235.32735107 190.13712402 234.65470215 190.20776367 233.96166992 C195.07632533 181.85454845 183.96332844 129.78057846 150.375 88.5625 C148.27019742 86.02412156 146.14030084 83.50846373 144 81 C143.18660156 80.03191406 142.37320313 79.06382813 141.53515625 78.06640625 C138.29498387 74.00353773 138.29498387 74.00353773 134.09790039 71.13256836 C131.67314885 69.82354678 130.4698391 68.41853299 128.75 66.27734375 C125.20959362 62.1032423 121.37630427 58.82732966 117 55.5625 C115.89023804 54.72682495 115.89023804 54.72682495 114.75805664 53.87426758 C80.58903975 28.53860405 41.86348266 17.98773806 0 15 C0 10.05 0 5.1 0 0 Z " fill="#CBD5E1" transform="translate(432,9)"></path>
<path d="M0 0 C39.89413935 -1.08802198 75.23964371 14.81183687 104.4296875 41.53125 C113.13415163 49.89176874 120.56808505 58.75244525 127 69 C127.37366699 69.59232422 127.74733398 70.18464844 128.13232422 70.79492188 C143.07753752 94.88571347 149.45232413 121.14590239 149.4375 149.3125 C149.43790283 150.05598694 149.43830566 150.79947388 149.4387207 151.56549072 C149.40983858 160.55853765 148.73709974 169.14706999 147 178 C141.72 178 136.44 178 131 178 C131.33 176.123125 131.66 174.24625 132 172.3125 C137.29577337 135.70685235 129.54603156 99.86811246 107.79296875 69.94091797 C101.023604 60.58574049 101.023604 60.58574049 92.23828125 53.35546875 C91.49964844 52.90816406 90.76101563 52.46085937 90 52 C90 51.34 90 50.68 90 50 C89.42765625 49.75378906 88.8553125 49.50757813 88.265625 49.25390625 C85.63483875 47.79790213 83.88513099 46.05396726 81.75 43.9375 C75.2238464 37.95919729 67.82765588 34.00671169 60 30 C58.89269531 29.43152344 57.78539062 28.86304687 56.64453125 28.27734375 C38.69322453 19.55813763 19.80083063 16.04214898 0 15 C0 10.05 0 5.1 0 0 Z " fill="#CBD5E1" transform="translate(432,67)"></path>
<path d="M0 0 C5.28 0 10.56 0 16 0 C15.67773438 2.01996094 15.35546875 4.03992188 15.0234375 6.12109375 C9.80533461 42.87408569 17.97791849 78.84922703 40.3046875 108.5859375 C62.64687315 137.37266823 94.96529959 155.5942474 130.92626953 160.73876953 C136.26977021 161.41189712 141.62170207 161.71693169 147 162 C147 166.95 147 171.9 147 177 C107.10586065 178.08802198 71.76035629 162.18816313 42.5703125 135.46875 C33.86584837 127.10823126 26.43191495 118.24755475 20 108 C19.62633301 107.40767578 19.25266602 106.81535156 18.86767578 106.20507812 C3.90787943 82.09077953 -2.45228916 55.81683368 -2.4375 27.625 C-2.43810425 26.50336456 -2.43810425 26.50336456 -2.4387207 25.35906982 C-2.41109495 16.70863816 -1.850453 8.48681657 0 0 Z " fill="#CBD5E1" transform="translate(283,187)"></path>
<path d="M0 0 C2.51495044 1.44776398 4.43961815 2.90728519 6.50390625 4.94140625 C7.17292969 5.59109375 7.84195313 6.24078125 8.53125 6.91015625 C15.93700286 14.78539446 17.00597527 21.35208661 16.94140625 31.94140625 C16.96138672 33.10414063 16.98136719 34.266875 17.00195312 35.46484375 C16.9983232 41.80995245 16.90392386 46.00404136 12.50390625 50.94140625 C11.8903125 51.73804688 11.27671875 52.5346875 10.64453125 53.35546875 C10.020625 54.08507812 9.39671875 54.8146875 8.75390625 55.56640625 C8.1403125 56.30117187 7.52671875 57.0359375 6.89453125 57.79296875 C0.06496307 63.93065257 -6.53324092 64.59819369 -15.49609375 64.50390625 C-17.0584375 64.53967773 -17.0584375 64.53967773 -18.65234375 64.57617188 C-25.68639703 64.5628498 -29.98291428 63.2876706 -35.49609375 58.94140625 C-36.52734375 58.21953125 -37.55859375 57.49765625 -38.62109375 56.75390625 C-44.31975459 51.72146099 -47.78035904 45.36519007 -48.2578125 37.77734375 C-48.26436292 35.62356579 -48.23923196 33.46947541 -48.18359375 31.31640625 C-48.19841797 30.23617187 -48.21324219 29.1559375 -48.22851562 28.04296875 C-48.15499266 20.95016508 -46.91396618 16.48747641 -42.49609375 10.94140625 C-41.73296875 9.88953125 -40.96984375 8.83765625 -40.18359375 7.75390625 C-30.12148015 -2.77621263 -13.58160043 -4.11241756 0 0 Z " fill="#CBD5E1" transform="translate(446.49609375,183.05859375)"></path>
<path d="M0 0 C26.18676119 -1.0169616 48.5155561 8.41026981 68 26 C85.79830145 43.07566365 95.80248253 66.19497438 96.40087891 90.75170898 C96.52552918 102.87187035 95.41291985 113.37474177 92 125 C86.39 125 80.78 125 75 125 C76.00911458 121.54947917 77.01822917 118.09895833 78.02734375 114.6484375 C83.6828481 93.43461797 79.56269183 72.47151735 68.97412109 53.65625 C66.92699401 50.1756209 64.62700263 47.05788666 62 44 C61.49210937 43.3503125 60.98421875 42.700625 60.4609375 42.03125 C47.88973174 26.5406647 27.76170186 17.96182885 8.328125 15.54296875 C5.55690591 15.29902341 2.77846449 15.13892322 0 15 C0 10.05 0 5.1 0 0 Z " fill="#CBD5E1" transform="translate(430,120)"></path>
<path d="M0 0 C1.48831242 0.00667405 2.97660807 0.01863442 4.46484375 0.03515625 C5.22345703 0.03966797 5.98207031 0.04417969 6.76367188 0.04882812 C8.64326246 0.06064945 10.52281274 0.07858547 12.40234375 0.09765625 C12.11359375 1.15339844 11.82484375 2.20914063 11.52734375 3.296875 C5.28918847 27.54465118 7.68471833 49.47450566 20.40234375 71.09765625 C22.23253218 73.9475847 24.19751903 76.53119361 26.40234375 79.09765625 C26.91023438 79.74734375 27.418125 80.39703125 27.94140625 81.06640625 C40.51261201 96.55699155 60.64064189 105.1358274 80.07421875 107.5546875 C82.84543784 107.79863284 85.62387926 107.95873303 88.40234375 108.09765625 C88.40234375 113.04765625 88.40234375 117.99765625 88.40234375 123.09765625 C62.48657068 124.10409404 40.45933567 115.03187597 21.15234375 97.78515625 C5.53085355 83.23637552 -6.56950954 60.84108229 -7.75878906 39.16015625 C-8.1383163 11.48114635 -8.1383163 11.48114635 -4.59765625 1.09765625 C-3.59765625 0.09765625 -3.59765625 0.09765625 0 0 Z " fill="#CBD5E1" transform="translate(342.59765625,185.90234375)"></path>
<path d="M0 0 C0 0.66 0 1.32 0 2 C0.99128906 1.67257813 1.98257812 1.34515625 3.00390625 1.0078125 C7.01822678 -0.13913622 10.75860244 -0.19896279 14.9375 -0.125 C15.62134766 -0.11597656 16.30519531 -0.10695312 17.00976562 -0.09765625 C18.67333287 -0.07438958 20.33671631 -0.03853167 22 0 C22 0.33 22 0.66 22 1 C20.02 1 18.04 1 16 1 C16 2.32 16 3.64 16 5 C16.66 5 17.32 5 18 5 C17.64864865 13.22162162 17.64864865 13.22162162 15.125 16.25 C14.42375 16.8275 13.7225 17.405 13 18 C12.525625 18.825 12.05125 19.65 11.5625 20.5 C9.6873108 23.50030272 8.03236415 25.16647749 5 27 C1.6875 26.75 1.6875 26.75 -1 26 C-1 26.66 -1 27.32 -1 28 C-0.38125 28.268125 0.2375 28.53625 0.875 28.8125 C3 30 3 30 5 33 C7.55183404 34.20450304 7.55183404 34.20450304 10 35 C9.67 37.31 9.34 39.62 9 42 C7.515 42.495 7.515 42.495 6 43 C5.32843384 44.93618425 5.32843384 44.93618425 5 47 C4.67 47.66 4.34 48.32 4 49 C3.34 49 2.68 49 2 49 C1.67 50.32 1.34 51.64 1 53 C-0.6027956 51.3972044 -0.19668444 49.52623175 -0.3125 47.3125 C-0.72466404 42.48331135 -2.2003206 39.9737385 -5 36 C-5.25 32.625 -5.25 32.625 -5 30 C-5.66 30 -6.32 30 -7 30 C-7.0825 29.38125 -7.165 28.7625 -7.25 28.125 C-7.81258459 25.81562433 -7.81258459 25.81562433 -10.0625 24.75 C-10.701875 24.5025 -11.34125 24.255 -12 24 C-12 23.34 -12 22.68 -12 22 C-12.66 22 -13.32 22 -14 22 C-14.33 22.99 -14.66 23.98 -15 25 C-15.33 25 -15.66 25 -16 25 C-16.61988847 18.05724912 -15.17043009 14.50360036 -11 9 C-10.56945312 8.42894531 -10.13890625 7.85789063 -9.6953125 7.26953125 C-3.91558642 0 -3.91558642 0 0 0 Z " fill="#CBD5E1" transform="translate(415,185)"></path>
<path d="M0 0 C6.31631828 0.40316925 10.64993984 2.71232131 16 6 C16.33 5.34 16.66 4.68 17 4 C18.15093925 5.4334152 19.29558035 6.87188909 20.4375 8.3125 C21.07558594 9.11300781 21.71367187 9.91351563 22.37109375 10.73828125 C25.27770191 14.77407532 25.09129217 18.16151505 25 23 C21.17902761 22.46930939 18.93828597 21.50298434 16 19 C16.99 19.99 17.98 20.98 19 22 C18.67 22.99 18.34 23.98 18 25 C17.34 25 16.68 25 16 25 C14.375 22.5 14.375 22.5 13 20 C13.66 22.64 14.32 25.28 15 28 C15.66 28 16.32 28 17 28 C16.690625 28.70125 16.38125 29.4025 16.0625 30.125 C14.96697322 33.08936657 14.43577008 35.87698108 14 39 C13.34 39 12.68 39 12 39 C11.87625 39.598125 11.7525 40.19625 11.625 40.8125 C11 43 11 43 9 46 C8.01 46 7.02 46 6 46 C6 42.04 6 38.08 6 34 C5.34 34 4.68 34 4 34 C3.67 32.68 3.34 31.36 3 30 C1.865625 29.87625 0.73125 29.7525 -0.4375 29.625 C-1.613125 29.41875 -2.78875 29.2125 -4 29 C-5.59565738 25.80868525 -5.51013639 22.46467633 -5 19 C-2.8372732 16.43676824 -1.63313066 16.05889588 1.6875 15.75 C4 16 4 16 5 17 C7.32817964 17.36760731 9.6618385 17.70241581 12 18 C12 17.34 12 16.68 12 16 C11.34 16 10.68 16 10 16 C10 15.34 10 14.68 10 14 C10.66 13.67 11.32 13.34 12 13 C11.01 12.67 10.02 12.34 9 12 C9 12.66 9 13.32 9 14 C7.88625 13.79375 6.7725 13.5875 5.625 13.375 C4.42875 13.25125 3.2325 13.1275 2 13 C1.34 13.66 0.68 14.32 0 15 C-0.99 15 -1.98 15 -3 15 C-3 14.34 -3 13.68 -3 13 C-2.01 13 -1.02 13 0 13 C0 12.01 0 11.02 0 10 C1.98 9.34 3.96 8.68 6 8 C5.34 7.34 4.68 6.68 4 6 C3.67 6.66 3.34 7.32 3 8 C2.34 7.34 1.68 6.68 1 6 C1.66 5.34 2.32 4.68 3 4 C2.67 3.01 2.34 2.02 2 1 C1.34 0.67 0.68 0.34 0 0 Z " fill="#CBD5E1" transform="translate(438,186)"></path>
<path d="M0 0 C5.83040381 3.37056921 5.83040381 3.37056921 7.02734375 7 C7.11757813 7.59296875 7.2078125 8.1859375 7.30078125 8.796875 C4.37913846 8.32941215 2.24201086 7.23555186 -0.26171875 5.734375 C-3.47714093 3.55136847 -3.47714093 3.55136847 -6.69921875 3.796875 C-6.69921875 4.456875 -6.69921875 5.116875 -6.69921875 5.796875 C-6.03921875 6.126875 -5.37921875 6.456875 -4.69921875 6.796875 C-5.35921875 7.456875 -6.01921875 8.116875 -6.69921875 8.796875 C-4.22421875 9.291875 -4.22421875 9.291875 -1.69921875 9.796875 C-2.02921875 10.456875 -2.35921875 11.116875 -2.69921875 11.796875 C-5.76171875 12.421875 -5.76171875 12.421875 -8.69921875 12.796875 C-8.69921875 13.786875 -8.69921875 14.776875 -8.69921875 15.796875 C-9.68921875 15.796875 -10.67921875 15.796875 -11.69921875 15.796875 C-11.69921875 16.456875 -11.69921875 17.116875 -11.69921875 17.796875 C-10.97734375 17.28125 -10.25546875 16.765625 -9.51171875 16.234375 C-6.69921875 14.796875 -6.69921875 14.796875 -4.01171875 15.046875 C-1.69921875 15.796875 -1.69921875 15.796875 0.30078125 16.796875 C0.30078125 16.136875 0.30078125 15.476875 0.30078125 14.796875 C1.62078125 15.126875 2.94078125 15.456875 4.30078125 15.796875 C3.31078125 16.126875 2.32078125 16.456875 1.30078125 16.796875 C1.30078125 17.456875 1.30078125 18.116875 1.30078125 18.796875 C1.96078125 18.796875 2.62078125 18.796875 3.30078125 18.796875 C3.30078125 19.456875 3.30078125 20.116875 3.30078125 20.796875 C0.9678335 20.83929223 -1.36624442 20.83780437 -3.69921875 20.796875 C-4.02921875 20.466875 -4.35921875 20.136875 -4.69921875 19.796875 C-9.04015565 19.93846162 -9.04015565 19.93846162 -12.69921875 21.796875 C-12.77127386 23.48296466 -12.78307943 25.17188159 -12.76171875 26.859375 C-12.75269531 27.77847656 -12.74367188 28.69757813 -12.734375 29.64453125 C-12.72277344 30.35480469 -12.71117187 31.06507813 -12.69921875 31.796875 C-10.38921875 31.796875 -8.07921875 31.796875 -5.69921875 31.796875 C-5.69921875 32.126875 -5.69921875 32.456875 -5.69921875 32.796875 C-7.24609375 32.8896875 -7.24609375 32.8896875 -8.82421875 32.984375 C-13.58384702 33.98236157 -15.23514838 35.50178367 -18.69921875 38.796875 C-19.35921875 38.466875 -20.01921875 38.136875 -20.69921875 37.796875 C-21.02921875 38.456875 -21.35921875 39.116875 -21.69921875 39.796875 C-21.69921875 38.806875 -21.69921875 37.816875 -21.69921875 36.796875 C-22.58609375 36.57 -23.47296875 36.343125 -24.38671875 36.109375 C-28.16334345 34.61297654 -30.08539851 32.87195763 -32.69921875 29.796875 C-32.69921875 29.136875 -32.69921875 28.476875 -32.69921875 27.796875 C-31.64734375 27.9 -30.59546875 28.003125 -29.51171875 28.109375 C-25.61446789 28.14591948 -25.61446789 28.14591948 -22.94921875 25.609375 C-20.93047186 23.08594138 -19.29078659 20.60106595 -17.69921875 17.796875 C-17.03921875 17.136875 -16.37921875 16.476875 -15.69921875 15.796875 C-15.02270668 13.59982989 -15.02270668 13.59982989 -14.57421875 11.171875 C-14.40664063 10.35460937 -14.2390625 9.53734375 -14.06640625 8.6953125 C-13.94523437 8.06882813 -13.8240625 7.44234375 -13.69921875 6.796875 C-14.35921875 6.796875 -15.01921875 6.796875 -15.69921875 6.796875 C-15.69921875 5.476875 -15.69921875 4.156875 -15.69921875 2.796875 C-22.66249513 2.45994227 -28.13267419 3.4937863 -34.69921875 5.796875 C-34.36921875 5.136875 -34.03921875 4.476875 -33.69921875 3.796875 C-33.03921875 3.796875 -32.37921875 3.796875 -31.69921875 3.796875 C-31.69921875 2.806875 -31.69921875 1.816875 -31.69921875 0.796875 C-22.70627819 -3.22912239 -9.29350859 -3.02259836 0 0 Z " fill="#CBD5E1" transform="translate(446.69921875,183.203125)"></path>
<path d="M0 0 C1.13480527 3.60993172 1.10015767 6.9842327 1.0625 10.75 C1.05347656 11.92046875 1.04445313 13.0909375 1.03515625 14.296875 C1.02355469 15.18890625 1.01195312 16.0809375 1 17 C-0.79143207 17.9795958 -2.58315304 18.9586633 -4.375 19.9375 C-5.37273437 20.48277344 -6.37046875 21.02804688 -7.3984375 21.58984375 C-11.34863676 23.73101782 -13.4362399 24.35105847 -18 24 C-21.375 22.5 -21.375 22.5 -24 21 C-23.4454626 17.67277559 -22.75986957 14.8986087 -21 12 C-20.34 11.67 -19.68 11.34 -19 11 C-18.34786708 8.97536745 -18.34786708 8.97536745 -18 7 C-17.34 7 -16.68 7 -16 7 C-16 6.34 -16 5.68 -16 5 C-15.4225 4.9175 -14.845 4.835 -14.25 4.75 C-11.82806032 4.15884821 -11.82806032 4.15884821 -10.25 1.9375 C-6.88047857 -0.96403234 -4.35235717 -0.29015714 0 0 Z " fill="#CBD5E1" transform="translate(442,216)"></path>
<path d="M0 0 C0 0.66 0 1.32 0 2 C0.99128906 1.67257813 1.98257812 1.34515625 3.00390625 1.0078125 C7.01822678 -0.13913622 10.75860244 -0.19896279 14.9375 -0.125 C15.62134766 -0.11597656 16.30519531 -0.10695312 17.00976562 -0.09765625 C18.67333287 -0.07438958 20.33671631 -0.03853167 22 0 C22 0.33 22 0.66 22 1 C20.02 1 18.04 1 16 1 C16 2.32 16 3.64 16 5 C9.6 8.07692308 9.6 8.07692308 6.5625 7.6875 C6.046875 7.460625 5.53125 7.23375 5 7 C4.67 8.65 4.34 10.3 4 12 C3.34 12 2.68 12 2 12 C2 12.66 2 13.32 2 14 C0.34997172 15.35386936 -1.3174387 16.68678142 -3 18 C-3.33 18.66 -3.66 19.32 -4 20 C-6.0625 20.625 -6.0625 20.625 -8 21 C-8.33 22.32 -8.66 23.64 -9 25 C-8.01 25.33 -7.02 25.66 -6 26 C-6.66 26.33 -7.32 26.66 -8 27 C-10 25.625 -10 25.625 -12 24 C-12 23.34 -12 22.68 -12 22 C-12.66 22 -13.32 22 -14 22 C-14.33 22.99 -14.66 23.98 -15 25 C-15.33 25 -15.66 25 -16 25 C-16.61988847 18.05724912 -15.17043009 14.50360036 -11 9 C-10.56945312 8.42894531 -10.13890625 7.85789063 -9.6953125 7.26953125 C-3.91558642 0 -3.91558642 0 0 0 Z " fill="#CBD5E1" transform="translate(415,185)"></path>
<path d="M0 0 C0.66 0 1.32 0 2 0 C7 5.47619048 7 5.47619048 7 8 C7.66 8 8.32 8 9 8 C9.45572917 9.98567708 9.91145833 11.97135417 10.3671875 13.95703125 C10.98007723 16.27742974 10.98007723 16.27742974 13 19 C13.1953125 22.35546875 13.1953125 22.35546875 13.125 26.1875 C13.10695313 27.45980469 13.08890625 28.73210937 13.0703125 30.04296875 C13.03550781 31.50669922 13.03550781 31.50669922 13 33 C10.18075577 32.65653877 8.45943 32.42375662 6.33984375 30.46875 C0.02878608 21.6086579 -3.44035991 14.15441511 -2 3 C-1.34 2.01 -0.68 1.02 0 0 Z " fill="#CBD5E1" transform="translate(401,207)"></path>
<path d="M0 0 C0.99 0 1.98 0 3 0 C3.10845027 3.04263267 3.18752063 6.08136204 3.25 9.125 C3.30027344 10.40890625 3.30027344 10.40890625 3.3515625 11.71875 C3.43890835 17.39623022 2.75091137 20.48305743 -1 25 C-1.61359375 25.79664063 -2.2271875 26.59328125 -2.859375 27.4140625 C-7.47876097 32.81607171 -11.90329348 37.48509301 -19.28125 38.23046875 C-21.18897346 38.24726209 -23.09705091 38.13592493 -25 38 C-24.39285156 37.75121094 -23.78570312 37.50242188 -23.16015625 37.24609375 C-20.64715803 35.79646187 -19.85030761 34.56638676 -18.4375 32.0625 C-16.87673471 29.32476417 -15.42231926 27.04965475 -13 25 C-12.34 25 -11.68 25 -11 25 C-10.731875 24.29875 -10.46375 23.5975 -10.1875 22.875 C-6.82017901 14.72253865 -6.82017901 14.72253865 -3.375 11.6875 C-0.12345881 8.00812444 -0.11444059 4.77529386 0 0 Z " fill="#CBD5E1" transform="translate(460,209)"></path>
<path d="M0 0 C5.83040381 3.37056921 5.83040381 3.37056921 7.02734375 7 C7.11757813 7.59296875 7.2078125 8.1859375 7.30078125 8.796875 C4.37913846 8.32941215 2.24201086 7.23555186 -0.26171875 5.734375 C-3.47714093 3.55136847 -3.47714093 3.55136847 -6.69921875 3.796875 C-6.69921875 4.456875 -6.69921875 5.116875 -6.69921875 5.796875 C-6.03921875 6.126875 -5.37921875 6.456875 -4.69921875 6.796875 C-5.35921875 7.456875 -6.01921875 8.116875 -6.69921875 8.796875 C-4.22421875 9.291875 -4.22421875 9.291875 -1.69921875 9.796875 C-2.02921875 10.456875 -2.35921875 11.116875 -2.69921875 11.796875 C-5.76171875 12.421875 -5.76171875 12.421875 -8.69921875 12.796875 C-8.69921875 13.786875 -8.69921875 14.776875 -8.69921875 15.796875 C-9.68921875 15.466875 -10.67921875 15.136875 -11.69921875 14.796875 C-11.03921875 14.796875 -10.37921875 14.796875 -9.69921875 14.796875 C-9.69921875 14.136875 -9.69921875 13.476875 -9.69921875 12.796875 C-11.01921875 12.796875 -12.33921875 12.796875 -13.69921875 12.796875 C-14.69921875 9.796875 -14.69921875 9.796875 -13.69921875 6.796875 C-14.35921875 6.796875 -15.01921875 6.796875 -15.69921875 6.796875 C-15.69921875 5.476875 -15.69921875 4.156875 -15.69921875 2.796875 C-22.66249513 2.45994227 -28.13267419 3.4937863 -34.69921875 5.796875 C-34.36921875 5.136875 -34.03921875 4.476875 -33.69921875 3.796875 C-33.03921875 3.796875 -32.37921875 3.796875 -31.69921875 3.796875 C-31.69921875 2.806875 -31.69921875 1.816875 -31.69921875 0.796875 C-22.70627819 -3.22912239 -9.29350859 -3.02259836 0 0 Z " fill="#CBD5E1" transform="translate(446.69921875,183.203125)"></path>
<path d="M0 0 C2.25 -0.3125 2.25 -0.3125 5 0 C6.37482707 1.63260714 7.70647667 3.30225062 9 5 C11.61818456 6.33298974 11.61818456 6.33298974 14 7 C13.67 9.31 13.34 11.62 13 14 C12.01 14.33 11.02 14.66 10 15 C9.32843384 16.93618425 9.32843384 16.93618425 9 19 C8.67 19.66 8.34 20.32 8 21 C7.34 21 6.68 21 6 21 C5.67 22.32 5.34 23.64 5 25 C3.3972044 23.3972044 3.80331556 21.52623175 3.6875 19.3125 C3.36837758 15.49925754 3.09486785 14.13951154 0.875 10.875 C-1.77412996 6.81300072 -0.96249021 4.65203602 0 0 Z " fill="#CBD5E1" transform="translate(411,213)"></path>
<path d="M0 0 C6.31631828 0.40316925 10.64993984 2.71232131 16 6 C16.33 5.34 16.66 4.68 17 4 C18.1998278 5.42722659 19.3845576 6.86715776 20.5625 8.3125 C21.22378906 9.11300781 21.88507813 9.91351563 22.56640625 10.73828125 C23.03949219 11.48464844 23.51257813 12.23101562 24 13 C23.67 13.99 23.34 14.98 23 16 C23 15.34 23 14.68 23 14 C21.02 14.33 19.04 14.66 17 15 C17 14.01 17 13.02 17 12 C14.36 12 11.72 12 9 12 C9 12.66 9 13.32 9 14 C7.88625 13.79375 6.7725 13.5875 5.625 13.375 C4.42875 13.25125 3.2325 13.1275 2 13 C1.34 13.66 0.68 14.32 0 15 C-0.99 15 -1.98 15 -3 15 C-3 14.34 -3 13.68 -3 13 C-2.01 13 -1.02 13 0 13 C0 12.01 0 11.02 0 10 C1.98 9.34 3.96 8.68 6 8 C5.34 7.34 4.68 6.68 4 6 C3.67 6.66 3.34 7.32 3 8 C2.34 7.34 1.68 6.68 1 6 C1.66 5.34 2.32 4.68 3 4 C2.67 3.01 2.34 2.02 2 1 C1.34 0.67 0.68 0.34 0 0 Z " fill="#CBD5E1" transform="translate(438,186)"></path>
<path d="M0 0 C0.75 1.75 0.75 1.75 1 4 C-0.75 5.9375 -0.75 5.9375 -3 8 C-3.474375 8.825 -3.94875 9.65 -4.4375 10.5 C-6.3126892 13.50030272 -7.96763585 15.16647749 -11 17 C-14.3125 16.75 -14.3125 16.75 -17 16 C-17 16.66 -17 17.32 -17 18 C-17.99 18 -18.98 18 -20 18 C-20.33 19.32 -20.66 20.64 -21 22 C-21 21.34 -21 20.68 -21 20 C-21.66 20 -22.32 20 -23 20 C-23.33 19.01 -23.66 18.02 -24 17 C-23.67 16.67 -23.34 16.34 -23 16 C-23.66 15.67 -24.32 15.34 -25 15 C-24.67 13.35 -24.34 11.7 -24 10 C-18.1964775 10.92328767 -18.1964775 10.92328767 -16.0390625 11.765625 C-13.8634057 12.25761287 -13.8634057 12.25761287 -12.0703125 10.48828125 C-11.42835938 9.77027344 -10.78640625 9.05226562 -10.125 8.3125 C-6.94683073 4.9141205 -3.97877704 2.38726622 0 0 Z " fill="#CBD5E1" transform="translate(431,195)"></path>
<path d="M0 0 C2.43608083 3.65412124 4.362616 7.50205838 6.3671875 11.40625 C8.70977218 15.12748499 10.86092868 16.62030956 15 18 C15 13.71 15 9.42 15 5 C15.33 5 15.66 5 16 5 C16.33 8.3 16.66 11.6 17 15 C17.66 14.01 18.32 13.02 19 12 C19 13.98 19 15.96 19 18 C21.64 18.99 24.28 19.98 27 21 C26.67 21.99 26.34 22.98 26 24 C26.66 24.33 27.32 24.66 28 25 C21.03462652 25.62190835 17.53317375 24.14988031 12 20 C10.453125 18.9171875 10.453125 18.9171875 8.875 17.8125 C4.92005398 14.38995056 2.09413896 9.75265579 0 5 C-0.1640625 2.1875 -0.1640625 2.1875 0 0 Z " fill="#CBD5E1" transform="translate(399,222)"></path>
<path d="M0 0 C0 0.66 0 1.32 0 2 C0.99128906 1.67257813 1.98257812 1.34515625 3.00390625 1.0078125 C7.01822678 -0.13913622 10.75860244 -0.19896279 14.9375 -0.125 C15.62134766 -0.11597656 16.30519531 -0.10695312 17.00976562 -0.09765625 C18.67333287 -0.07438958 20.33671631 -0.03853167 22 0 C22 0.33 22 0.66 22 1 C20.02 1 18.04 1 16 1 C16 2.32 16 3.64 16 5 C8.71428571 8.57142857 8.71428571 8.57142857 4 7 C4 6.34 4 5.68 4 5 C2.56206608 5.31049726 1.1246682 5.6234776 -0.3125 5.9375 C-1.11300781 6.11152344 -1.91351563 6.28554687 -2.73828125 6.46484375 C-5.145401 6.99886159 -5.145401 6.99886159 -8 8 C-7.65978036 4.82461668 -6.97533396 3.97723135 -4.5625 1.75 C-2 0 -2 0 0 0 Z " fill="#CBD5E1" transform="translate(415,185)"></path>
<path d="M0 0 C0.33 0 0.66 0 1 0 C1 2.97 1 5.94 1 9 C-0.79143207 9.9795958 -2.58315304 10.9586633 -4.375 11.9375 C-5.37273437 12.48277344 -6.37046875 13.02804688 -7.3984375 13.58984375 C-11.34863676 15.73101782 -13.4362399 16.35105847 -18 16 C-21.375 14.5 -21.375 14.5 -24 13 C-23.625 10.5625 -23.625 10.5625 -23 8 C-22.34 7.67 -21.68 7.34 -21 7 C-20.67 8.32 -20.34 9.64 -20 11 C-13.35123694 11.72531961 -10.2694144 10.35643721 -4.98046875 6.3125 C-3 5 -3 5 0 5 C0 3.35 0 1.7 0 0 Z " fill="#CBD5E1" transform="translate(442,224)"></path>
<path d="M0 0 C0.66 0.33 1.32 0.66 2 1 C2.33 1 2.66 1 3 1 C3.66 1.33 4.32 1.66 5 2 C2.3991542 4.87950786 0.78271103 6.21737013 -3 7 C-3.33 7.66 -3.66 8.32 -4 9 C-9.83624248 10.94541416 -16.01287158 10.80832343 -21.6875 8.5 C-22.450625 8.005 -23.21375 7.51 -24 7 C-23.34 6.67 -22.68 6.34 -22 6 C-21.67 5.34 -21.34 4.68 -21 4 C-19.948125 4.495 -19.948125 4.495 -18.875 5 C-14.6756079 6.46065812 -11.78317677 6.82483052 -7.65234375 4.9140625 C-3.578929 2.80597113 -3.578929 2.80597113 0 0 Z " fill="#CBD5E1" transform="translate(440,233)"></path>
<path d="M0 0 C1.37562854 1.28965176 2.70766393 2.62689293 4 4 C4 4.66 4 5.32 4 6 C4.99 5.01 5.98 4.02 7 3 C6.01 2.67 5.02 2.34 4 2 C4 1.34 4 0.68 4 0 C6.46800047 1.15173355 8.04783565 2.04783565 10 4 C10.76658258 8.5370992 10.57726182 12.04453215 8.1875 16 C6 18 6 18 3 19 C2.75 12.375 2.75 12.375 5 9 C4.34 9 3.68 9 3 9 C0 3.375 0 3.375 0 0 Z " fill="#CBD5E1" transform="translate(450,205)"></path>
<path d="M0 0 C0.33 0 0.66 0 1 0 C1 7.38086764 -3.08252001 11.79479512 -8 17 C-11.8623278 20.34894265 -15.29473534 22.15479817 -20 24 C-19.505 22.515 -19.505 22.515 -19 21 C-18.34 21 -17.68 21 -17 21 C-16.9071875 20.195625 -16.9071875 20.195625 -16.8125 19.375 C-15.58845443 15.79702065 -13.65842988 13.65842988 -11 11 C-9.4840625 10.7834375 -9.4840625 10.7834375 -7.9375 10.5625 C-4.99974313 10.32370381 -4.99974313 10.32370381 -3.765625 8.50390625 C-2.18997847 5.75794256 -1.00014935 3.00044805 0 0 Z " fill="#CBD5E1" transform="translate(462,223)"></path>
<path d="M0 0 C0.66 0 1.32 0 2 0 C1.773125 0.928125 1.54625 1.85625 1.3125 2.8125 C0.63680017 5.96826848 0.63680017 5.96826848 2.4375 7.875 C2.953125 8.24625 3.46875 8.6175 4 9 C2.9275 9.226875 1.855 9.45375 0.75 9.6875 C-3.41998137 11.14699348 -4.67299718 12.33049555 -7 16 C-7.33 16.99 -7.66 17.98 -8 19 C-9.125 20.6875 -9.125 20.6875 -11 22 C-14.6875 22.1875 -14.6875 22.1875 -18 22 C-17.39285156 21.75121094 -16.78570312 21.50242188 -16.16015625 21.24609375 C-13.64715803 19.79646187 -12.85030761 18.56638676 -11.4375 16.0625 C-9.87673471 13.32476417 -8.42231926 11.04965475 -6 9 C-5.34 9 -4.68 9 -4 9 C-3.71125 8.2575 -3.4225 7.515 -3.125 6.75 C-2.17697356 4.43260203 -1.15154089 2.22082885 0 0 Z " fill="#CBD5E1" transform="translate(453,225)"></path>
<path d="M0 0 C6.29154152 3.61079774 6.29154152 3.61079774 7.4453125 7 C7.5278125 7.59296875 7.6103125 8.1859375 7.6953125 8.796875 C4.14135445 8.13258378 1.55448949 6.6033242 -1.5546875 4.796875 C-8.99884758 0.94581199 -16.0984509 0.81770301 -24.3046875 0.796875 C-17.97199752 -3.31440017 -6.88073489 -2.50504296 0 0 Z " fill="#CBD5E1" transform="translate(446.3046875,183.203125)"></path>
<path d="M0 0 C1.32 0.66 2.64 1.32 4 2 C4 2.66 4 3.32 4 4 C6.31 4 8.62 4 11 4 C11 4.33 11 4.66 11 5 C9.453125 5.0928125 9.453125 5.0928125 7.875 5.1875 C3.11537173 6.18548657 1.46407037 7.70490867 -2 11 C-2.66 10.67 -3.32 10.34 -4 10 C-4.33 10.66 -4.66 11.32 -5 12 C-5 11.01 -5 10.02 -5 9 C-6.32 8.34 -7.64 7.68 -9 7 C-8.1646875 6.38125 -8.1646875 6.38125 -7.3125 5.75 C-4.83804044 3.87743601 -2.4164771 1.94660656 0 0 Z " fill="#CBD5E1" transform="translate(430,211)"></path>
<path d="M0 0 C0.33 0 0.66 0 1 0 C1 4.62 1 9.24 1 14 C-5.10442925 12.77911415 -5.66571278 11.90336356 -9 7 C-8.67 6.01 -8.34 5.02 -8 4 C-5.69 4 -3.38 4 -1 4 C-0.67 2.68 -0.34 1.36 0 0 Z " fill="#CBD5E1" transform="translate(413,226)"></path>
<path d="M0 0 C0.99 0 1.98 0 3 0 C3.33 0.66 3.66 1.32 4 2 C4.99 1.67 5.98 1.34 7 1 C7.66 1.33 8.32 1.66 9 2 C9 2.66 9 3.32 9 4 C9.66 4 10.32 4 11 4 C11 6.31 11 8.62 11 11 C7.68437443 10.44739574 4.84937793 9.83174295 2 8 C1.10869587 5.3260876 0.52268466 2.76276177 0 0 Z " fill="#CBD5E1" transform="translate(452,198)"></path>
<path d="M0 0 C0 0.33 0 0.66 0 1 C0.83144531 1.04898438 1.66289062 1.09796875 2.51953125 1.1484375 C3.60621094 1.22320312 4.69289063 1.29796875 5.8125 1.375 C6.89144531 1.44460937 7.97039062 1.51421875 9.08203125 1.5859375 C12 2 12 2 15 4 C14.01 5.485 14.01 5.485 13 7 C11.0546875 7.29296875 11.0546875 7.29296875 8.875 7.1875 C7.59625 7.125625 6.3175 7.06375 5 7 C5 6.01 5 5.02 5 4 C-1.96327638 3.66306727 -7.43345544 4.6969113 -14 7 C-13.67 6.34 -13.34 5.68 -13 5 C-12.34 5 -11.68 5 -11 5 C-11 4.01 -11 3.02 -11 2 C-7.17010894 0.19769832 -4.21878192 -0.19622241 0 0 Z " fill="#CBD5E1" transform="translate(426,182)"></path>
<path d="M0 0 C0.66 0.33 1.32 0.66 2 1 C-1.09464626 6.12550787 -3.23237941 8.74035059 -9.00390625 10.5078125 C-16.35779817 12.32110092 -16.35779817 12.32110092 -19 11 C-18.67 9.35 -18.34 7.7 -18 6 C-12.18618619 6.92492492 -12.18618619 6.92492492 -10.0625 7.78125 C-7.82545892 8.25875611 -7.82545892 8.25875611 -5.859375 6.34765625 C-5.16328125 5.59355469 -4.4671875 4.83945313 -3.75 4.0625 C-3.04359375 3.31097656 -2.3371875 2.55945313 -1.609375 1.78515625 C-0.81273437 0.90150391 -0.81273437 0.90150391 0 0 Z " fill="#CBD5E1" transform="translate(425,199)"></path>
<path d="M0 0 C0.33 0.99 0.66 1.98 1 3 C2.32 2.67 3.64 2.34 5 2 C3.5353986 6.52694979 1.40330287 9.67232608 -2 13 C-5.8125 13.875 -5.8125 13.875 -9 14 C-7.71937515 12.2925002 -6.38232443 10.62626404 -5 9 C-4.34 9 -3.68 9 -3 9 C-3 8.34 -3 7.68 -3 7 C-2.34 7 -1.68 7 -1 7 C-1.20625 6.401875 -1.4125 5.80375 -1.625 5.1875 C-2 3 -2 3 0 0 Z " fill="#CBD5E1" transform="translate(420,190)"></path>
<path d="M0 0 C4.77576339 0.4682121 8.04476345 1.24331998 12 4 C11.01 5.485 11.01 5.485 10 7 C9.34 7 8.68 7 8 7 C7.67 7.99 7.34 8.98 7 10 C5.35 10 3.7 10 2 10 C3.32 9.01 4.64 8.02 6 7 C5.34 6.67 4.68 6.34 4 6 C3.67 6.66 3.34 7.32 3 8 C2.34 7.34 1.68 6.68 1 6 C1.66 5.34 2.32 4.68 3 4 C2.67 3.01 2.34 2.02 2 1 C1.34 0.67 0.68 0.34 0 0 Z " fill="#CBD5E1" transform="translate(438,186)"></path>
<path d="M0 0 C0.66 0.33 1.32 0.66 2 1 C2 0.34 2 -0.32 2 -1 C3.32 -0.67 4.64 -0.34 6 0 C5.01 0.33 4.02 0.66 3 1 C3 1.66 3 2.32 3 3 C3.66 3 4.32 3 5 3 C5 3.66 5 4.32 5 5 C2.66705225 5.04241723 0.33297433 5.04092937 -2 5 C-2.33 4.67 -2.66 4.34 -3 4 C-5.33297433 3.95907063 -7.66705225 3.95758277 -10 4 C-10 3.34 -10 2.68 -10 2 C-6.37566351 -0.79591672 -4.36726357 -1.41640981 0 0 Z " fill="#CBD5E1" transform="translate(445,199)"></path>
<path d="M0 0 C0 1.65 0 3.3 0 5 C-0.53625 5.2475 -1.0725 5.495 -1.625 5.75 C-4.56363927 7.29665225 -7.24770663 9.1451936 -10 11 C-10.99 11.495 -10.99 11.495 -12 12 C-11.51221748 7.72081695 -10.40381422 5.9438658 -7.125 3.1875 C-6.42632812 2.58292969 -5.72765625 1.97835937 -5.0078125 1.35546875 C-3 0 -3 0 0 0 Z " fill="#CBD5E1" transform="translate(432,207)"></path>
<path d="M0 0 C0.33 0 0.66 0 1 0 C1.06908316 2.97057595 1.07636851 5.65209901 0.4375 8.5625 C-0.05868429 11.32695534 0.30570637 13.29996922 1 16 C0.34 15.67 -0.32 15.34 -1 15 C-1 14.34 -1 13.68 -1 13 C-1.66 13 -2.32 13 -3 13 C-3.33 13.99 -3.66 14.98 -4 16 C-4.33 16 -4.66 16 -5 16 C-5.60302137 9.24616066 -4.2964649 5.29662559 0 0 Z " fill="#CBD5E1" transform="translate(404,194)"></path>
<path d="M0 0 C2 3 2 3 2 7 C2.66 7.66 3.32 8.32 4 9 C2.68 9.33 1.36 9.66 0 10 C-0.33 11.32 -0.66 12.64 -1 14 C-0.01 14.33 0.98 14.66 2 15 C1.01 15.495 1.01 15.495 0 16 C-2 15 -2 15 -3.1875 12.25 C-4.03398737 8.86405054 -4.11666219 7.26408948 -3 4 C-1.4375 1.6875 -1.4375 1.6875 0 0 Z " fill="#CBD5E1" transform="translate(407,196)"></path>
<path d="M0 0 C0 0.66 0 1.32 0 2 C-1.093125 2.226875 -2.18625 2.45375 -3.3125 2.6875 C-7.12488211 3.65747195 -7.12488211 3.65747195 -8.9375 6.625 C-9.288125 7.40875 -9.63875 8.1925 -10 9 C-10.66 8.34 -11.32 7.68 -12 7 C-12.99 7.495 -12.99 7.495 -14 8 C-13.67 5.69 -13.34 3.38 -13 1 C-12.34 1.33 -11.68 1.66 -11 2 C-10.443125 1.690625 -9.88625 1.38125 -9.3125 1.0625 C-6.15946578 -0.3861914 -3.42532653 -0.13174333 0 0 Z " fill="#CBD5E1" transform="translate(419,190)"></path>
<path d="M0 0 C2.25 0.25 2.25 0.25 4 1 C3.38125 1.598125 2.7625 2.19625 2.125 2.8125 C-0.13676954 5.00811144 -0.13676954 5.00811144 -2 8 C-2.94875 8.309375 -3.8975 8.61875 -4.875 8.9375 C-8.23840847 10.08105888 -9.70387869 11.35062926 -12 14 C-12.33 13.34 -12.66 12.68 -13 12 C-12.34 11.67 -11.68 11.34 -11 11 C-10.34786708 8.97536745 -10.34786708 8.97536745 -10 7 C-9.34 7 -8.68 7 -8 7 C-8 6.34 -8 5.68 -8 5 C-7.13375 4.87625 -7.13375 4.87625 -6.25 4.75 C-3.80951346 4.13404608 -3.80951346 4.13404608 -2 1.875 C-1.34 1.25625 -0.68 0.6375 0 0 Z " fill="#CBD5E1" transform="translate(434,216)"></path>
<path d="M0 0 C6.24675325 6.07792208 6.24675325 6.07792208 8 9 C7.67 9.99 7.34 10.98 7 12 C7 11.34 7 10.68 7 10 C5.02 10.33 3.04 10.66 1 11 C1 10.01 1 9.02 1 8 C0.34 8 -0.32 8 -1 8 C-1.33 6.02 -1.66 4.04 -2 2 C-1.34 2 -0.68 2 0 2 C0 1.34 0 0.68 0 0 Z " fill="#CBD5E1" transform="translate(454,190)"></path>
<path d="M0 0 C0.66 0.33 1.32 0.66 2 1 C-1.01887244 4.48331435 -3.56909529 5.79157144 -8 7 C-8 7.66 -8 8.32 -8 9 C-13.39449293 9.27429625 -16.51925805 9.36055646 -21 6 C-20.34 5.34 -19.68 4.68 -19 4 C-18.01 4.66 -17.02 5.32 -16 6 C-10.04011127 6.99331479 -5.84557151 4.11136697 -1 1 C-0.67 0.67 -0.34 0.34 0 0 Z " fill="#CBD5E1" transform="translate(440,233)"></path>
<path d="M0 0 C-1.2375 0.804375 -1.2375 0.804375 -2.5 1.625 C-5.33951208 3.80271869 -5.33951208 3.80271869 -5.3125 7.25 C-5.209375 8.1575 -5.10625 9.065 -5 10 C-2.69 10.33 -0.38 10.66 2 11 C2 11.33 2 11.66 2 12 C-0.97 12 -3.94 12 -7 12 C-8.59456461 8.81087077 -8.51583614 5.46246175 -8 2 C-5.41249751 -1.0495565 -3.68979057 -1.44956058 0 0 Z " fill="#CBD5E1" transform="translate(441,203)"></path>
<path d="M0 0 C0.99 0 1.98 0 3 0 C3.33 2.31 3.66 4.62 4 7 C4.598125 6.814375 5.19625 6.62875 5.8125 6.4375 C8 6 8 6 11 7 C11 5.68 11 4.36 11 3 C11.66 3 12.32 3 13 3 C13 4.98 13 6.96 13 9 C10.36 8.67 7.72 8.34 5 8 C4.67 8.66 4.34 9.32 4 10 C0 3.375 0 3.375 0 0 Z " fill="#CBD5E1" transform="translate(400,222)"></path>
<path d="M0 0 C1.11375 0.3403125 1.11375 0.3403125 2.25 0.6875 C2.25 1.0175 2.25 1.3475 2.25 1.6875 C1.1775 1.914375 0.105 2.14125 -1 2.375 C-5.16998137 3.83449348 -6.42299718 5.01799555 -8.75 8.6875 C-9.08 9.6775 -9.41 10.6675 -9.75 11.6875 C-10.74 12.0175 -11.73 12.3475 -12.75 12.6875 C-12.33311525 7.82384454 -10.33780535 5.85811868 -6.75 2.6875 C-6.09 2.06875 -5.43 1.45 -4.75 0.8125 C-2.75 -0.3125 -2.75 -0.3125 0 0 Z " fill="#CBD5E1" transform="translate(454.75,232.3125)"></path>
<path d="M0 0 C2.97 0 5.94 0 9 0 C9 0.66 9 1.32 9 2 C7.68 2 6.36 2 5 2 C5 2.66 5 3.32 5 4 C4.01 4 3.02 4 2 4 C1.67 5.32 1.34 6.64 1 8 C1 7.34 1 6.68 1 6 C0.34 6 -0.32 6 -1 6 C-1.33 5.01 -1.66 4.02 -2 3 C-1.34 3 -0.68 3 0 3 C0 2.01 0 1.02 0 0 Z " fill="#CBD5E1" transform="translate(409,209)"></path>
<path d="M0 0 C1.23556641 0.01740234 1.23556641 0.01740234 2.49609375 0.03515625 C3.32238281 0.04417969 4.14867187 0.05320313 5 0.0625 C5.63808594 0.07410156 6.27617187 0.08570313 6.93359375 0.09765625 C5.93359375 3.09765625 5.93359375 3.09765625 4.05859375 4.28515625 C1.93359375 5.09765625 1.93359375 5.09765625 -1.06640625 5.09765625 C-1.06640625 4.10765625 -1.06640625 3.11765625 -1.06640625 2.09765625 C-1.72640625 1.76765625 -2.38640625 1.43765625 -3.06640625 1.09765625 C-2.06640625 0.09765625 -2.06640625 0.09765625 0 0 Z " fill="#CBD5E1" transform="translate(423.06640625,186.90234375)"></path>
<path d="M0 0 C0.99 0.33 1.98 0.66 3 1 C3.33 2.98 3.66 4.96 4 7 C1.03 6.505 1.03 6.505 -2 6 C-1.67 5.01 -1.34 4.02 -1 3 C-1.66 2.67 -2.32 2.34 -3 2 C-2.01 1.34 -1.02 0.68 0 0 Z " fill="#CBD5E1" transform="translate(449,191)"></path>
<path d="M0 0 C-8.58595642 4.88135593 -8.58595642 4.88135593 -14 4 C-15.875 2.5 -15.875 2.5 -17 1 C-15.80375 1.04125 -14.6075 1.0825 -13.375 1.125 C-8.54271369 1.15065816 -4.54187577 -1.51395859 0 0 Z " fill="#CBD5E1" transform="translate(438,236)"></path>
<path d="M0 0 C1.52519276 0.08937803 3.04681929 0.24537146 4.5625 0.4375 C5.38878906 0.53933594 6.21507812 0.64117187 7.06640625 0.74609375 C7.70449219 0.82988281 8.34257812 0.91367188 9 1 C9 1.33 9 1.66 9 2 C7.453125 2.0928125 7.453125 2.0928125 5.875 2.1875 C1.11537173 3.18548657 -0.53592963 4.70490867 -4 8 C-4.66 7.34 -5.32 6.68 -6 6 C-4 4 -2 2 0 0 Z " fill="#CBD5E1" transform="translate(432,214)"></path>
<path d="M0 0 C1.32 0 2.64 0 4 0 C4.33 0.99 4.66 1.98 5 3 C5.66 3.66 6.32 4.32 7 5 C1.25 6.125 1.25 6.125 -1 5 C-0.67 3.35 -0.34 1.7 0 0 Z " fill="#CBD5E1" transform="translate(407,205)"></path>
<path d="M0 0 C0.66 0 1.32 0 2 0 C4.125 4.625 4.125 4.625 3 8 C2.67 7.01 2.34 6.02 2 5 C1.34 5 0.68 5 0 5 C-0.33 5.99 -0.66 6.98 -1 8 C-1.93065133 5.39417629 -2.14917407 4.35801776 -1.0625 1.75 C-0.711875 1.1725 -0.36125 0.595 0 0 Z " fill="#CBD5E1" transform="translate(401,202)"></path>
<path d="M0 0 C2.50839019 1.00335608 5.01350295 2.00573875 7.5 3.0625 C9.99334215 3.99750331 12.37963467 4.55079451 15 5 C15 5.33 15 5.66 15 6 C8.53673535 6.45356243 5.39068413 5.59378942 0 2 C0 1.34 0 0.68 0 0 Z " fill="#CBD5E1" transform="translate(412,241)"></path>
<path d="M0 0 C0.66 0 1.32 0 2 0 C1.49396008 2.16874252 1.00016187 3.99967627 0 6 C-0.66 6 -1.32 6 -2 6 C-2.33 7.32 -2.66 8.64 -3 10 C-3.625 7.6875 -3.625 7.6875 -4 5 C-3.34 4.01 -2.68 3.02 -2 2 C-1.34 2 -0.68 2 0 2 C0 1.34 0 0.68 0 0 Z " fill="#CBD5E1" transform="translate(419,228)"></path>
<path d="M0 0 C0.12375 0.53625 0.2475 1.0725 0.375 1.625 C1.12206016 4.4638286 2.05303364 7.22223202 3 10 C1.68 10.33 0.36 10.66 -1 11 C-1.02688151 9.35425434 -1.04634123 7.70838587 -1.0625 6.0625 C-1.07410156 5.14597656 -1.08570313 4.22945312 -1.09765625 3.28515625 C-1 1 -1 1 0 0 Z " fill="#CBD5E1" transform="translate(445,221)"></path>
<path d="M0 0 C0.33 0 0.66 0 1 0 C1.78774617 8.03501094 1.78774617 8.03501094 -1.5 12.0625 C-2.325 12.701875 -3.15 13.34125 -4 14 C-3.24964259 10.88200997 -2.36636589 7.81929597 -1.4375 4.75 C-1.16808594 3.85796875 -0.89867187 2.9659375 -0.62109375 2.046875 C-0.41613281 1.37140625 -0.21117187 0.6959375 0 0 Z " fill="#CBD5E1" transform="translate(459,209)"></path>
<path d="M0 0 C4.55737263 0.43820891 7.57653445 0.85041169 11 4 C8.21176345 5.0326802 7.1322726 5.04509293 4.25 4.0625 C3.5075 3.711875 2.765 3.36125 2 3 C2 2.34 2 1.68 2 1 C1.34 0.67 0.68 0.34 0 0 Z " fill="#CBD5E1" transform="translate(438,186)"></path>
<path d="M0 0 C0 0.66 0 1.32 0 2 C-0.66 2.66 -1.32 3.32 -2 4 C-2.7115625 4.7734375 -2.7115625 4.7734375 -3.4375 5.5625 C-5 7 -5 7 -8 8 C-7.65978036 4.82461668 -6.97533396 3.97723135 -4.5625 1.75 C-2 0 -2 0 0 0 Z " fill="#CBD5E1" transform="translate(415,185)"></path>
<path d="M0 0 C0.99 0.33 1.98 0.66 3 1 C3.33 2.98 3.66 4.96 4 7 C3.01 7.495 3.01 7.495 2 8 C1.67 7.34 1.34 6.68 1 6 C0.01 6.495 0.01 6.495 -1 7 C-0.67 4.69 -0.34 2.38 0 0 Z " fill="#CBD5E1" transform="translate(406,191)"></path>
<path d="M0 0 C0.99 0.33 1.98 0.66 3 1 C2.34 1 1.68 1 1 1 C0.67 1.99 0.34 2.98 0 4 C-2.06640625 4.94921875 -2.06640625 4.94921875 -4.5625 5.6875 C-5.38878906 5.93886719 -6.21507812 6.19023437 -7.06640625 6.44921875 C-7.70449219 6.63097656 -8.34257812 6.81273437 -9 7 C-6.25573901 4.15772969 -3.42700495 1.99908622 0 0 Z " fill="#CBD5E1" transform="translate(439,229)"></path>
<path d="M0 0 C0.99 0 1.98 0 3 0 C1.9024777 2.99324263 1.32317108 3.84610901 -1.625 5.25 C-2.40875 5.4975 -3.1925 5.745 -4 6 C-2.84826645 3.53199953 -1.95216435 1.95216435 0 0 Z " fill="#CBD5E1" transform="translate(451,238)"></path>
<path d="M0 0 C2.63249349 2.45699392 4.78137264 4.56568654 6 8 C5.67 8.99 5.34 9.98 5 11 C5 10.34 5 9.68 5 9 C4.34 9 3.68 9 3 9 C0 3.375 0 3.375 0 0 Z " fill="#CBD5E1" transform="translate(450,205)"></path>
<path d="M0 0 C0.66 0.66 1.32 1.32 2 2 C1.7578125 4.8203125 1.7578125 4.8203125 1.125 8.125 C0.92132813 9.22070312 0.71765625 10.31640625 0.5078125 11.4453125 C0.34023438 12.28835937 0.17265625 13.13140625 0 14 C-0.33 14 -0.66 14 -1 14 C-1.93402724 8.58264203 -2.20808081 5.19548425 0 0 Z " fill="#CBD5E1" transform="translate(433,199)"></path>
<path d="M0 0 C2.5 1.3125 2.5 1.3125 5 3 C5 3.99 5 4.98 5 6 C1.73045798 5.43628586 0.17424117 4.50037734 -2 2 C-1.34 2 -0.68 2 0 2 C0 1.34 0 0.68 0 0 Z " fill="#CBD5E1" transform="translate(449,186)"></path>
<path d="M0 0 C1.32 0.33 2.64 0.66 4 1 C4.33 2.65 4.66 4.3 5 6 C3.0625 5.25 3.0625 5.25 1 4 C0.25 1.875 0.25 1.875 0 0 Z " fill="#CBD5E1" transform="translate(409,233)"></path>
<path d="M0 0 C0 3.57575896 -1.08840607 5.05295935 -3 8 C-3.66 7.67 -4.32 7.34 -5 7 C-3.47793991 4.37098712 -2.15634036 2.15634036 0 0 Z " fill="#CBD5E1" transform="translate(431,199)"></path>
<path d="M0 0 C0.99 0.66 1.98 1.32 3 2 C3 2.99 3 3.98 3 5 C2.01 5 1.02 5 0 5 C-0.33 5.66 -0.66 6.32 -1 7 C-1.33 5.35 -1.66 3.7 -2 2 C-1.34 2 -0.68 2 0 2 C0 1.34 0 0.68 0 0 Z " fill="#CBD5E1" transform="translate(454,190)"></path>
<path d="M0 0 C1 3 1 3 0 6 C-2.5625 7.1875 -2.5625 7.1875 -5 8 C-4.67 7.01 -4.34 6.02 -4 5 C-3.34 5 -2.68 5 -2 5 C-1.7834375 4.0409375 -1.7834375 4.0409375 -1.5625 3.0625 C-1 1 -1 1 0 0 Z " fill="#CBD5E1" transform="translate(447,239)"></path>
<path d="M0 0 C0.33 0 0.66 0 1 0 C1.93750716 3.66480073 2.28668844 5.40056054 0.625 8.875 C0.08875 9.57625 -0.4475 10.2775 -1 11 C-1.33 11 -1.66 11 -2 11 C-2 9.35 -2 7.7 -2 6 C-1.34 6 -0.68 6 0 6 C0 4.02 0 2.04 0 0 Z " fill="#CBD5E1" transform="translate(452,219)"></path>
<path d="M0 0 C0.99 0 1.98 0 3 0 C3.33 2.64 3.66 5.28 4 8 C1 6 1 6 0.3125 2.875 C0.209375 1.92625 0.10625 0.9775 0 0 Z " fill="#CBD5E1" transform="translate(400,222)"></path>
<path d="M0 0 C2.31 0.33 4.62 0.66 7 1 C7 1.66 7 2.32 7 3 C4.69 3 2.38 3 0 3 C0 2.01 0 1.02 0 0 Z " fill="#CBD5E1" transform="translate(443,201)"></path>
<path d="M0 0 C2.97 0.495 2.97 0.495 6 1 C5.38125 1.28875 4.7625 1.5775 4.125 1.875 C1.86674235 2.93720042 1.86674235 2.93720042 0 5 C-0.99 5 -1.98 5 -3 5 C-3 4.34 -3 3.68 -3 3 C-2.01 3 -1.02 3 0 3 C0 2.01 0 1.02 0 0 Z " fill="#CBD5E1" transform="translate(438,196)"></path>
</svg>
