<svg id="eK1d6OMFiSk1" xmlns="http://www.w3.org/2000/svg" xmlns:xlink="http://www.w3.org/1999/xlink" viewBox="0 0 8887.6 10282.2" shape-rendering="geometricPrecision" text-rendering="geometricPrecision" project-id="909cf17ad79748af9bbef4eb9af64705" export-id="68d9bd6c954747099a73f89ef3fa6f5d" cached="false"><path d="M874.98,4066.23v1396.15m1783.29-659.39v2825.96m0-5053.09v814.15m1786.39-2540v8582.18M6239.99,7628.95v-494.53M8012.62,4143.59v1318.79m-1772.5,228.76v-3115.28" transform="matrix(.782869 0 0 0.782869 916.575045-137.401961)" stroke="#CBD5E1" stroke-width="1190.63" stroke-linecap="round" stroke-miterlimit="22.9256"/><g transform="matrix(31.95318 0 0 31.95318 17187.176862 4238.750825)"><path d="M-518.736,138.051c.48-.391,1.669-.591,3.559-.6.060349.000678.110769-.045796.115-.106v-10.5c-.003626-.061833-.054078-.110545-.116-.112q-15.992.06-15.991,16.132v37.385c-.001087.029595.009915.058359.030476.079674s.048909.033346.078524.033326h10.474c.029789.000005.05833-.011964.079205-.033215s.032332-.050001.031795-.079785v-37.464q0-3.463,1.741-4.736m-7.047-16.624c1.407656-.021122,2.741185-.634697,3.673-1.69c1.028871-.96823,1.618275-2.314252,1.632-3.727-.024246-1.415716-.623108-2.760718-1.659-3.726-.965726-1.03702-2.312134-1.636025-3.729-1.659-1.401457.01696-2.732175.618339-3.671,1.659-1.022971.972057-1.611547,2.315007-1.633,3.726.014606,1.418124.61506,2.767064,1.659,3.727.957609,1.051723,2.305887,1.662933,3.728,1.69" fill="#CBD5E1"/><path d="M-467.249,135.03v-10.5c-.001596-.059913-.050075-.107951-.11-.109h-21.524q-16.025,0-16.026,16.132q0,16.031,16.109,16.026h10.721c1.9,0,3.1.23,3.59.681q1.716,1.2,1.714,4.738q0,3.424-1.714,4.705-.736.6-3.673.6h-10.23c-.028814-.000283-.056501.011176-.076687.031739s-.03113.048458-.030313.077261v10.5c-.000535.028816.01047.05665.030565.077309s.047615.032429.076435.032691h10.313q15.971,0,16.025-16.025c-.000552-8.911209-7.223791-16.135343-16.135-16.137h-10.694q-2.855,0-3.59-.677-1.743-1.2-1.742-4.708c0-2.309.58-3.883,1.742-4.736q.734-.6,3.673-.6h21.441c.060913-.000549.110002-.050085.11-.111" transform="translate(4.401 2.312)" fill="#CBD5E1"/><path d="M-423.674,140.552v5.2c.000011.028641-.011567.056067-.0321.076034s-.048271.030777-.0769.029966h-16q-16.027,0-16.027,16.136q0,16.022,16.106,16.026h26.638c.029081.000267.057064-.011099.077722-.03157s.032279-.048347.032278-.07743v-37.437c0-.619-.018-1.214-.052-1.8q-.872-14.255-16.055-14.255h-15.944c-.059258-.000003-.107451.047744-.108.107v10.5c-.000537.028988.010604.056975.030917.077664s.04809.032341.077083.032336h16.025q2.856,0,3.591.68q1.715,1.2,1.714,4.732m-19.7,16.627q.737-.6,3.673-.6h15.919c.02935.000262.057378.012243.077849.033277s.031686.049377.031151.078723v10.5c.000567.061091-.047928.111366-.109.113h-16q-2.857,0-3.594-.683-1.737-1.2-1.738-4.736q0-3.426,1.738-4.707" transform="translate(12.63 2.312)" fill="#CBD5E1"/><path d="M-396.475,115.237h-10.475c-.060681.001626-.109022.051297-.109.112v48.187q0,16.02,16.108,16.025h15.916c.029081.000267.057064-.011099.077722-.03157s.032279-.048347.032278-.07743v-10.5c.000021-.02882-.011695-.056406-.032447-.076404s-.048754-.030684-.077553-.029596h-16c-1.906,0-3.1-.23-3.59-.682q-1.743-1.2-1.742-4.709v-26.669c.000549-.059256.048742-.107003.108-.107h10.5c.02899.00027.056872-.011128.077372-.031628s.031898-.048382.031628-.077372v-10.5c-.000532-.060142-.048866-.108919-.109-.11h-10.5c-.028901.000275-.056684-.011153-.077027-.031684s-.031515-.048419-.030973-.077316v-10.5c.00001-.061083-.048927-.110909-.11-.112" transform="translate(20.801 0.773)" fill="#CBD5E1"/><path d="M-323.74,140.5q0-16.057-16.1-16.056h-10.722q-16.023,0-16.026,16.133v5.308h-4.951v10.715h4.951v5.415q0,16.027,16.109,16.029h18.555c.029701.000011.058144-.011989.078862-.033272s.031948-.050038.031138-.079728v-10.5c-.000498-.061043-.048993-.11086-.11-.113h-18.638c-1.9,0-3.1-.223-3.591-.678-1.161-.8-1.739-2.374-1.739-4.735v-5.2c-.000535-.028645.010333-.056329.030213-.076959s.047142-.032515.075787-.033041h16.026c1.255499.007659,2.509966-.073543,3.754-.243q12.272-1.767,12.27-15.859m-10.719,0v.077q-.028,3.265-1.552,4.6c-.050391.049382-.10419.095161-.161.137q-.737.567-3.673.571h-15.946c-.058477-.001081-.105468-.048515-.106-.107v-5.271q0-3.464,1.739-4.739.736-.6,3.674-.6h10.72c1.9,0,3.1.224,3.593.681q1.681,1.2,1.713,4.655" transform="translate(26.753 2.316)" fill="#CBD5E1"/><path d="M-314.577,126.639q1.715,1.222,1.715,4.733v48.078c-.000267.029081.011099.057064.03157.077722s.048347.032279.07743.032278h10.5c.029083.000001.05696-.01162.07743-.032278s.031837-.048641.03157-.077722v-48.161q0-15.99-15.991-16.049c-.030238-.000806-.059556.010438-.0815.031257s-.034715.049505-.0355.079743v10.606c1.264154-.123676,2.537507.11276,3.673.682" transform="translate(35.685 0.773)" fill="#CBD5E1"/></g></svg>
