<svg xmlns="http://www.w3.org/2000/svg" xmlns:xlink="http://www.w3.org/1999/xlink" xmlns:xodm="http://www.corel.com/coreldraw/odm/2003" xml:space="preserve" version="1.1" style="shape-rendering:geometricPrecision; text-rendering:geometricPrecision; image-rendering:optimizeQuality; fill-rule:evenodd; clip-rule:evenodd" viewBox="0 0 72855.42 18252.71">
 <defs>
  <style type="text/css">

    .fil2 {fill:#CBD5E1}
    .fil1 {fill:#CBD5E1}
    .fil4 {fill:#CBD5E1;fill-rule:nonzero}
    .fil3 {fill:#CBD5E1;fill-rule:nonzero}
    .fil0 {fill:#CBD5E1;fill-rule:nonzero}
    .fil5 {fill:#B4B7BA;fill-rule:nonzero}

  </style>
 </defs>
 <g id="Слой_x0020_1">
  <metadata id="CorelCorpID_0Corel-Layer"></metadata>
  <g id="_1602146308352">
   <polygon class="fil0" points="686.5,2039.54 38709.51,2039.54 38709.51,3366.46 686.5,3366.46 "></polygon>
   <polygon class="fil0" points="72785.44,16925.79 583.47,16925.79 583.47,18252.71 72785.44,18252.71 "></polygon>
   <g>
    <polygon class="fil1" points="41745.9,210.99 42194.74,1592.73 43647.45,1592.73 42472.12,2446.38 42921.17,3828.2 41745.9,2974.34 40570.65,3828.2 41019.63,2446.38 39844.36,1592.73 41297.07,1592.73 "></polygon>
    <polygon class="fil1" points="46609.62,210.99 47058.46,1592.73 48511.17,1592.73 47335.84,2446.38 47784.88,3828.2 46609.62,2974.34 45434.37,3828.2 45883.33,2446.38 44708.08,1592.73 46160.78,1592.73 "></polygon>
    <polygon class="fil1" points="51473.34,210.99 51922.17,1592.73 53374.89,1592.73 52199.55,2446.38 52648.6,3828.2 51473.34,2974.34 50298.07,3828.2 50747.05,2446.38 49571.8,1592.73 51024.5,1592.73 "></polygon>
    <polygon class="fil1" points="56337.05,210.99 56785.89,1592.73 58238.6,1592.73 57063.27,2446.38 57512.32,3828.2 56337.05,2974.34 55161.79,3828.2 55610.77,2446.38 54435.51,1592.73 55888.22,1592.73 "></polygon>
    <polygon class="fil1" points="61200.77,210.99 61649.61,1592.73 63102.32,1592.73 61927.06,2446.38 62376.03,3828.2 61200.77,2974.34 60025.51,3828.2 60474.48,2446.38 59299.23,1592.73 60751.93,1592.73 "></polygon>
    <polygon class="fil1" points="66064.49,210.99 66513.32,1592.73 67966.03,1592.73 66790.77,2446.38 67239.75,3828.2 66064.49,2974.34 64889.22,3828.2 65338.2,2446.38 64162.95,1592.73 65615.65,1592.73 "></polygon>
    <polygon class="fil1" points="70928.2,210.99 71377.04,1592.73 72829.74,1592.73 71654.49,2446.38 72103.47,3828.2 70928.2,2974.34 69752.94,3828.2 70201.92,2446.38 69026.65,1592.73 70479.36,1592.73 "></polygon>
   </g>
   <g>
    <polygon class="fil2" points="41394.26,0 41843.1,1381.74 43295.81,1381.74 42120.48,2235.4 42569.52,3617.21 41394.26,2763.36 40219.01,3617.21 40667.98,2235.4 39492.72,1381.74 40945.42,1381.74 "></polygon>
    <polygon class="fil2" points="46257.98,0 46706.81,1381.74 48159.53,1381.74 46984.19,2235.4 47433.24,3617.21 46257.98,2763.36 45082.72,3617.21 45531.69,2235.4 44356.44,1381.74 45809.14,1381.74 "></polygon>
    <polygon class="fil2" points="51121.69,0 51570.53,1381.74 53023.24,1381.74 51847.91,2235.4 52296.96,3617.21 51121.69,2763.36 49946.43,3617.21 50395.41,2235.4 49220.15,1381.74 50672.86,1381.74 "></polygon>
    <polygon class="fil2" points="55985.41,0 56434.25,1381.74 57886.96,1381.74 56711.63,2235.4 57160.67,3617.21 55985.41,2763.36 54810.15,3617.21 55259.12,2235.4 54083.87,1381.74 55536.57,1381.74 "></polygon>
    <polygon class="fil2" points="60849.13,0 61297.96,1381.74 62750.68,1381.74 61575.41,2235.4 62024.39,3617.21 60849.13,2763.36 59673.86,3617.21 60122.84,2235.4 58947.59,1381.74 60400.29,1381.74 "></polygon>
    <polygon class="fil2" points="65712.84,0 66161.68,1381.74 67614.38,1381.74 66439.13,2235.4 66888.11,3617.21 65712.84,2763.36 64537.58,3617.21 64986.56,2235.4 63811.29,1381.74 65264.01,1381.74 "></polygon>
    <polygon class="fil2" points="70576.56,0 71025.4,1381.74 72478.1,1381.74 71302.85,2235.4 71751.82,3617.21 70576.56,2763.36 69401.3,3617.21 69850.27,2235.4 68675.01,1381.74 70127.72,1381.74 "></polygon>
   </g>
   <path class="fil3" d="M4452.69 6449.49l0 9441.61 -2831.22 0 0 -9441.61 2831.22 0zm10115.64 0l0 9441.61 -2883.89 0 -2041.08 -3489.56c-237.01,-386.32 -509.11,-895.49 -816.38,-1527.54l0 5017.1 -2844.37 0 0 -9441.61 2857.52 0 2014.71 3436.89c140.51,219.5 430.19,737.39 869.11,1553.83l0 -4990.72 2844.38 0zm6191.45 2462.41l0 6979.2 -2844.3 0 0 -6979.2 -2712.65 0 0 -2462.41 8216.99 0 0 2462.41 -2660.04 0zm6165.21 3252.56l0 1264.16 5240.97 0 0 2462.48 -8085.33 0 0 -9441.61 7953.61 0 0 2462.41 -5109.24 0 0 1172.03 4398.14 0 0 2080.53 -4398.14 0zm6364.81 3726.64l0 -9426.28 4854.72 0c899.85,0 1589,76.8 2063.02,232.64 476.27,153.6 860.33,438.93 1152.27,858.15 291.86,416.98 436.74,926.16 436.74,1525.29 0,524.58 -111.97,974.47 -333.64,1354.18 -223.85,379.64 -531.12,686.9 -919.55,923.98 -250.23,149.24 -590.41,274.29 -1022.72,370.85 346.72,116.33 599.13,232.64 759.34,348.97 105.35,76.87 261.2,241.43 465.29,493.84 204.1,254.59 340.18,447.71 408.19,585.98l1409.03 2732.4 -3292.08 0 -1556.02 -2881.64c-197.56,-370.91 -373.1,-614.53 -528.94,-726.42 -208.53,-144.88 -447.71,-217.32 -713.28,-217.32l-256.76 0 0 3825.38 -2925.61 0zm2925.61 -5607.51l1228.99 0c131.73,0 388.5,-41.71 770.37,-127.3 193.13,-39.46 351.15,-138.26 474.02,-296.23 120.76,-158.03 182.22,-340.18 182.22,-546.53 0,-305.09 -96.63,-537.66 -289.75,-700.12 -193.13,-164.56 -555.25,-245.79 -1086.37,-245.79l-1279.49 0 0 1915.96zm15276.28 2025.74c-87.77,763.77 -322.59,1435.34 -704.48,2014.77 -381.88,579.37 -882.27,1024.9 -1501.16,1336.53 -618.96,311.69 -1327.81,467.48 -2126.67,467.48 -1352,0 -2482.25,-465.23 -3390.83,-1395.81 -908.65,-930.59 -1362.97,-2084.96 -1362.97,-3463.27 0,-974.47 195.38,-1845.77 585.97,-2613.9 390.68,-768.12 937.2,-1362.9 1639.5,-1784.31 702.3,-421.33 1496.8,-632.04 2383.44,-632.04 790.07,0 1512.13,158.03 2166.18,474.02 653.99,316.05 1174.14,754.97 1560.45,1316.83 386.25,561.86 605.74,1198.32 658.42,1909.42l-2765.39 0c-52.67,-430.2 -215.07,-768.13 -487.23,-1013.93 -272.11,-245.87 -632.05,-368.74 -1079.76,-368.74 -553.07,0 -991.99,241.44 -1316.83,724.25 -324.85,482.81 -487.23,1141.22 -487.23,1975.25 0,798.86 173.36,1415.57 520.15,1850.13 346.78,434.56 823.05,651.81 1428.79,651.81 395.04,0 719.82,-127.3 974.41,-381.88 254.58,-254.59 403.82,-610.1 447.71,-1066.61l2857.52 0zm502.78 -1158.8c0,-737.4 114.15,-1409.04 342.36,-2014.78 228.28,-605.74 548.7,-1123.63 961.32,-1553.83 412.61,-430.13 917.37,-761.52 1514.32,-994.17 597.01,-232.64 1251,-348.97 1962.1,-348.97 737.4,0 1402.42,116.33 1995,348.97 592.59,232.64 1099.53,561.86 1520.93,987.63 421.41,425.76 746.19,943.66 974.48,1553.83 228.21,610.1 342.36,1283.92 342.36,2021.32 0,974.47 -197.56,1839.16 -592.59,2594.14 -395.04,754.97 -963.5,1340.96 -1705.26,1757.93 -741.83,417.05 -1586.83,625.51 -2534.92,625.51 -1430.98,0 -2585.36,-456.51 -3463.27,-1369.51 -877.84,-912.94 -1316.83,-2115.69 -1316.83,-3608.06zm2857.53 0c0,790.07 175.61,1422.18 526.76,1896.2 351.15,474.09 816.44,711.09 1395.81,711.09 588.15,0 1055.63,-232.64 1402.42,-697.87 346.79,-465.29 520.15,-1101.77 520.15,-1909.41 0,-790.08 -173.36,-1420.01 -520.15,-1889.67 -346.79,-469.66 -814.27,-704.48 -1402.42,-704.48 -570.65,0 -1033.69,239.19 -1389.27,717.64 -355.51,478.45 -533.3,1103.95 -533.3,1876.51zm18003.42 -4701.05l0 9441.61 -2607.29 0 0 -5530.64 -1422.19 5530.64 -2106.9 0 -1409.03 -5530.64 0 5530.64 -2607.29 0 0 -9441.61 3805.62 0 1277.31 5056.56 1316.84 -5056.56 3752.95 0z"></path>
   <path class="fil4" d="M3823.63 5324.23l0 9441.62 0 496.2 -496.2 0 -2831.22 0 -496.2 0 0 -496.2 0 -9441.62 0 -496.2 496.2 0 2831.22 0 496.2 0 0 496.2zm-992.41 8945.42l0 -8449.21 -1838.81 0 0 8449.21 1838.81 0zm11108.05 -5986.79l0 6483 0 496.2 -496.2 0 -2883.89 0 -282.44 0 -143.98 -246.16 -1934.82 -3307.91 0 3057.86 0 496.2 -496.2 0 -2844.38 0 -496.2 0 0 -496.2 0 -9441.62 0 -496.2 496.2 0 2857.53 0 282.12 0 144.3 246.16 1961.2 3345.61 0 -3095.57 0 -496.2 496.2 0 2844.37 0 496.2 0 0 1.94 138.3 0 8216.98 0 164.61 0 0 -1.94 496.2 0 7953.6 0 496.2 0 0 496.2 0 2462.42 0 496.2 -496.2 0 -4613.03 0 0 179.62 3901.94 0 496.2 -0.01 0 496.21 0 2080.52 0 496.2 -496.2 0 -3901.94 0 0 273.69 4744.75 0 496.2 0 0 494.26 0 2462.49 0 496.2 -496.2 0 -8085.32 0 -496.2 0 0 -496.2 0 -6483 -164.61 0 -2165.77 0 0 6483 0 496.2 -494.26 0 -2844.3 0 -494.26 0 0 -496.2 0 -6483 -2218.38 0 -138.3 0zm-992.41 5986.79l0 -8449.21 -1851.96 0 0 4494.53 0 1968.75 -932.32 -1734.21c-315.05,-586.04 -551.13,-1014.6 -708.23,-1285.67 -38.07,-65.69 -65.23,-112.05 -81.45,-139.02 -14.83,-24.64 -33.29,-54.28 -55.4,-88.93l-0.76 0.51 -0.01 -0.02 -13.57 -25.2 -1870.41 -3190.73 -2079.19 0 0 8449.21 1851.97 0 0 -4520.9 0 -2152.89 942.01 1937.73c156.1,321.12 297.72,600.62 424.83,838.48 127.55,238.64 250.3,454.12 368.28,646.43l3.87 7.75 1897.1 3243.4 2105.25 0zm6193.39 0l0 -6483 0 -496.2 494.26 0 2163.83 0 0 -1471.94 -7224.57 0 0 1471.94 2216.44 0 494.26 0 0 496.2 0 6483 1855.77 0zm6163.28 -1966.29l0 -1264.16 0 -496.2 496.2 0 3901.94 0 0 -1088.12 -3901.94 0 -496.2 0 0 -496.2 0 -1172.03 0 -496.2 496.2 0 4613.03 0 0 -1470.01 -6961.19 0 0 8449.21 7092.92 0 0 -1472.01 -4744.75 0 -496.2 0 0 -494.27zm6364.81 2462.49l0 -9426.28 0 -496.2 496.2 0 4854.71 0c463.09,0 878.41,20.49 1245.48,61.75 378.4,42.55 702.15,107.81 970.67,196.09l-0.19 0.57c289.71,93.63 552.02,227.7 786.94,402.55 237.38,176.68 443.86,390.93 619.43,643.04l-1.3 0.91c51.94,74.27 98.12,147.08 138.52,218.45 42.22,74.53 81.55,152.53 118.02,233.99 173.28,387.09 263.06,818.47 270.18,1293.31 75.03,-202.8 160.82,-399.12 257.37,-588.99l0.01 0.01 0 -0.04c59.24,-116.48 122.81,-230.95 190.7,-343.43 63.63,-105.44 134.6,-213.12 212.9,-323.03 383.97,-539.11 858.62,-978.26 1423.91,-1317.46l0.04 -0.02c117.79,-70.66 228.9,-131.99 333.34,-183.96 106.76,-53.12 222.77,-104.9 348.06,-155.3 603.82,-242.97 1255.81,-364.48 1955.91,-364.48l0.07 0 0 1.94c435.27,0.01 848.19,42.75 1238.73,128.22 131.68,28.81 262.4,62.76 392.18,101.86 256.99,77.41 507.11,174.88 750.38,292.4 364.86,176.33 693.28,387.7 985.27,634.09 292.77,247.06 548.46,529.56 767.06,847.5l0.1 0.14c63.36,92.18 121.28,183.29 173.72,273.31 53.35,91.57 103.43,185.6 150.24,282.1 138.66,285.84 244.2,585.82 316.63,899.95 26.47,-82.22 54.7,-163.14 84.7,-242.76 124.66,-330.77 276.05,-640.12 454.18,-928.02 179.57,-290.26 384.16,-555.07 613.75,-794.44 233.46,-243.38 491.24,-457.67 773.31,-642.86 278.03,-182.53 584.46,-339.04 919.33,-469.55 331.83,-129.32 675.6,-225.6 1031.31,-288.87 356.06,-63.33 725.77,-95 1109.1,-95l0.08 0 0 1.94c403.38,0.01 782.4,31.03 1137.05,93.07 31.99,5.59 90.2,17.14 174.52,34.6 304.69,63.08 592.56,147.84 863.62,254.26 325.84,127.93 630.44,283.9 913.82,467.91 283.68,184.22 542.91,394.93 777.68,632.14 236.82,239.27 445.99,503.62 627.5,793.05 179.75,286.63 332.87,599.01 459.4,937.17l0.02 0.07c39.32,105.11 72.26,200.17 98.83,285.18 32.29,103.29 60.11,200.86 83.48,292.69 128.64,505.55 192.98,1044.21 192.98,1615.89 0,521.3 -53.91,1017.92 -161.72,1489.86 -107.7,471.45 -270.71,915.78 -489.01,1333l-3.88 7.76 -0.01 0.02 -0.16 -0.08c-58.49,111.31 -122.32,222.12 -191.46,332.43 -73.52,117.28 -146.13,224.02 -217.84,320.22 -397.48,533.32 -893.4,967.02 -1487.68,1301.1 -408.63,229.72 -846.69,402.25 -1314.16,517.6 -464.4,114.58 -952.08,171.86 -1463.05,171.86 -778.13,0 -1485.2,-125.76 -2121.23,-377.27 -639.65,-252.94 -1203.64,-632.45 -1692.01,-1138.47l-0.86 0.86 -0.02 -0.03 -5.82 -7.75c-132.32,-137.61 -258.89,-285.97 -379.71,-445.06 -118.87,-156.51 -226.94,-317.52 -324.22,-483.01 -174.69,-297.18 -318.93,-613.1 -432.79,-947.73 -30.36,109.36 -64.02,216.98 -101.03,322.81 -129.65,370.76 -300.65,717.74 -512.97,1040.96l0.04 0.02 -0.02 0.03 -3.87 5.81c-65.34,99.14 -127.6,187.32 -186.75,264.54 -68.83,89.87 -137.02,172.8 -204.56,248.79 -363.74,409.31 -797.01,740.58 -1299.8,993.75 -348.6,175.55 -719.97,306.64 -1114.1,393.27 -389.72,85.65 -801.53,128.48 -1235.47,128.48l0 -1.94c-741.69,0 -1424.93,-128.58 -2049.71,-385.76 -628.59,-258.75 -1193.86,-645.18 -1695.82,-1159.3 -500.96,-513.06 -877.25,-1089.23 -1128.83,-1728.49 -250.42,-636.31 -375.64,-1329.56 -375.64,-2079.78l0 -0.07 1.94 0c0,-229.98 10.12,-454.72 30.36,-674.18 -16.25,30.49 -33.05,60.6 -50.4,90.33l-1.94 1.94c-132.25,224.27 -290.25,428.3 -473.66,612.36 -182.02,182.68 -386.97,343.3 -614.52,482.2l-15.51 9.69 -0.04 0.02 -0.36 -0.65c-16.66,9.83 -33.13,19.33 -49.38,28.49 109.07,105.1 241.12,252.96 395.13,443.43 104.22,130.01 195.52,250.67 274.51,363.75 79.51,113.82 141.85,215.39 187.21,305.97l0.75 -0.39 1409.03 2732.41 372.83 722.99 -812.82 0 -3292.09 0 -294.82 0 -141.3 -261.67 -1556.01 -2881.64 0 -1.94c-85.4,-160.34 -167.04,-294.55 -245.22,-402.19 -54.37,-74.87 -97.75,-125.3 -129.98,-150.75l-0.66 0.94c-17.47,-12.14 -35,-23.25 -52.54,-33.33 -21.74,-12.48 -39.79,-22.04 -54.13,-28.68 -27.27,-12.62 -55.31,-23.49 -84.13,-32.6l0 3295.66 0 496.2 -496.2 0 -2925.6 0 -496.2 0 0 -496.2zm992.41 -8930.08l0 8433.88 1933.19 0 0 -3329.18 0 -496.2 496.2 0 256.77 0 0 1.94c265.03,0 511.89,52.4 738.36,157.22 48.73,22.56 92.65,45.04 131.68,67.44 43.22,24.81 85.28,51.42 126.2,79.85l1.94 1.93 0.04 0.03 3.87 3.88c123.04,88.33 243.21,214.03 361.25,376.56 97.71,134.53 202.36,307.11 314.2,516.99l0.8 -0.43 1414.73 2619.97 2184.44 0 -1036.21 -2009.42 -3.88 -9.7c-22.3,-45.34 -60.46,-106.41 -114.3,-183.46 -57.06,-81.69 -135.86,-184.89 -235.74,-309.47 -132.09,-163.35 -238.4,-282.68 -318.42,-358.23 -11.78,-11.12 -23.03,-21.23 -33.74,-30.32 -14.77,-12.55 -14.34,-13.19 -17.25,-15.46l-0.91 1.26c-57.01,-41.41 -131.77,-83.41 -224.43,-126.04 -109.75,-50.46 -243.38,-102.17 -401.15,-155.1l-1682.78 -564.57 1733.17 -387.14c273.83,-61.16 505.04,-135.04 694.37,-220.24 38.19,-17.19 70.76,-32.76 97.75,-46.7 31.13,-16.09 57.64,-30.61 79.57,-43.56l-0.16 -0.26c4.17,-2.55 8.33,-5.11 12.48,-7.67l2.99 -2 0.04 -0.02 0.06 0.11c154.52,-95.85 292.24,-204.21 412.88,-325.29 122.69,-123.14 229.79,-261.81 321.11,-416.25l-0.59 -0.34c88.03,-150.79 153.98,-314.3 197.62,-490.95 45.37,-183.72 68.18,-387.95 68.18,-613.18 0,-363.5 -60.29,-681.01 -181.5,-951.77 -22.26,-49.7 -47.37,-99.28 -75.37,-148.71 -29.34,-51.79 -58.61,-98.63 -87.84,-140.47l-0.9 0.64 -0.03 -0.04 -1.94 -1.94c-116.37,-167.11 -247.89,-305.15 -394.59,-414.32 -148.68,-110.67 -315.96,-195.87 -501.82,-255.81l-1.94 0c-205.49,-67.56 -463.33,-118.64 -772.96,-153.44 -320.97,-36.1 -700.16,-54 -1136.93,-54l-4358.51 0zm2925.6 2826.36l732.79 0 0.04 0 0 1.94c36.68,0 107.18,-8.51 211.92,-25.74 31.86,-5.25 -11.82,1.47 59.37,-11.18 130.72,-23.22 261.88,-49.48 392.45,-78.75l7.75 -1.94 0.07 -0.01c13.84,-2.83 25.33,-5.64 34.46,-8.44 2.13,-0.65 11.6,-4.5 28.4,-11.53 43.29,-18.15 82.77,-50.15 118.42,-95.98l2.02 -1.35c7.6,-10.13 13.63,-18.72 18.09,-25.77 2.48,-3.94 8.14,-14.55 16.95,-31.87 26.88,-52.76 40.5,-113.83 40.5,-183.23 0,-89.54 -11.24,-161.32 -33.69,-215.54 -17.51,-42.24 -43.43,-77.75 -77.74,-106.62l-3.88 -1.94c-34.24,-29.18 -102.01,-55.15 -203.22,-78 -140.91,-31.82 -328.08,-47.62 -561.4,-47.62l-783.28 0 0 923.56zm732.79 992.41l-1228.99 0 -496.2 0 0 -496.2 0 -1915.96 0 -496.2 496.2 0 1279.49 0c297.82,0 557.28,24.82 778.48,74.75 260.9,58.91 470.77,155.83 629.65,291.23l-0.67 0.78c157.18,133.05 275.09,294.17 353.65,483.81 74.13,178.96 111.22,376.02 111.22,591.56 0,227.7 -50.1,438.68 -149.03,632.92 -15.65,30.72 -36.82,67.19 -63.47,109.39 -23.95,37.91 -48.08,72.78 -72.42,104.62l-3.06 3.06 1.1 0.85c-141.25,181.6 -315.12,315.71 -521.58,402.23 -31.77,13.31 -72.25,27.5 -121.44,42.55 -42.19,12.91 -83.39,23.48 -123.62,31.7l-0.07 0.01 -0.04 -0.19c-185.29,41.47 -327.4,70.89 -427.29,88.64 -26.08,4.63 2.66,-0.95 -71.01,11.17 -152.03,25.02 -275.79,37.37 -370.85,37.37l0 1.94 -0.04 0zm13338.22 2443.24c46.94,-134.27 87.38,-273.44 121.3,-417.49l-1855.02 0c-27.88,107.33 -61.91,208.9 -102.13,304.71 -99.85,237.89 -236.34,443.4 -409.47,616.52 -175.12,175.13 -376.83,307.44 -605.1,396.9 -218.45,85.62 -458.49,128.43 -720.13,128.43l0 1.94c-371.86,0 -710.85,-69.82 -1016.96,-209.47 -310.75,-141.75 -577.25,-351.88 -799.49,-630.36 -214.69,-269.02 -374.45,-589.99 -479.29,-962.9 -99.61,-354.32 -149.41,-752.79 -149.41,-1195.41 0,-453.93 45.76,-866.45 137.3,-1237.57 95.04,-385.31 240.11,-722.95 435.22,-1012.93 208.04,-309.19 456.48,-543.24 745.35,-702.11 292.29,-160.77 619.76,-241.16 982.41,-241.16l0 -1.93c276.83,0 531.72,39.76 764.66,119.3 242.99,82.97 458.51,209.4 646.54,379.3 184.11,166.27 330.87,363.25 440.29,590.94 45.01,93.67 83.39,191.38 115.15,293.12l1793.42 0c-55.9,-248.6 -138.1,-484.74 -246.61,-708.42 -35.18,-72.52 -73.63,-144.58 -115.35,-216.19 -42.62,-73.14 -86.31,-142.28 -131.09,-207.42l-0.09 -0.14c-167.7,-243.91 -365.25,-461.8 -592.62,-653.68 -228.16,-192.54 -486.81,-358.67 -775.94,-498.4 -192.77,-93.13 -393.8,-171.22 -603.06,-234.25 -103.34,-31.13 -209.52,-58.62 -318.51,-82.47 -331.49,-72.54 -674.63,-108.83 -1029.39,-108.83l0 1.93 -0.07 0c-576.61,0 -1105.83,96.95 -1587.63,290.82 -85.82,34.54 -177.29,75.97 -274.41,124.3 -99.43,49.48 -188.57,97.88 -267.44,145.19l-0.04 0.02c-446,267.63 -821.16,615.04 -1125.41,1042.22 -55.53,77.97 -112.29,164.97 -170.25,261.01 -53.72,89.01 -105.66,182.81 -155.81,281.41l-0.01 -0.01 0 0.04c-148.76,292.55 -265.79,599.21 -351.05,919.98 -18.63,70.09 -34.54,134.51 -47.7,193.27 -89.91,401.05 -134.88,826.32 -134.88,1275.75l1.94 0 0 0.07c0,628.08 101.95,1201.16 305.85,1719.27 202.74,515.13 507.94,981.46 915.63,1398.98 406.6,416.46 860.75,727.95 1362.43,934.45 505.49,208.08 1063.39,312.1 1673.68,312.1l0 -1.94c364.93,0 706.97,-35.07 1026.13,-105.22 314.73,-69.18 607.28,-171.84 877.63,-307.99 388.4,-195.56 723.46,-451.87 1005.19,-768.89 57.97,-65.23 110.66,-128.8 158.04,-190.65 55.3,-72.21 103.35,-139.07 144.11,-200.56l-0.02 -0.01 0.02 -0.03 3.87 -5.81c167.77,-254.56 303.87,-531.13 408.26,-829.72zm752.22 -2787.78l-135.27 0 -2765.4 0 -438.92 0 -53.4 -436.11c-20.17,-164.71 -58.43,-305.71 -114.79,-422.99 -52.99,-110.27 -123.52,-205.17 -211.57,-284.69 -84.07,-75.96 -184.58,-133.9 -301.52,-173.84 -126.98,-43.36 -275.91,-65.02 -446.79,-65.02l0 -1.94c-190.42,0 -358.95,40.33 -505.59,120.99 -150.07,82.54 -283.52,210.62 -400.32,384.23 -129.74,192.83 -228.29,425.8 -295.66,698.92 -70.87,287.29 -106.3,620.99 -106.3,1001.1 0,356.23 36.89,665.54 110.65,927.93 68.54,243.8 168.86,448.47 300.96,614 124.56,156.08 269.6,271.88 435.09,347.37 170.15,77.62 372.17,116.43 606.05,116.43l0 1.94c133.39,0 253.26,-20.85 359.61,-62.52 96.51,-37.83 184.5,-96.47 263.96,-175.93 81.46,-81.46 146.88,-181.01 196.26,-298.65 56.54,-134.68 93.19,-289.24 109.96,-463.65l43.23 -449.68 449.1 0 2857.53 0 35.27 0c-19.11,-215 -28.7,-435.85 -28.7,-662.6l0 -0.08 1.94 0c0,-246.26 11.55,-484.67 34.64,-715.2zm953.9 715.2l1.93 0 0 0.08c0,986.94 204.32,1827.95 612.87,2522.97 79.7,135.56 165.81,264.27 258.33,386.1 88.79,116.93 188.6,233.24 299.41,348.97l0.83 -0.83 0.03 0.03 5.81 7.75c388.02,403.52 837.95,706.49 1349.79,908.9 518.38,204.99 1103.99,307.49 1756.83,307.49 437.13,0 845.99,-46.94 1226.58,-140.85 377.51,-93.14 732.87,-233.36 1066.06,-420.68 473.83,-266.36 866.37,-608.32 1177.57,-1025.86 66.09,-88.69 124.5,-173.46 175.18,-254.32 53.46,-85.3 105.72,-176.71 156.73,-274.2l3.87 -7.76 0.02 -0.02 0.12 0.06c174.73,-335.6 306.7,-698.55 395.86,-1088.84 89.72,-392.76 134.58,-815.72 134.58,-1268.9 0,-490.11 -53.99,-947.35 -161.96,-1371.66 -22.65,-88.99 -45.3,-169.75 -67.97,-242.28 -28.38,-90.8 -54.86,-169.07 -79.45,-234.79l-0.02 -0.07c-101.77,-272 -225.17,-523.66 -370.24,-754.96 -143.3,-228.5 -307.24,-436 -491.81,-622.49 -186.63,-188.56 -391.59,-355.33 -614.87,-500.33 -223.57,-145.18 -468.75,-270.15 -735.49,-374.87 -225.04,-88.35 -458.65,-157.6 -700.81,-207.75 -22.03,-4.55 -71.12,-13.5 -147.38,-26.84 -310.32,-54.28 -632.5,-81.43 -966.48,-81.43l0 1.93 -0.08 0c-327.74,0 -640.59,26.5 -938.54,79.49 -298.31,53.06 -580.05,131.26 -845.23,234.59 -262.08,102.14 -506.5,227.64 -733.24,376.51 -222.68,146.19 -423.6,312.67 -602.75,499.42 -183.02,190.82 -344.96,400.07 -485.82,627.75 -142.3,230 -265.26,482.5 -368.89,757.45 -87.31,231.75 -155.75,471.02 -205.3,717.76 -5.41,26.94 -14.17,76.04 -26.26,147.18 -53.18,312.97 -79.79,638.09 -79.79,975.31zm2859.46 0.08l0 0.06 -1.94 0c0,349.01 38.1,660.62 114.27,934.78 12,43.18 24.87,85.19 38.62,126.01 68.66,203.93 160.99,384.18 276.97,540.73l-0.01 0 0.03 0.03c36.59,49.39 75.71,96.26 117.37,140.58 41.53,44.2 81.9,82.42 121.1,114.66 206.13,169.5 459.46,254.24 759.97,254.24l0.04 0 0 1.94c214.27,-0.01 404.51,-41.38 570.74,-124.09 27.45,-13.66 53.07,-27.68 76.86,-42.05 133.25,-80.5 252.41,-191.2 357.44,-332.09 137.04,-183.88 240.59,-404.41 310.64,-661.58 73.77,-270.8 110.65,-588.54 110.65,-953.23l0 -0.06 1.94 0c0,-350.69 -37.54,-662.4 -112.59,-935.08 -10.03,-36.43 -22.71,-77.59 -38.03,-123.49 -67.94,-203.48 -158.81,-382.29 -272.62,-536.41l0 0 -0.02 -0.02c-36.04,-48.8 -74.68,-95.1 -115.92,-138.86 -39.59,-42.01 -79.09,-79.1 -118.49,-111.25 -208.09,-169.8 -464.97,-254.7 -770.65,-254.7l0 1.94c-206.68,0 -389.51,41.06 -548.5,123.19 -163.88,84.65 -311.68,215.61 -443.42,392.86l-0.03 0.03 0 0.01c-40.66,54.71 -77.25,109.73 -109.79,165.01 -34.15,58.04 -65.71,118.82 -94.69,182.31 -153.28,335.82 -229.94,747.34 -229.94,1234.53zm-990.47 0.06l-1.94 0 0 -0.06c0,-625.26 107.67,-1173.74 322.97,-1645.44 42.7,-93.52 89.77,-184.02 141.22,-271.48 53.07,-90.2 109.06,-174.93 167.93,-254.17l0.03 -0.03 0 0c223.84,-301.19 485.36,-529.06 784.55,-683.61 304.09,-157.07 638.11,-235.6 1002.07,-235.6l0 1.93c541.25,0 1006.18,158.56 1394.78,475.68 76.62,62.52 148.42,129.33 215.4,200.41 65.32,69.32 128.52,145.33 189.58,228.02l-0.01 0 0.03 0.02c176.52,239.06 315.2,509.62 416.04,811.65 17.5,52.39 35.35,111.66 53.54,177.76 98.32,357.19 147.47,755.47 147.48,1194.81l1.93 0 0 0.06c0,442.97 -49.79,847.29 -149.4,1212.96 -103.33,379.31 -259.86,709.67 -469.6,991.08 -185.3,248.58 -398.78,445.86 -640.43,591.82 -49.11,29.67 -98,56.6 -146.64,80.81 -301.25,149.91 -638.8,224.88 -1012.67,224.88l0 1.94 -0.04 0c-533.75,0 -996.43,-160.98 -1387.98,-482.97 -77.02,-63.33 -148.4,-129.98 -214.14,-199.93 -65.61,-69.83 -129.29,-146.41 -191.02,-229.75l0 -0.01 -0.02 -0.02c-178.01,-240.28 -318.14,-512.28 -420.4,-815.98 -19.5,-57.88 -37.54,-116.69 -54.12,-176.4 -99.43,-357.88 -149.15,-757.35 -149.15,-1198.38zm18993.89 -4701.11l0 9441.62 0 494.26 -496.2 0 -2607.29 0 -496.2 0 0 -494.26 0 -1617.07 -447.22 1739.17 -95.7 372.16 -383.06 0 -2106.91 0 -385.89 0 -94.81 -372.16 -432.13 -1696.17 0 1574.06 0 494.26 -496.2 0 -2607.29 0 -496.2 0 0 -494.26 0 -9441.62 0 -494.26 496.2 0 3805.63 0 386.2 0 94.5 374.1 804.39 3184.39 830.3 -3188.27 96.91 -372.16 381.85 0 3752.95 0 496.2 0 0 496.2zm-992.41 8947.36l0 -8451.15 -1614.89 0 0 3414.77 0 5036.38 1614.89 0zm-2589.85 -5158.5l846.69 -3292.66 -1131.74 0 -1219.92 4684.41 -486.54 1868.28 -472.91 -1872.16 -1182.82 -4682.46 -1170.79 0 839.35 3294.59 1314.22 5158.5 1337.96 0 1326.49 -5158.5zm-4955.57 122.12l0 -3416.7 -1614.89 0 0 8453.08 1614.89 0 0 -5036.38z"></path>
   <path class="fil5" d="M3327.42 5324.23l0 9441.62 -2831.22 0 0 -9441.62 2831.22 0zm10115.64 0l0 9441.62 -2883.89 0 -2041.08 -3489.56c-237,-386.32 -509.1,-895.5 -816.37,-1527.54l0 5017.1 -2844.38 0 0 -9441.62 2857.53 0 2014.7 3436.89c140.51,219.5 430.2,737.4 869.12,1553.84l0 -4990.73 2844.37 0zm6191.45 2462.42l0 6979.2 -2844.3 0 0 -6979.2 -2712.64 0 0 -2462.42 8216.98 0 0 2462.42 -2660.04 0zm6165.22 3252.55l0 1264.16 5240.96 0 0 2462.49 -8085.32 0 0 -9441.62 7953.6 0 0 2462.42 -5109.23 0 0 1172.03 4398.14 0 0 2080.52 -4398.14 0zm6364.81 3726.65l0 -9426.28 4854.71 0c899.86,0 1589.01,76.79 2063.03,232.64 476.26,153.59 860.32,438.92 1152.26,858.15 291.87,416.97 436.74,926.16 436.74,1525.29 0,524.58 -111.97,974.47 -333.64,1354.18 -223.85,379.63 -531.12,686.89 -919.55,923.98 -250.22,149.23 -590.4,274.28 -1022.71,370.84 346.72,116.33 599.13,232.65 759.33,348.97 105.36,76.87 261.2,241.44 465.3,493.85 204.1,254.59 340.18,447.71 408.18,585.97l1409.04 2732.41 -3292.09 0 -1556.02 -2881.64c-197.55,-370.92 -373.09,-614.53 -528.94,-726.43 -208.53,-144.87 -447.71,-217.32 -713.27,-217.32l-256.77 0 0 3825.39 -2925.6 0zm2925.6 -5607.52l1228.99 0c131.73,0 388.5,-41.71 770.38,-127.3 193.12,-39.46 351.15,-138.26 474.02,-296.23 120.76,-158.02 182.22,-340.17 182.22,-546.52 0,-305.09 -96.63,-537.66 -289.76,-700.12 -193.12,-164.57 -555.24,-245.8 -1086.37,-245.8l-1279.49 0 0 1915.96zm15276.29 2025.75c-87.77,763.76 -322.59,1435.34 -704.48,2014.77 -381.89,579.36 -882.27,1024.89 -1501.17,1336.52 -618.96,311.7 -1327.8,467.48 -2126.66,467.48 -1352,0 -2482.25,-465.22 -3390.83,-1395.81 -908.65,-930.58 -1362.97,-2084.96 -1362.97,-3463.26 0,-974.48 195.37,-1845.78 585.97,-2613.9 390.68,-768.13 937.19,-1362.9 1639.5,-1784.31 702.3,-421.34 1496.8,-632.05 2383.43,-632.05 790.07,0 1512.14,158.03 2166.19,474.02 653.99,316.06 1174.14,754.98 1560.45,1316.83 386.25,561.86 605.74,1198.33 658.42,1909.42l-2765.4 0c-52.67,-430.2 -215.07,-768.12 -487.23,-1013.93 -272.1,-245.87 -632.04,-368.73 -1079.76,-368.73 -553.06,0 -991.98,241.43 -1316.83,724.24 -324.84,482.81 -487.23,1141.22 -487.23,1975.25 0,798.87 173.36,1415.58 520.15,1850.14 346.79,434.56 823.06,651.81 1428.8,651.81 395.04,0 719.81,-127.3 974.4,-381.89 254.59,-254.59 403.82,-610.1 447.71,-1066.6l2857.53 0zm502.78 -1158.81c0,-737.4 114.14,-1409.03 342.35,-2014.77 228.29,-605.74 548.71,-1123.64 961.32,-1553.84 412.62,-430.13 917.37,-761.51 1514.32,-994.17 597.02,-232.64 1251.01,-348.97 1962.1,-348.97 737.4,0 1402.42,116.33 1995.01,348.97 592.59,232.65 1099.52,561.86 1520.93,987.63 421.4,425.77 746.19,943.67 974.47,1553.84 228.21,610.1 342.36,1283.91 342.36,2021.31 0,974.47 -197.56,1839.16 -592.59,2594.15 -395.04,754.97 -963.5,1340.95 -1705.26,1757.93 -741.83,417.04 -1586.82,625.5 -2534.92,625.5 -1430.98,0 -2585.35,-456.5 -3463.26,-1369.5 -877.84,-912.94 -1316.83,-2115.7 -1316.83,-3608.07zm2857.52 0c0,790.07 175.61,1422.19 526.76,1896.21 351.15,474.08 816.45,711.09 1395.81,711.09 588.16,0 1055.63,-232.64 1402.42,-697.87 346.79,-465.3 520.15,-1101.77 520.15,-1909.42 0,-790.07 -173.36,-1420.01 -520.15,-1889.66 -346.79,-469.66 -814.26,-704.48 -1402.42,-704.48 -570.65,0 -1033.69,239.18 -1389.27,717.63 -355.51,478.45 -533.3,1103.95 -533.3,1876.51zm18003.42 -4701.05l0 9441.62 -2607.29 0 0 -5530.64 -1422.18 5530.64 -2106.91 0 -1409.03 -5530.64 0 5530.64 -2607.29 0 0 -9441.62 3805.63 0 1277.31 5056.56 1316.83 -5056.56 3752.95 0z"></path>
  </g>
 </g>
</svg>
