<svg xmlns="http://www.w3.org/2000/svg" xmlns:xlink="http://www.w3.org/1999/xlink" xmlns:xodm="http://www.corel.com/coreldraw/odm/2003" xml:space="preserve" version="1.1" style="shape-rendering:geometricPrecision; text-rendering:geometricPrecision; image-rendering:optimizeQuality; fill-rule:evenodd; clip-rule:evenodd" viewBox="0 0 8661.42 2204.72">
 <defs>
  <style type="text/css">

    .fil0 {fill:#CBD5E1}
    .fil3 {fill:#CBD5E1}
    .fil1 {fill:#CBD5E1;fill-rule:nonzero}
    .fil2 {fill:#CBD5E1;fill-rule:nonzero}

  </style>
 </defs>
 <g id="Слой_x0020_1">
  <metadata id="CorelCorpID_0Corel-Layer"></metadata>
  <path class="fil0" d="M3034.98 200.29c-540.21,-144.75 -1095.74,176.78 -1240.8,718.15 -3.43,12.79 -6.59,25.59 -9.5,38.39 26.28,-1.93 71.35,-2.63 127.2,1.61 0.68,-2.64 1.37,-5.28 2.08,-7.91 127.3,-475.09 614.8,-757.24 1088.86,-630.22 474.07,127.02 755.18,615.13 627.89,1090.21 -46.22,172.47 -139.9,319.51 -263.17,430.78 34.95,3.46 68.35,4.47 97.11,2.36 26.49,-1.94 54.89,-5.57 82.29,-9.89 92.93,-110.41 163.71,-242.49 203.54,-391.16 145.06,-541.37 -175.27,-1097.58 -715.49,-1242.33zm168.18 1609.07c142.29,-98.93 251.76,-246.9 300.18,-427.57 108.61,-405.33 -131.23,-821.78 -535.7,-930.15 -399.99,-107.18 -811.19,127.06 -925.29,524.28 5.94,1.15 11.92,2.36 17.93,3.63 34.78,7.36 69.21,17.3 102.44,28.77 96.17,-330.67 439.05,-525.41 772.58,-436.04 337.98,90.56 538.4,438.56 447.64,777.26 -47.66,177.85 -166.12,317.78 -316.82,397.47 23.39,14.83 45.93,27.04 67.87,37.1 19.83,9.09 43.43,17.62 69.17,25.25zm-266.31 -163.91c144.87,-52.72 262.65,-173.11 305.65,-333.56 69.93,-260.96 -84.49,-529.09 -344.9,-598.87 -260.41,-69.78 -528.2,85.22 -598.13,346.19 -0.54,2 -1.06,4 -1.57,6 46.26,22.85 85.59,45.73 113.96,63.8 1.99,-12.51 4.65,-25.03 8,-37.54 52.07,-194.34 251.49,-309.76 445.41,-257.8 193.93,51.96 308.91,251.62 256.84,445.96 -37.59,140.3 -151.98,239.47 -285.66,264.22 1.81,1.97 3.61,3.91 5.37,5.81 33.6,36.46 65.15,68.18 95.03,95.78z"></path>
  <path class="fil0" d="M2547.13 2170.11c-56.14,-38.51 -107.2,-78.8 -150.83,-128.99 -122.86,-138.92 -232.44,-232.99 -328.75,-282.27l-0.88 -0.24c-46.96,-23.82 -96.25,-36.65 -151.54,-36.41 113.31,182.65 287,326.91 492.49,405.41 40.95,16.63 93.6,31.91 139.52,42.5zm498.68 -12.65c-124.14,-41.5 -213.33,-82.86 -314.12,-163.3 -78.74,-62.85 -154.37,-156.52 -230.11,-244.7 -228.99,-266.81 -467.72,-381.33 -716.93,-342.11 2.42,11.9 5.57,24.08 8.47,34.24 14.24,51.67 30.75,102.22 53.8,152.49 101.56,-12.2 194.46,3.92 278.13,47.92 108.31,53.42 231.11,157.61 367.51,312.35 133.71,157.77 370.49,245.2 553.25,203.11zm370.28 -194.27c-52.72,4.63 -103.15,3.68 -154.08,-5.28 -205.23,-30.61 -402.48,-167.91 -592.6,-412.08 -254.46,-328.97 -558.45,-480.26 -905.91,-455.16 -3.79,27.56 -4.38,94.4 -4.3,105.31 0.2,27.25 2.23,52.97 4.4,79.8 290.65,-50.63 569.56,78.65 835.77,388.26 200.39,233.79 402.13,371.76 675.98,395.8 60.42,-33.52 98.22,-63.46 140.75,-96.65z"></path>
  <path class="fil1" d="M4562.67 1459.02c-79.24,0 -144.17,-25.59 -194.79,-76.75 -50.63,-51.89 -75.94,-119.16 -75.94,-201.75 0,-77.49 24.94,-142.91 74.83,-196.27 49.9,-54.1 112.25,-81.15 187.08,-81.15 78.5,0 140.5,27.05 185.99,81.15 46.21,53.35 69.32,120.98 69.32,202.84l0 20.83 -430.29 0c3.68,51.91 22.75,95.39 57.23,130.49 34.48,35.08 79.24,52.63 134.26,52.63 66.03,0 120.69,-22.29 163.97,-66.89l39.62 53.73c-54.29,54.09 -124.72,81.14 -211.29,81.14zm165.07 -311.39c-0.74,-45.32 -16.15,-85.9 -46.23,-121.71 -30.07,-36.55 -73,-54.83 -128.75,-54.83 -52.82,0 -94.65,17.91 -125.46,53.72 -30.08,35.82 -46.22,76.76 -48.43,122.81l348.86 0z"></path>
  <path class="fil1" d="M5500.8 1445.86l-82.53 0 0 -60.3c-44.76,48.98 -103.44,73.46 -176.08,73.46 -49.16,0 -92.44,-15.71 -129.85,-47.15 -37.42,-31.43 -56.13,-74.2 -56.13,-128.3 0,-55.55 18.35,-98.31 55.02,-128.28 37.42,-30.71 81.07,-46.05 130.96,-46.05 75.57,0 134.26,24.11 176.08,72.36l0 -95.39c0,-35.08 -12.48,-62.5 -37.42,-82.24 -24.94,-19.73 -57.23,-29.6 -96.84,-29.6 -62.36,0 -116.66,24.49 -162.87,73.47l-38.52 -57.02c56.5,-58.48 127.29,-87.72 212.39,-87.72 60.9,0 110.42,14.62 148.57,43.86 38.15,29.24 57.22,74.19 57.22,134.87l0 364.03zm-228.89 -46.05c66.03,0 114.81,-21.93 146.36,-65.79l0 -99.77c-31.55,-43.87 -80.33,-65.79 -146.36,-65.79 -38.16,0 -69.7,10.96 -94.65,32.89 -24.21,21.2 -36.31,48.97 -36.31,83.33 0,33.63 12.11,61.39 36.31,83.33 24.94,21.2 56.49,31.79 94.65,31.79z"></path>
  <path class="fil1" d="M5977.69 1459.02c-90.24,0 -161.77,-27.77 -214.59,-83.33l42.92 -59.21c18.34,21.2 43.28,39.11 74.83,53.73 32.28,14.63 65.67,21.93 100.15,21.93 39.62,0 70.43,-8.41 92.44,-25.22 22.01,-16.81 33.02,-38.74 33.02,-65.78 0,-23.4 -11.37,-41.67 -34.11,-54.83 -22.75,-13.89 -50.26,-24.11 -82.54,-30.7 -31.55,-7.31 -63.46,-15.35 -95.74,-24.13 -32.28,-9.5 -59.79,-25.22 -82.54,-47.14 -22.74,-22.66 -34.11,-52.27 -34.11,-88.81 0,-43.14 17.6,-79.32 52.82,-108.56 35.94,-29.24 84.37,-43.86 145.27,-43.86 79.97,0 145.63,25.58 196.99,76.75l-38.52 57.02c-37.42,-44.59 -90.24,-66.89 -158.47,-66.89 -35.96,0 -64.56,8.04 -85.84,24.12 -21.27,15.35 -31.92,35.09 -31.92,59.21 0,21.2 11.38,38.01 34.11,50.44 22.75,11.7 49.9,21.2 81.44,28.51 32.28,6.58 64.56,14.63 96.84,24.13 32.28,9.5 59.79,26.31 82.54,50.43 22.74,23.4 34.12,54.09 34.12,92.1 0,46.78 -18.35,85.17 -55.02,115.14 -36.69,29.97 -88.04,44.95 -154.07,44.95z"></path>
  <path class="fil1" d="M6598.2 1459.02c-38.88,0 -68.24,-10.59 -88.04,-31.79 -19.81,-21.2 -29.72,-51.91 -29.72,-92.11l0 -346.48 -88.04 0 0 -72.37 88.04 0 0 -144.74 82.54 0 0 144.74 107.84 0 0 72.37 -107.84 0 0 328.94c0,20.46 4.39,36.91 13.21,49.33 9.53,12.43 23.1,18.65 40.72,18.65 24.21,0 42.92,-7.31 56.13,-21.93l24.21 61.39c-24.21,22.67 -57.23,33.99 -99.04,33.99z"></path>
  <path class="fil1" d="M7170.39 1459.02c-79.23,0 -144.16,-25.59 -194.78,-76.75 -50.63,-51.89 -75.94,-119.16 -75.94,-201.75 0,-77.49 24.95,-142.91 74.83,-196.27 49.9,-54.1 112.25,-81.15 187.08,-81.15 78.51,0 140.5,27.05 185.99,81.15 46.22,53.35 69.32,120.98 69.32,202.84l0 20.83 -430.29 0c3.68,51.91 22.75,95.39 57.23,130.49 34.48,35.08 79.24,52.63 134.26,52.63 66.03,0 120.69,-22.29 163.98,-66.89l39.61 53.73c-54.29,54.09 -124.73,81.14 -211.3,81.14zm165.08 -311.39c-0.74,-45.32 -16.15,-85.9 -46.23,-121.71 -30.07,-36.55 -73,-54.83 -128.75,-54.83 -52.82,0 -94.65,17.91 -125.46,53.72 -30.08,35.82 -46.22,76.76 -48.43,122.81l348.86 0z"></path>
  <path class="fil1" d="M7776.19 1445.86l-82.54 0 0 -529.6 82.54 0 0 85.53c49.15,-64.33 108.21,-96.49 177.18,-96.49l0 84.43c-10.27,-2.2 -21.27,-3.29 -33.01,-3.29 -24.95,0 -52.09,8.77 -81.44,26.31 -29.35,17.55 -50.26,36.92 -62.73,58.11l0 375z"></path>
  <path class="fil1" d="M8614.84 1445.86l-82.53 0 0 -60.3c-44.76,48.98 -103.45,73.46 -176.09,73.46 -49.15,0 -92.44,-15.71 -129.85,-47.15 -37.41,-31.43 -56.12,-74.2 -56.12,-128.3 0,-55.55 18.34,-98.31 55.02,-128.28 37.42,-30.71 81.07,-46.05 130.96,-46.05 75.57,0 134.26,24.11 176.09,72.36l0 -95.39c0,-35.08 -12.48,-62.5 -37.42,-82.24 -24.95,-19.73 -57.23,-29.6 -96.85,-29.6 -62.36,0 -116.65,24.49 -162.87,73.47l-38.52 -57.02c56.5,-58.48 127.29,-87.72 212.39,-87.72 60.9,0 110.42,14.62 148.57,43.86 38.15,29.24 57.22,74.19 57.22,134.87l0 364.03zm-228.89 -46.05c66.03,0 114.81,-21.93 146.37,-65.79l0 -99.77c-31.56,-43.87 -80.33,-65.79 -146.37,-65.79 -38.16,0 -69.7,10.96 -94.65,32.89 -24.21,21.2 -36.31,48.97 -36.31,83.33 0,33.63 12.11,61.39 36.31,83.33 24.95,21.2 56.49,31.79 94.65,31.79z"></path>
  <path class="fil2" d="M1585.1 2179.03l0 -373.4 -812.52 0c516.79,-376.39 797.59,-672.12 797.59,-1012.67 0,-397.3 -337.56,-636.28 -761.74,-636.28 -277.81,0 -573.54,101.56 -767.71,325.61l241.96 280.8c134.43,-140.4 307.68,-230.02 534.71,-230.02 164.3,0 322.62,86.63 322.62,259.89 0,244.95 -238.98,451.07 -1054.49,1054.49l0 331.58 1499.58 0z"></path>
  <polygon class="fil3" points="3713.63,328.87 4015.96,328.87 4015.96,26.55 4165.98,26.55 4165.98,328.87 4468.3,328.87 4468.3,478.89 4165.98,478.89 4165.98,781.22 4015.96,781.22 4015.96,478.89 3713.63,478.89 "></polygon>
 </g>
<script xmlns=""></script></svg>
