<svg xmlns="http://www.w3.org/2000/svg" viewBox="0 0 187.582 187.41" fill-rule="evenodd"><path d="M134.398 178.597l-.033-7.476-3.325-.733 16.842-4.698 3.446-3.806c-18.366-.251-36.807-1.488-55.179-2.355l-52.724 3.175 3.148 3.387 15.084 4.22-1.895.452.036 7.869.89.469 3.596-1.003.015 2.906.899.474 3.586-1 .013 2.898.91.48 3.577-.997.013 2.89.921.486 22.221-6.197 22.32 6.243.957-.47-.015-3.061 3.98 1.113.93-.456-.015-3.083 4.006 1.12.902-.442-.014-3.105 4.037 1.128z" fill="#9d0a0f" fill-rule="nonzero"/><path d="M149.756 162.646l-2.203 2.38-73.54 20.511-.04-8.526 62.703-14.983 13.08.618zm-15.705-.742l-38.653 9.237-4.825-1.063 35.74-8.54 7.738.366zm-60.77 20.2l-3.768 1.052-.037-8.035 5.058-1.21 4.273 1.195-5.554 1.33.028 5.668zm50.41-20.689l-6.312 1.508-22.193 5.303-4.827-1.06 25.59-6.116 7.74.365zm-54.91 18.308l-3.768 1.052-.037-7.544 3.841-.918 4.274 1.195-4.334 1.035.024 5.18zm-4.5-2.382l-3.766 1.053-.035-7.054 2.62-.627 4.274 1.196-3.114.744.02 4.688zm49.048-16.415l-18.355 4.386-4.827-1.063 15.444-3.692 7.74.367zm-28.222.096l8.023 1.766-4.615 1.104-10.282-2.265 6.874-.605zm44.438 9.783l4.105.905.032 6.602-4.196-1.174-.019-4.23-4.171-.92 4.249-1.183zm-53.734-8.963l17.534 3.86-4.618 1.103-19.793-4.356 6.877-.607zm47.99 10.564l4.952 1.09.033 7.244-4.193-1.174-.023-4.87-5.019-1.105 4.25-1.185zm-57.29-9.745l27.049 5.955-4.619 1.104-29.307-6.452 6.878-.607zm51.545 11.347l5.8 1.277.037 7.882-4.194-1.176-.026-5.506-5.866-1.292 4.25-1.185zm-71.978-9.543l.882.978 33.306 9.314 13.508-3.228-36.562-8.048-11.134.982zm51.716 15.195L119 185.592l-.041-8.518-6.647-1.464-14.518 4.05z" fill="#f58020" fill-rule="nonzero"/><path d="M96.68 166.405c13.745-4.421 34.482-4.565 50.56-.894l4.127-4.426c-18.544-1.818-36.707-2.77-54.688-2.77s-36.142.952-54.688 2.77l4.128 4.426c16.077-3.671 36.814-3.527 50.56.894z" fill="#6c6753"/><path d="M97.126 166.264l-.447.14-.447-.14v-2.24h.894z" fill="#a05a2c"/><path d="M97.283 98.413c.777.018 1.546.07 2.306.153l8.564-66.73c.439.097.877.2 1.314.307l-8.548 66.602c.777.124 1.542.28 2.295.469l16.688-63.368c.412.193.823.391 1.232.594l-16.627 63.133c.77.234 1.525.503 2.264.803l23.863-58.1c.371.274.74.554 1.107.837l-23.74 57.8c.755.35 1.49.735 2.205 1.152l29.82-51.443c.32.339.64.679.957 1.025l-29.635 51.124c.726.474 1.427.981 2.102 1.52l34.472-43.94c.267.384.53.774.792 1.165l-34.236 43.64c.679.6 1.327 1.232 1.942 1.896l37.873-36.048c.213.416.422.834.63 1.254l-37.615 35.802a27.107 27.107 0 011.708 2.269l38.98-27.276.769 1.1-39.027 27.309c.507.84.97 1.712 1.384 2.61L158.1 95.969l.59 1.206-37.034 18.13c.377.937.703 1.9.974 2.885l35.582-10.833.39 1.284-35.648 10.854c.188.847.336 1.709.443 2.584l34.92-5.282.2 1.328-61.873 9.356-61.894-9.224.197-1.328 34.932 5.207a26.97 26.97 0 01.438-2.585l-35.673-10.777.389-1.285 35.605 10.757c.269-.986.592-1.95.967-2.887L34.531 97.307l.588-1.206 37.015 18.023c.413-.898.873-1.77 1.38-2.613L34.427 84.286l.767-1.101 39.038 27.192a27.031 27.031 0 011.702-2.273l-37.69-35.72c.206-.421.415-.84.626-1.256l37.95 35.967a27.13 27.13 0 011.938-1.901L44.43 61.627c.262-.39.523-.782.79-1.167l34.566 43.868a26.912 26.912 0 012.098-1.525L52.14 51.742c.316-.347.635-.688.955-1.027l29.93 51.38a26.803 26.803 0 012.202-1.158L61.364 43.189a67.21 67.21 0 011.105-.84l23.988 58.05a26.733 26.733 0 012.261-.81L71.957 36.494a59.48 59.48 0 011.23-.597L90.01 99.228a26.65 26.65 0 012.293-.474l-8.69-66.584c.437-.108.875-.21 1.314-.309l8.706 66.712a26.99 26.99 0 012.306-.159l-.072-67.832c.224-.003.447-.011.67-.012.225 0 .448.008.672.011l.073 67.832z" fill="#ffd42a"/><path d="M126.798 72.964h4.67l-3.777 2.745 1.442 4.441-3.777-2.745-3.779 2.745 1.444-4.44-3.779-2.746h4.67l1.444-4.44z" fill="red" fill-rule="nonzero"/><path d="M124.237 73.413h-3.618l2.928 2.126-1.119 3.441 2.928-2.126 2.926 2.126-1.117-3.44 2.926-2.127h-3.616l-1.119-3.44z" fill="#ffe680" fill-rule="nonzero"/><path d="M122.624 58.182h4.668l-3.778 2.743 1.443 4.442-3.778-2.743-3.777 2.743 1.442-4.442-3.777-2.743h4.67l1.442-4.44z" fill="red" fill-rule="nonzero"/><path d="M122.297 58.63l-1.116-3.442-1.119 3.441h-3.618l2.926 2.127-1.117 3.44 2.928-2.126 2.925 2.126-1.118-3.44 2.927-2.127z" fill="#ffe680" fill-rule="nonzero"/><path d="M111.918 47.343h4.67l-3.78 2.745 1.443 4.441-3.777-2.744-3.778 2.744 1.443-4.44-3.778-2.746h4.67l1.443-4.44z" fill="red" fill-rule="nonzero"/><path d="M111.591 47.792l-1.117-3.44-1.118 3.44h-3.618l2.928 2.125-1.12 3.44 2.928-2.126 2.926 2.126-1.117-3.44 2.926-2.125z" fill="#ffe680" fill-rule="nonzero"/><path d="M95.154 43.246h-4.67l3.778 2.744-1.443 4.442 3.778-2.745 3.777 2.745-1.442-4.442 3.777-2.744h-4.67l-1.442-4.442z" fill="red" fill-rule="nonzero"/><path d="M95.479 43.694l1.118-3.44 1.117 3.44h3.618l-2.926 2.127 1.117 3.44-2.926-2.126-2.927 2.126 1.118-3.44-2.927-2.127z" fill="#ffe680" fill-rule="nonzero"/><path d="M81.276 47.343h-4.67l3.777 2.745-1.442 4.441 3.777-2.744 3.778 2.744-1.443-4.44 3.779-2.746h-4.67l-1.444-4.44z" fill="red" fill-rule="nonzero"/><path d="M81.601 47.792l1.117-3.44 1.119 3.44h3.618l-2.928 2.125 1.119 3.44-2.928-2.126-2.926 2.126 1.117-3.44-2.926-2.125z" fill="#ffe680" fill-rule="nonzero"/><path d="M70.57 58.182H65.9l3.779 2.743-1.444 4.442 3.777-2.743 3.778 2.743-1.443-4.442 3.778-2.743h-4.67l-1.443-4.44z" fill="red" fill-rule="nonzero"/><path d="M70.895 58.63l1.119-3.442 1.116 3.441h3.618l-2.925 2.127 1.116 3.44-2.925-2.126-2.928 2.126 1.119-3.44-2.928-2.127z" fill="#ffe680" fill-rule="nonzero"/><path d="M66.393 72.964h-4.67L65.5 75.71 64.06 80.15l3.776-2.745 3.779 2.745-1.443-4.44 3.776-2.746h-4.67l-1.44-4.44z" fill="red" fill-rule="nonzero"/><path d="M68.955 73.413h3.618l-2.928 2.126 1.12 3.441-2.929-2.126-2.925 2.126 1.117-3.44-2.926-2.127h3.618l1.116-3.44z" fill="#ffe680" fill-rule="nonzero"/><path d="M96.597 59.462a4.676 4.676 0 014.667 4.587 4.19 4.19 0 00-1.01-.135 4.209 4.209 0 00-3.657 2.141 4.209 4.209 0 00-3.658-2.141c-.344 0-.68.053-1.01.135a4.676 4.676 0 014.668-4.587zm-7.26 4.675a7.284 7.284 0 001.104 3.849h.454l.004-.03a2.058 2.058 0 012.04-1.877c1.13 0 2.049.92 2.049 2.05v4.267c0 3.695-.185 5.846-3.952 7.07-3.013.978-6.432-.318-8.314-3.155l-.292-.44-.114.516c-.552 2.506-2.121 4.559-4.305 5.633-3.766 1.85-7.638.709-10.005-.978l-.852-.607 9.02 15.387.183-.081c3.54-1.586 12.244-2.893 20.244-3.042 7.993.147 16.694 1.456 20.234 3.042l.185.08 9.019-15.386-.853.607c-2.366 1.687-6.239 2.828-10.005.978-2.183-1.074-3.752-3.127-4.304-5.633l-.115-.515-.291.439c-1.883 2.837-5.302 4.135-8.314 3.156-3.766-1.225-3.95-3.376-3.95-7.07v-4.27a2.05 2.05 0 012.047-2.05c1.058 0 1.953.825 2.04 1.878l.003.03h.454a7.199 7.199 0 001.104-3.85 7.267 7.267 0 00-7.258-7.26 7.267 7.267 0 00-7.26 7.26zm7.258 14.972c1.115 2.542 3.183 5.265 6.939 4.92 2.311-.213 4.508-1.392 5.857-3.1.738 2.226 2.237 3.991 4.271 4.992 2.038 1.002 4.958 1.155 7.196.433l-2.686 4.62c-4.067-1.452-12.875-2.565-21.571-2.717-8.705.152-17.514 1.265-21.58 2.718l-2.686-4.62c2.237.721 5.157.568 7.195-.434 2.034-1 3.531-2.766 4.272-4.992 1.349 1.708 3.545 2.887 5.856 3.101 3.757.344 5.824-2.379 6.94-4.92zm12.574 3.674a4.592 4.592 0 00-2.117 2.287 4.581 4.581 0 00-1.375-.525 4.633 4.633 0 00-1.126-.079l-.258.015.05.254a4.862 4.862 0 003.846 3.812 4.855 4.855 0 005.027-2.141l.136-.214-.23-.11a4.62 4.62 0 00-1.093-.357 4.578 4.578 0 00-1.479-.03 4.581 4.581 0 00-1.11-2.859l-.114-.133-.157.081zm-12.701-.689a4.581 4.581 0 00-1.63 2.597 4.576 4.576 0 00-1.462-.255c-.386 0-.77.048-1.14.143l-.248.062.094.238a4.851 4.851 0 004.524 3.06 4.865 4.865 0 004.504-3.01l.098-.238-.25-.063a4.605 4.605 0 00-1.121-.138 4.6 4.6 0 00-1.451.251 4.576 4.576 0 00-1.643-2.647l-.137-.109-.138.11zm-12.716.742a4.596 4.596 0 00-1.11 2.86 4.574 4.574 0 00-1.476.029c-.38.074-.75.194-1.095.358l-.23.11.138.213a4.855 4.855 0 005.024 2.141 4.862 4.862 0 003.847-3.812l.052-.254-.259-.015a4.697 4.697 0 00-1.126.08 4.578 4.578 0 00-1.377.524 4.578 4.578 0 00-2.117-2.286l-.155-.08-.116.132z" fill="red" fill-rule="nonzero"/><path d="M83.078 85.933v-.09c0-.932.323-1.827.9-2.56a4.121 4.121 0 011.848 2.165l.096.262.237-.15a4.122 4.122 0 012.178-.646 4.406 4.406 0 01-3.419 3.194 4.388 4.388 0 01-4.37-1.715c.23-.089.457-.18.7-.229a4.135 4.135 0 011.564-.005l.271.051-.005-.277zm12.137-.926a4.135 4.135 0 011.391-2.43 4.118 4.118 0 011.4 2.478l.044.275.258-.104c.488-.192 1-.288 1.529-.288.245 0 .485.047.725.09a4.404 4.404 0 01-3.956 2.463 4.395 4.395 0 01-3.98-2.514c.25-.046.499-.094.75-.094.53 0 1.047.1 1.536.294l.256.101.047-.271zm12.151.441a4.126 4.126 0 011.846-2.165 4.133 4.133 0 01.904 2.65l-.007.277.271-.051a4.135 4.135 0 011.564.005c.243.048.472.14.701.229a4.388 4.388 0 01-4.37 1.717 4.406 4.406 0 01-3.418-3.196 4.127 4.127 0 012.179.647l.234.15.096-.263z" fill="#fc0" fill-rule="nonzero"/><path d="M89.961 65.688a6.82 6.82 0 016.634-8.362 6.82 6.82 0 016.636 8.362 6.719 6.719 0 01-.633 1.619 2.505 2.505 0 00-2.344-1.675 2.498 2.498 0 00-2.496 2.496v4.268c0 3.28 0 6.11 4.26 7.494 3.065.997 6.505-.225 8.545-2.959.665 2.433 2.248 4.423 4.421 5.49 3.548 1.744 7.177.95 9.67-.51l-7.822 13.346c-3.692-1.573-12.309-2.857-20.231-3.005-7.932.148-16.548 1.432-20.24 3.005l-7.823-13.346c2.494 1.46 6.12 2.254 9.67.51 2.173-1.067 3.757-3.057 4.421-5.49 2.04 2.734 5.483 3.956 8.545 2.96 4.26-1.384 4.26-4.215 4.26-7.493v-4.272a2.498 2.498 0 00-2.495-2.495c-1.073 0-2.001.701-2.345 1.674a6.765 6.765 0 01-.633-1.619zm1.512-1.55l.011.507.286-.098a3.77 3.77 0 014.622 2.075l.203.469.207-.47a3.767 3.767 0 014.62-2.074l.288.092.01-.502a5.13 5.13 0 00-5.123-5.122 5.13 5.13 0 00-5.124 5.122zm4.916 14.334c-1.003 2.52-2.976 5.453-6.69 5.112-2.333-.215-4.552-1.459-5.792-3.244l-.272-.387-.129.454c-.65 2.294-2.132 4.109-4.172 5.113-2.115 1.037-5.23 1.13-7.41.218l-.614-.259 3.51 6.042.177-.067c3.882-1.443 12.967-2.6 21.604-2.75 8.627.15 17.713 1.307 21.597 2.75l.175.067 3.509-6.042-.613.259c-2.18.912-5.297.82-7.41-.218-2.04-1.004-3.523-2.819-4.175-5.113l-.129-.454-.27.387c-1.24 1.787-3.458 3.03-5.792 3.244-3.714.341-5.687-2.592-6.69-5.113l-.208-.523-.206.524z" fill="#fc0" fill-rule="nonzero"/><path d="M82.562 119.74l-4.16-2.877-25.498 11.293.118 16.497h91.31v-18.601l-23.1-9.573-.19.105-5.031 2.78-18.208-9.37-.218.139z" fill="#a05a2c" fill-rule="nonzero"/><path d="M52.91 129.155l.007.858 23.258-9.067 8.046 1.052-5.903-4.105-25.408 11.26zm44.94-18.129l13.41 6.91-14.42-3.796-12.718 6.651-.763-.498 14.49-9.267zm23.437 6.444l21.122 8.753-21.925-5.371-7.672 1.274 8.475-4.656z" fill="#fff" fill-rule="nonzero"/><g fill="#f60" fill-rule="nonzero"><path d="M157.918 113.31c-.089.553-.264 1.329-.417 2.093-.543 2.215-1.1 4.484-2.45 6.27a6.87 6.87 0 01-1.292 1.353l-.002.011-.003.012c-1.226 1.078-2.778 1.66-4.004.756l-.006-.003a1.776 1.776 0 01-.295-.33 2.627 2.627 0 01-.347-1.263c-.461.48-.97.782-1.414.873a1.765 1.765 0 01-.443.016l-.01-.001c-1.498-.263-2.151-1.785-2.223-3.415l.007-.01.007-.009a6.804 6.804 0 01.08-1.87c.356-2.211 1.61-4.182 2.831-6.11l.185-.267a6.215 6.215 0 01-.011-.988c.088-2.237 1.096-4.345 2.078-6.403l.262-.498a6.603 6.603 0 01-.208-1.435c-.126-2.235.672-4.43 1.453-6.575.11-.267.221-.539.324-.799a4.938 4.938 0 01-.044-.21c-.485-2.186-.053-4.48.37-6.723l.05-.21a5.909 5.909 0 01-.27-.654c-.79-2.097-.683-4.43-.582-6.708.07-.788.12-1.593.194-2.15.046-.338.266-.892.524-.296.148.338.244 1.01.576 1.717.344.738 1 1.615 1.883 2.547.557.66 1.144 1.294 1.726 1.933l.16.188c.058-.116.12-.232.189-.349.443-.742.89-1.482 1.305-2.24.675-1.09 1.144-2.08 1.333-2.871.182-.76.142-1.44.217-1.8.135-.635.462-.136.573.185.184.533.395 1.31.622 2.067.557 2.212 1.13 4.478.775 6.688a6.73 6.73 0 01-.458 1.68l.19.762c.462 2.234.938 4.52.49 6.713a6.675 6.675 0 01-.421 1.414l.01.76c-.055 2.279-.11 4.614-1.044 6.65a6.265 6.265 0 01-.458.875l-.018.834c-.135 2.276-.272 4.61-1.274 6.61a6.568 6.568 0 01-.72 1.182zm-29.977-81.25a18.926 18.926 0 00-1.111-.665c-1.584-.884-3.694-1.744-5.067-2.344-1.691-.742-4.024-1.717-5.772-2.335-.351-.124-.776-.18-.825-.081-.098.162.133.273.435.417 1.543.73 3.498 1.755 4.772 3.038-1.239-.325-2.547-.436-3.899-.552-.958-.074-1.92-.12-2.877-.214a18.427 18.427 0 01-3.197-.602c-.781-.216-2.954-1.015-3.76-1.107-.582-.065-.815.385-.047.592 1.568.4 3.506 1.097 5.043 2.05 1.196.737 2.07 1.697 2.867 2.377 1.333 1.015 2.5 2.113 3.723 2.76.642.339 1.55.62 2.481.741-.75.144-1.506.259-2.232.25-1.956-.028-5.336-.58-7.062-1.466-.3-.152-.528-.268-.598-.092-.046.1.255.402.567.605 1.506.978 3.26 1.379 5.378 2.29 1.99.86 4.342 2.238 5.963 2.936.313.134.659.277 1.022.41.595.407 1.19.81 1.783 1.214 1.237.845 3.087 2.178 4.676 3.051l.393.214c.59.597 1.187 1.185 1.778 1.778 1.057 1.06 2.626 2.713 4.024 3.869.203.166.424.345.66.524.466.628.938 1.252 1.403 1.877.898 1.2 2.216 3.06 3.434 4.403.358.393.779.834 1.242 1.246.277.483.56.965.838 1.447.75 1.298 1.839 3.299 2.893 4.775.915 1.281 2.325 3.046 3.968 3.25 1.339.161 2.405-.677 2.575-1.983.028-.22.035-.443.026-.665.072.028.146.052.22.074 1.262.382 2.462-.25 2.86-1.536.492-1.582-.544-3.592-1.337-4.952-.916-1.566-2.297-3.378-3.175-4.593l-.84-1.17c-.37-.96-.978-1.885-1.495-2.61-1.049-1.479-2.585-3.162-3.565-4.296-.531-.614-1.061-1.236-1.598-1.85a15.53 15.53 0 00-1.322-1.598c-1.233-1.329-2.972-2.802-4.092-3.799-.59-.526-1.178-1.057-1.772-1.581-.646-.715-1.455-1.33-2.13-1.808a18.787 18.787 0 00-.215-.15l-.1-.075a2.58 2.58 0 00-.355-.23c-1.374-.9-3.002-1.784-4.115-2.422-.82-.471-1.637-.95-2.464-1.412z"/><path d="M167.644 71.753c.377-.775.76-1.552 1.11-2.344.583-1.142.963-2.17 1.085-2.972.118-.775.018-1.447.064-1.812.08-.643.449-.176.587.136.23.515.504 1.274.794 2.007.744 2.156 1.506 4.365 1.34 6.599a6.744 6.744 0 01-.234 1.445l.048.122c.762 2.148 1.543 4.35 1.397 6.586a6.774 6.774 0 01-.338 1.84l.006.011.004.011a6.276 6.276 0 01-.084.277l.13.462c.533 2.219 1.078 4.49.696 6.697a6.811 6.811 0 01-.53 1.796l.003.01.004.012a6.276 6.276 0 01-.341.729l.044.652c.06 2.28.124 4.614-.703 6.695a6.497 6.497 0 01-.471.998c.015.532.006 1.2.011 1.86-.081 2.279-.164 4.616-1.12 6.639a6.228 6.228 0 01-.442.827c-.027.553-.107 1.297-.166 2.03-.28 2.265-.57 4.583-1.7 6.516a6.83 6.83 0 01-1.128 1.493v.024c-1.094 1.213-2.565 1.972-3.889 1.219l-.007-.004a1.733 1.733 0 01-.332-.295 2.654 2.654 0 01-.493-1.213c-.4.53-.872.89-1.302 1.033a1.75 1.75 0 01-.437.067h-.008c-1.52-.085-2.347-1.521-2.608-3.133l.006-.009.005-.01a6.791 6.791 0 01-.138-1.867c.096-2.237 1.111-4.342 2.099-6.398l.241-.458a6.673 6.673 0 01-.228-1.594c-.104-2.238.72-4.423 1.524-6.559l.296-.698a6.792 6.792 0 01-.333-1.578c-.24-2.226.445-4.46 1.115-6.641.133-.377.262-.757.386-1.112-.666-2.108-.46-4.406-.258-6.652.055-.41.105-.825.155-1.21a5.408 5.408 0 01-.111-.248c-.916-2.044-.953-4.379-.99-6.66l.023-1.021a5.831 5.831 0 01-.262-.563c-.9-2.049-.916-4.388-.933-6.667.028-.79.037-1.597.082-2.158.025-.34.217-.905.507-.323.166.33.296.997.665 1.687.382.716 1.083 1.558 2.012 2.442.592.63 1.213 1.233 1.827 1.84.325.329.595.672.816 1.017.087-.507.25-1.039.504-1.58z"/><path d="M121.061 16.608c-1.45-.554-3.07-1.043-4.205-1.414-1.753-.574-4.902-1.425-6.702-1.872-.362-.09-.79-.103-.83 0-.082.17.16.258.476.373 1.823.657 4.947 1.746 6.305 3.156l.137.148c-1.298-.223-2.647-.207-4.043-.194-.96.019-1.923.063-2.883.06-.916-.004-3.129-.364-4.423-.593-.797-.142-1.68-.462-2.492-.473-.583-.01-.771.46.011.593 2.843.443 6.158 2.307 8.12 3.682 1.424.884 2.69 1.865 3.97 2.393.176.073.37.138.577.199a7.954 7.954 0 01-.774.092c-1.954.124-3.8-.419-5.59-1.166-.309-.13-.547-.227-.602-.045-.04.102.284.38.612.558 1.628.886 3.332 1.624 5.014 2.385 1.366.618 3.416 1.611 5.131 2.196.345.118.728.24 1.126.35.912.468 1.833.915 2.749 1.367 1.342.664 3.36 1.73 5.052 2.374.473.18 1.015.373 1.584.528.485.35.97.696 1.454 1.043 1.217.876 3.03 2.257 4.597 3.17.317.185.671.385 1.048.573.796.714 1.611 1.408 2.418 2.108 1.13.982 2.813 2.518 4.29 3.57.24.17.498.349.775.526.517.701 1.047 1.395 1.57 2.091.898 1.2 2.218 3.057 3.442 4.395.1.111.203.222.314.34.635 1.012 1.305 2.001 1.962 2.996.825 1.25 2.03 3.184 3.171 4.596.373.462.821.988 1.323 1.471l.994 1.542c.808 1.26 1.99 3.211 3.11 4.636.973 1.237 2.462 2.937 4.116 3.063 1.342.1 2.368-.785 2.477-2.1a3.895 3.895 0 00-.009-.708c.055.02.113.04.17.057 1.259.395 2.464-.223 2.878-1.506.505-1.576-.506-3.597-1.287-4.965-.899-1.575-2.261-3.402-3.125-4.626-.665-.943-1.887-2.455-2.629-3.633-.444-.707-.559-1.44-.72-1.447-.178-.005-.059.654-.313.235-.7-.979-1.362-1.98-1.972-2.655-1.175-1.307-1.242-3.178-1.447-1.95a13.85 13.85 0 00-1.32-2.194c-1.05-1.477-2.586-3.162-3.568-4.293-.295-.342-.83-.894-1.144-1.453-.613-1.095-.905-2.056-1.054-1.07-1.612-2.01-3.849-3.519-5.86-5.062-.5-.384-1.385-.988-1.98-1.665-1.057-1.205-1.487-1.929-1.247-.773a18.643 18.643 0 00-1.043-.853c-1.44-1.106-3.402-2.261-4.672-3.055a10.595 10.595 0 01-1.68-1.32c-.982-.984-1.093-1.322-.92-.299a16.035 16.035 0 00-1.635-1.058c-1.569-.904-3.67-1.79-5.033-2.41-1.682-.763-4.113-1.898-5.77-2.891-.322-.192-.774-.19-.826-.092-.064.105.683.882.825.969zm56.6 50.894c.231-.832.468-1.665.667-2.506.364-1.23.554-2.308.526-3.12-.024-.783-.244-1.427-.266-1.794-.037-.646.41-.253.602.028.32.463.727 1.159 1.144 1.827 1.126 1.986 2.275 4.02 2.52 6.246.065.458.078 1.003.02 1.57l.558 1.196c.882 2.104 1.787 4.256 1.77 6.495a6.789 6.789 0 01-.172 1.602c.104.466.214 1.008.333 1.544.393 2.246.797 4.546.282 6.726a6.612 6.612 0 01-.461 1.394l.107.612c.306 2.262.62 4.578.02 6.734a6.459 6.459 0 01-.391 1.115c.036.561.036 1.366.055 2.158-.044 2.28-.087 4.615-1.01 6.654a6.5 6.5 0 01-.627 1.15l-.035.735c-.19 2.272-.384 4.6-1.437 6.577a6.837 6.837 0 01-1.068 1.54v.022c-1.041 1.255-2.483 2.072-3.836 1.375l-.006-.004a1.78 1.78 0 01-.345-.28 2.654 2.654 0 01-.54-1.195c-.379.547-.835.925-1.26 1.086a1.798 1.798 0 01-.435.084h-.007c-1.521-.024-2.407-1.425-2.732-3.025l.005-.01.006-.01a6.826 6.826 0 01-.213-1.86c.006-2.238.934-4.383 1.839-6.478l.221-.462a6.097 6.097 0 01-.086-.84c-.139-2.233.65-4.433 1.417-6.582l.185-.461a6.488 6.488 0 01-.375-1.256c-.48-2.185-.037-4.48.393-6.719l.189-.812a6.05 6.05 0 01-.24-.79c-.563-2.165-.21-4.476.133-6.73l.055-.293a5.733 5.733 0 01-.264-.491c-1.032-1.988-1.2-4.32-1.366-6.592-.015-.465-.037-.936-.05-1.359l-.046-.073c-1.257-1.854-1.698-4.148-2.13-6.387-.115-.78-.253-1.577-.312-2.136-.035-.34.052-.928.441-.41.222.296.47.927.96 1.538.506.635 1.347 1.335 2.424 2.036.696.51 1.415.993 2.132 1.477.18.127.35.258.507.395a6.22 6.22 0 01.2-1.24z"/><path d="M120.17 7.144a6.75 6.75 0 00-1.503-.792c-1.842-.744-3.795-.72-5.85-.701-.96.018-1.923.064-2.883.062a18.385 18.385 0 01-3.241-.295c-.8-.14-1.68-.46-2.492-.473-.585-.009-.773.462.011.595 2.843.443 4.977 2.006 6.939 3.381 1.421.886 2.69 1.865 3.968 2.393.181.074.384.144.6.205-1.698.116-3.355-.248-4.983-.774-.318-.103-.563-.18-.602.006-.032.105.314.356.655.506 1.698.749 3.456 1.341 5.196 1.962 1.41.502 3.539 1.321 5.298 1.762.581.148 1.262.3 1.96.383l1.366.767c1.305.737 3.26 1.907 4.918 2.644.587.26 1.286.548 2.012.755.492.299.983.596 1.474.897 1.278.78 3.192 2.02 4.822 2.813.456.221.978.461 1.532.664.563.423 1.13.839 1.693 1.258 1.201.895 2.994 2.301 4.546 3.239.312.188.657.39 1.026.583.471.51.947 1.016 1.418 1.521 1.02 1.097 2.529 2.806 3.886 4.01.27.24.575.502.9.756l1.158 1.507c.576.753 1.325 1.772 2.111 2.752.061.135.148.286.244.419 1.084 1.506 2.298 2.909 3.483 4.327.96 1.148 2.378 2.935 3.67 4.206.273.268.578.56.908.846.375.53.753 1.057 1.126 1.587.866 1.222 2.134 3.118 3.317 4.49 1.028 1.192 2.595 2.824 4.251 2.872 1.346.038 2.331-.89 2.381-2.21a3.821 3.821 0 00-.031-.63l.151.045c1.276.34 2.455-.332 2.812-1.63.437-1.597-.663-3.572-1.501-4.906-.966-1.532-2.405-3.3-3.323-4.486-.498-.644-.993-1.294-1.495-1.938a18.754 18.754 0 00-.701-1.119c-1.01-1.506-2.5-3.23-3.45-4.39-1.17-1.426-1.772-3.743-3.05-5.086-.256-.272-.609-.513-.697-.449-.161.102-.004.307.199.572.568.735.967 1.695 1.274 2.706a22.904 22.904 0 00-.253-.398c-.979-1.527-2.433-3.282-3.36-4.46-1.14-1.45-2.154-3.101-3.404-4.473-.25-.275-.598-.522-.688-.461-.164.098-.011.306.188.576.31.419.598.856.86 1.31l-.003-.003c-1.148-1.405-2.795-2.981-3.85-4.043-1.302-1.31-2.362-2.768-3.76-3.987-.283-.243-.656-.45-.74-.378-.149.116.025.304.254.548.35.377.675.77.972 1.178a26.044 26.044 0 00-.552-.48c-1.384-1.172-3.287-2.422-4.518-3.277-1.518-1.052-2.867-2.818-4.465-3.762-.32-.19-.726-.324-.794-.24-.128.143.08.296.35.495.578.428 1.117.973 1.61 1.577-.27-.207-.535-.395-.784-.567-1.492-1.034-3.51-2.092-4.818-2.822-1.612-.901-3.227-2.4-4.91-3.183-.336-.159-.753-.253-.812-.16-.113.153.107.286.395.457.666.4 1.314.914 1.92 1.496l-.41-.259c-1.542-.956-3.609-1.912-4.953-2.577-1.654-.817-3.304-1.668-5.022-2.368-.346-.138-.768-.212-.822-.118-.092.138.067.247.303.376-1.47-.55-3.114-1.035-4.266-1.402-1.76-.562-3.518-1.156-5.322-1.588-.361-.088-.79-.1-.83.004-.08.172.164.258.48.369 1.827.644 3.562 1.477 4.932 2.88.594.609 1.094 1.371 1.569 2.128z"/></g><g fill="#fc0" fill-rule="nonzero"><path d="M123.403 10.738c-2.76-.275-4.987 1.515-7.678 1.237 1.554.88 3.534 1.659 5.618 2.303 1.36.423 2.854.722 3.941.434a2.26 2.26 0 00.964-.548c-1.181.07-2.413.031-3.555-.449-.607-.256-.31-.387.247-.321 1.063.13 1.855.052 2.883-.186.64-.148 1.14-.309.508-1.108-.618-.783-1.846-1.255-2.928-1.362zm-3.629 24.316c-2.595-.979-4.876-3.445-7.093-5.119 1.438.292 2.883.393 4.338.533 1.561.167 2.99.355 4.33.87.323.52.607 1.085.88 1.643a8.905 8.905 0 00-.793-.24c-.225-.052-1.254-.24-1.344-.008-.055.139.79.37.997.454.566.231 1.1.466 1.624.766l.105.205c.166.34.37.687.606 1.028l-.16.06c-1.21.406-3.122-.054-3.49-.192zm5.52 1.624c-2.714-.585-5.126.941-7.771.362 1.447 1.05 3.326 2.047 5.323 2.924 1.305.572 2.754 1.039 3.867.876a2.292 2.292 0 001.02-.435c-1.182-.065-2.4-.24-3.48-.85-.576-.322-.268-.418.28-.29 1.041.248 1.837.263 2.885.141.652-.076 1.167-.177.632-1.043-.527-.849-1.695-1.458-2.756-1.685zm7.852 4.941c-2.645-.841-5.194.447-7.771-.384 1.338 1.184 3.114 2.356 5.019 3.42 1.242.697 2.641 1.3 3.764 1.245a2.274 2.274 0 001.057-.336c-1.172-.177-2.366-.47-3.383-1.18-.541-.376-.225-.442.306-.26 1.015.345 1.805.436 2.861.416.656-.013 1.178-.065.726-.979-.441-.893-1.545-1.611-2.58-1.942zm6.835 6.472c-2.44-1.318-5.187-.528-7.562-1.824 1.094 1.412 2.62 2.895 4.293 4.296 1.093.913 2.356 1.768 3.467 1.921.363.05.757 0 1.102-.133-1.117-.391-2.237-.902-3.105-1.786-.461-.471-.138-.479.35-.202.933.528 1.692.766 2.733.942.646.11 1.17.155.897-.825-.268-.96-1.218-1.872-2.175-2.389zm5.902 7.347c-2.228-1.654-5.058-1.261-7.225-2.884.882 1.555 2.182 3.24 3.636 4.864.953 1.06 2.08 2.086 3.16 2.396.353.102.75.105 1.108.026-1.049-.548-2.086-1.213-2.817-2.213-.39-.532-.07-.491.375-.148.849.655 1.565.997 2.57 1.32.627.203 1.136.321 1.005-.689-.129-.989-.941-2.024-1.812-2.672zm5.246 7.954c-2.02-1.904-4.875-1.846-6.838-3.71.695 1.644 1.787 3.47 3.042 5.255.82 1.164 1.82 2.314 2.856 2.75.338.142.731.194 1.097.155-.979-.665-1.928-1.447-2.539-2.527-.324-.572-.01-.497.39-.103.764.75 1.44 1.175 2.398 1.613.598.273 1.089.452 1.08-.567-.012-.997-.696-2.123-1.486-2.866zm.415-.7c-.91-2.621.31-5.204-.589-7.756 1.218 1.306 2.437 3.05 3.552 4.928.727 1.224 1.367 2.606 1.342 3.729a2.285 2.285 0 01-.309 1.065c-.208-1.165-.531-2.352-1.266-3.35-.391-.532-.449-.215-.255.313.373 1.004.484 1.793.491 2.847.004.657-.035 1.181-.96.753-.904-.417-1.65-1.503-2.006-2.529zm-5.226-8.065c-1.139-2.529-.15-5.21-1.27-7.675 1.33 1.196 2.695 2.824 3.973 4.596.83 1.156 1.59 2.476 1.665 3.598.022.365-.058.753-.215 1.087-.308-1.142-.738-2.296-1.556-3.226-.435-.493-.467-.172-.225.336.46.967.639 1.742.739 2.792.062.654.072 1.178-.886.835-.942-.336-1.78-1.351-2.225-2.343zm-6.025-7.339c-1.456-2.36-.823-5.146-2.252-7.444 1.471 1.011 3.039 2.451 4.532 4.042.976 1.038 1.901 2.248 2.117 3.35a2.3 2.3 0 01-.07 1.108c-.456-1.093-1.028-2.182-1.962-2.998-.497-.434-.484-.11-.18.362.58.9.86 1.645 1.095 2.673.148.64.222 1.16-.773.941-.975-.21-1.938-1.107-2.507-2.034zm-7.162-6.67c-1.908-2.013-1.862-4.87-3.732-6.827 1.648.689 3.478 1.776 5.266 3.025 1.167.816 2.32 1.813 2.76 2.847.142.338.195.73.159 1.098-.67-.978-1.455-1.925-2.537-2.532-.574-.322-.496-.01-.101.39.753.763 1.18 1.435 1.62 2.393.275.596.455 1.09-.563 1.082-.996-.01-2.122-.69-2.872-1.477zm-7.89-4.76c-2.116-1.794-2.377-4.64-4.448-6.383 1.715.508 3.65 1.39 5.562 2.44 1.25.685 2.503 1.551 3.051 2.533.18.32.273.705.277 1.073-.771-.898-1.654-1.754-2.794-2.243-.606-.259-.495.046-.06.4.831.676 1.328 1.298 1.87 2.203.336.564.569 1.033-.443 1.137-.993.097-2.187-.456-3.016-1.16zm-9.171-13.877c-2.691-.674-5.242-2.861-7.635-4.27 1.462.122 2.91.06 4.371.03 1.518-.013 2.917.01 4.262.332.336.497.646 1.017.957 1.518a6.904 6.904 0 00-.573-.098c-.229-.024-1.27-.094-1.334.147-.037.143.829.277 1.043.336.481.135.943.275 1.399.453.124.184 1.061 1.31 1.034 1.323-1.278.449-2.097.587-3.526.23zm5.063.543c-2.745-.397-5.05 1.292-7.727.893 1.514.949 3.458 1.815 5.51 2.553 1.34.482 2.82.85 3.917.61.36-.078.71-.263.988-.505-1.182.019-2.411-.077-3.53-.609-.596-.282-.295-.4.259-.308 1.057.175 1.853.135 2.89-.057.646-.12 1.152-.259.558-1.086-.583-.808-1.79-1.336-2.865-1.491zm9.063 4.168c-2.735-.467-5.081 1.163-7.749.696 1.49.987 3.412 1.9 5.446 2.69 1.327.518 2.796.922 3.9.71.36-.069.714-.244.999-.48-1.184-.011-2.407-.137-3.513-.696-.589-.3-.284-.408.268-.303 1.052.203 1.845.183 2.888.015.65-.103 1.16-.227.586-1.069-.562-.823-1.754-1.38-2.825-1.563zm8.27 5.189c-2.621-.909-5.204.313-7.757-.582 1.307 1.217 3.054 2.433 4.929 3.546 1.226.727 2.608 1.366 3.732 1.338a2.289 2.289 0 001.065-.308c-1.166-.207-2.353-.53-3.352-1.264-.531-.39-.214-.449.314-.253 1.004.369 1.792.48 2.846.487.658.004 1.182-.035.754-.96-.42-.904-1.505-1.65-2.53-2.004zm8.074 6.538c-2.53-1.141-5.211-.155-7.674-1.278 1.193 1.33 2.82 2.699 4.59 3.976 1.155.835 2.475 1.595 3.595 1.669.367.024.757-.055 1.09-.212-1.143-.31-2.295-.739-3.226-1.56-.492-.438-.171-.467.336-.225.968.461 1.743.642 2.791.742.656.063 1.18.072.836-.886-.335-.94-1.349-1.78-2.338-2.226zm6.416 7.795c-2.233-1.649-5.061-1.252-7.232-2.869.886 1.553 2.19 3.234 3.65 4.855.952 1.06 2.081 2.082 3.163 2.39.35.102.748.106 1.108.023-1.053-.545-2.086-1.208-2.825-2.206-.387-.53-.068-.491.377-.148.849.653 1.569.995 2.573 1.314.626.2 1.137.318 1.004-.692-.13-.987-.945-2.023-1.818-2.67zm5.595 8.173c-2.128-1.78-4.977-1.552-7.046-3.296.79 1.602 1.99 3.36 3.349 5.065.887 1.115 1.954 2.204 3.014 2.577.347.12.742.147 1.106.088-1.016-.607-2.012-1.33-2.686-2.372-.358-.554-.04-.495.384-.125.808.703 1.504 1.087 2.488 1.467.613.236 1.117.386 1.045-.63-.072-.994-.822-2.076-1.654-2.774zm5.458 7.707c-2.104-1.81-4.956-1.619-7.003-3.391.77 1.611 1.945 3.385 3.282 5.11.873 1.125 1.925 2.23 2.98 2.615.344.127.737.16 1.103.105-1.008-.62-1.994-1.358-2.653-2.407-.35-.56-.033-.496.384-.122.8.715 1.492 1.108 2.47 1.501.61.246 1.111.4 1.052-.615-.057-.996-.793-2.087-1.617-2.796zm.517-.89c-.882-2.632.365-5.202-.506-7.764 1.204 1.32 2.404 3.077 3.498 4.964.715 1.233 1.34 2.621 1.302 3.745-.013.366-.13.744-.318 1.062-.196-1.169-.508-2.358-1.231-3.365-.386-.536-.447-.218-.259.312.362 1.007.466 1.797.462 2.851-.002.658-.048 1.182-.967.744-.901-.428-1.636-1.52-1.981-2.55zm-5.447-7.49c-.947-2.607.24-5.206-.696-7.748 1.237 1.29 2.479 3.018 3.618 4.877.746 1.215 1.405 2.59 1.393 3.712a2.28 2.28 0 01-.293 1.07c-.222-1.162-.565-2.343-1.312-3.333-.4-.526-.453-.206-.25.318.386.997.508 1.785.53 2.839.013.657-.018 1.181-.949.766-.91-.406-1.672-1.48-2.041-2.501zm-5.763-8.432c-1.139-2.53-.151-5.211-1.274-7.674 1.33 1.195 2.699 2.824 3.974 4.593.835 1.155 1.595 2.475 1.667 3.596.024.367-.055.755-.212 1.089-.31-1.145-.738-2.297-1.558-3.225-.436-.495-.467-.174-.225.334.46.967.64 1.743.742 2.793.063.653.07 1.178-.89.834-.937-.336-1.777-1.35-2.224-2.34zm-6.522-7.784c-1.624-2.249-1.2-5.075-2.796-7.26 1.543.9 3.212 2.22 4.82 3.695 1.05.964 2.061 2.104 2.359 3.186.097.355.096.751.013 1.11-.536-1.056-1.187-2.1-2.179-2.843-.528-.397-.49-.076-.153.373.646.854.978 1.576 1.29 2.584.194.628.307 1.14-.701.997-.988-.139-2.014-.964-2.65-1.842zm-8.243-6.548c-1.831-2.084-1.676-4.936-3.472-6.96 1.62.749 3.407 1.904 5.148 3.22 1.135.859 2.252 1.898 2.65 2.948.13.344.167.739.117 1.102-.631-1-1.38-1.975-2.437-2.625-.563-.343-.498-.027-.118.388.724.79 1.126 1.477 1.53 2.451.253.606.414 1.106-.603 1.058-.997-.044-2.097-.768-2.815-1.582zm-8.333-5.475c-2.09-1.822-2.314-4.67-4.361-6.442 1.705.532 3.63 1.44 5.528 2.514 1.239.702 2.483 1.586 3.016 2.573.176.323.264.71.262 1.078-.758-.91-1.63-1.777-2.763-2.28-.604-.267-.495.038-.065.398.822.688 1.311 1.316 1.84 2.228.33.568.555 1.043-.459 1.13-.993.086-2.178-.484-2.998-1.199zm-9.246-3.84c-2.277-1.583-2.809-4.389-5.039-5.924 1.754.34 3.766 1.033 5.77 1.893 1.311.562 2.64 1.304 3.28 2.227.21.302.34.675.379 1.043-.855-.82-1.815-1.588-2.998-1.964-.627-.2-.487.092-.018.402.891.594 1.445 1.165 2.07 2.012.39.53.667.976-.331 1.174-.979.196-2.22-.242-3.113-.862zm-4.516-10.801c-2.692-.676-5.243-2.863-7.635-4.272 1.462.124 2.91.06 4.371.032 1.975-.019 3.753.024 5.473.72 1.33.537 1.914 1.118 1.918 1.288.007.458-1.805-.151-2.745-.258-.229-.024-1.272-.093-1.334.147-.037.144.828.277 1.043.336.946.266 1.814.549 2.715 1.1.114.069.19.139.208.216l-.216.076c-.653.225-1.336.504-2.025.744-.812.028-1.554-.074-1.773-.13zm6.91-.999c-2.272-1.591-2.792-4.4-5.015-5.945 1.754.347 3.762 1.048 5.761 1.917 1.307.567 2.636 1.315 3.271 2.241.209.303.338.678.375 1.043-.851-.823-1.809-1.595-2.99-1.975-.626-.203-.488.089-.02.403.889.596 1.44 1.17 2.063 2.02.388.532.663.98-.338 1.173-.978.19-2.219-.253-3.106-.877zm25.33 14.976c-2.607-.949-5.207.234-7.747-.702 1.29 1.237 3.016 2.481 4.873 3.622 1.214.746 2.59 1.407 3.712 1.395.367-.003.747-.11 1.07-.291-1.163-.225-2.344-.567-3.333-1.316-.525-.397-.205-.45.32-.25.996.388 1.784.51 2.838.534.657.013 1.181-.018.766-.949-.404-.91-1.477-1.672-2.5-2.045zm.223-1.052c-1.73-2.167-1.438-5.01-3.134-7.118 1.584.827 3.313 2.067 4.987 3.465 1.095.912 2.158 2.002 2.507 3.071.113.35.131.744.063 1.108-.583-1.03-1.283-2.042-2.308-2.74-.546-.369-.494-.051-.136.38.685.824 1.052 1.53 1.41 2.522.222.619.36 1.126-.653 1.03-.993-.092-2.058-.867-2.736-1.717zm6.974 6.654c-1.307-2.446-.502-5.187-1.789-7.57 1.407 1.1 2.883 2.634 4.275 4.312.91 1.097 1.757 2.363 1.907 3.478.048.363-.006.757-.138 1.1-.388-1.119-.892-2.241-1.772-3.114-.471-.462-.479-.14-.204.35.525.935.757 1.695.929 2.736.107.648.15 1.17-.83.894-.96-.272-1.865-1.228-2.378-2.186zm6.02 7.129c-1.018-2.58.095-5.211-.907-7.725 1.27 1.255 2.56 2.948 3.75 4.775.778 1.194 1.476 2.55 1.496 3.673a2.289 2.289 0 01-.264 1.077c-.257-1.156-.63-2.328-1.405-3.297-.411-.513-.458-.194-.24.325.412.99.556 1.772.608 2.824.03.657.014 1.181-.927.794-.923-.382-1.713-1.435-2.112-2.446zm-6.29-6.001c-2.392-1.403-5.163-.71-7.492-2.092 1.045 1.451 2.518 2.987 4.138 4.445 1.06.955 2.29 1.852 3.397 2.046a2.32 2.32 0 001.105-.093c-1.102-.433-2.204-.984-3.038-1.9-.445-.485-.122-.479.356-.186.914.562 1.664.824 2.695 1.038.646.133 1.167.197.929-.794-.235-.969-1.152-1.912-2.09-2.462zm-15.038-12.159c-2.68-.707-5.163.707-7.777.006 1.396 1.115 3.229 2.196 5.183 3.163 1.276.634 2.705 1.167 3.821 1.053.366-.037.735-.18 1.04-.388-1.178-.118-2.387-.35-3.437-1.006-.56-.35-.248-.432.293-.277 1.03.294 1.824.345 2.876.271.655-.046 1.174-.123.677-1.015-.485-.867-1.624-1.53-2.676-1.809zm-8.443-4.557c-2.706-.615-5.137.886-7.775.276 1.434 1.066 3.304 2.083 5.29 2.982 1.298.587 2.743 1.07 3.858.919.364-.05.727-.205 1.023-.425-1.182-.075-2.396-.267-3.47-.886-.573-.33-.263-.422.284-.288 1.04.259 1.835.283 2.883.172.654-.068 1.17-.166.642-1.036-.516-.852-1.676-1.474-2.735-1.716zm8.583 3.376c-1.932-1.99-1.92-4.848-3.812-6.782 1.656.67 3.498 1.735 5.3 2.964 1.178.802 2.342 1.785 2.793 2.814.147.335.203.729.171 1.096-.68-.97-1.476-1.907-2.565-2.501-.578-.316-.495-.004-.096.391.762.753 1.196 1.421 1.648 2.372.28.594.467 1.085-.55 1.09-.997.003-2.132-.665-2.889-1.444zm-8.419-4.375c-2.03-1.89-2.158-4.744-4.146-6.582 1.69.587 3.581 1.557 5.444 2.695 1.214.743 2.427 1.666 2.93 2.67.164.33.24.719.224 1.086-.727-.932-1.569-1.83-2.685-2.37-.595-.286-.497.022-.078.397.798.714 1.265 1.358 1.765 2.289.312.577.52 1.057-.495 1.113-.997.053-2.163-.558-2.959-1.298zm29.128 24.705c-2.248-1.624-5.072-1.2-7.26-2.796.901 1.543 2.22 3.212 3.696 4.817.963 1.053 2.104 2.064 3.188 2.361.352.098.749.098 1.107.011-1.056-.535-2.099-1.186-2.843-2.178-.396-.526-.075-.49.373-.151.855.646 1.577.978 2.585 1.288.627.194 1.14.309.996-.701-.138-.986-.961-2.012-1.842-2.65zm5.907 7.175c-2.315-1.528-5.119-.98-7.372-2.48.967 1.502 2.357 3.113 3.9 4.655 1.008 1.007 2.19 1.967 3.286 2.218.358.083.753.065 1.107-.037-1.078-.487-2.149-1.094-2.935-2.052-.419-.508-.096-.487.367-.166.88.607 1.617.908 2.64 1.176.633.166 1.15.258.964-.744-.181-.979-1.049-1.972-1.957-2.57zm5.565 7.243c-2.185-1.709-5.024-1.391-7.147-3.07.84 1.577 2.095 3.296 3.507 4.957.923 1.085 2.025 2.141 3.096 2.479.35.11.745.125 1.107.053-1.033-.574-2.052-1.266-2.76-2.285-.374-.54-.055-.493.381-.138.83.677 1.538 1.039 2.534 1.388.62.218 1.126.35 1.023-.665-.102-.989-.886-2.049-1.74-2.717zm-4.952-8.29c-1.07-2.56-.011-5.212-1.063-7.706 1.295 1.23 2.62 2.896 3.846 4.7.801 1.177 1.527 2.517 1.57 3.64a2.27 2.27 0 01-.242 1.083c-.28-1.152-.676-2.315-1.472-3.267-.422-.506-.461-.185-.232.329.432.98.59 1.759.664 2.81.045.656.037 1.182-.912.813-.928-.362-1.74-1.4-2.16-2.401zm5.427 7.445c-.997-2.592.14-5.213-.842-7.734 1.26 1.266 2.536 2.97 3.71 4.806.768 1.2 1.453 2.562 1.464 3.685.004.369-.1.751-.273 1.076-.246-1.16-.61-2.335-1.377-3.308-.406-.517-.454-.2-.242.321.404.993.54 1.776.583 2.83.026.657.004 1.181-.934.785-.917-.388-1.698-1.45-2.09-2.463zm-24.892 5.717c.08.02.159.04.238.057.654.136 1.268.015 1.754-.31-.032.82-.124 1.652-.16 2.43-.042.54-.027 1.13.054 1.727a8.063 8.063 0 00-1.205-.554c-.581-.227-1.209-.436-1.827-.67.727-.367 1.19-1.104 1.2-2.016a3.849 3.849 0 00-.054-.664zm-5.558-7.637l.17.017c.672.05 1.268-.153 1.707-.541.04.805.022 1.626.054 2.392.007.595.087 1.246.25 1.892a8.122 8.122 0 00-1.433-.48c-.565-.147-1.169-.276-1.769-.42.82-.436 1.27-1.31 1.14-2.313a3.889 3.889 0 00-.119-.547zm-6.617-7.278a1.693 1.693 0 00.166-.018c.668-.087 1.212-.41 1.563-.887.214.964.314 1.99.473 2.923.08.572.24 1.192.476 1.796a8.107 8.107 0 00-1.475-.268c-.572-.065-1.181-.105-1.787-.163.894-.555 1.268-1.587.92-2.647a3.95 3.95 0 00-.336-.736zm-7.65-5.117a1.316 1.316 0 00.148-.033c.616-.148 1.1-.493 1.403-.954.24.63.456 1.27.69 1.864.214.585.523 1.203.918 1.781a8.076 8.076 0 00-1.403.019c-.536.04-1.095.107-1.658.162.47-.63.57-1.465.214-2.274a3.845 3.845 0 00-.312-.565zm32.362 19.277c.07.026.14.048.212.068.86.247 1.686.028 2.247-.543-.048.646-.118 1.292-.153 1.903a8.227 8.227 0 00.092 2.1 8.13 8.13 0 00-1.475-.628c-.61-.207-1.274-.392-1.921-.606.572-.369.947-.998 1-1.774a3.777 3.777 0 000-.52zm-5.477-8.576c.06.015.119.03.178.04.886.185 1.696-.103 2.211-.723.046 1.067-.085 2.196-.12 3.23a8.188 8.188 0 00.098 1.84 8.126 8.126 0 00-1.453-.588c-.832-.27-1.753-.499-2.617-.813 1.054-.22 1.766-1.085 1.775-2.22a3.982 3.982 0 00-.073-.766z"/><path d="M149.591 40.185c.074.004.148.008.221.008.813 0 1.49-.36 1.894-.951.166 1.126.107 2.355.154 3.465.007.627.096 1.318.28 1.997a8.105 8.105 0 00-1.393-.462c-.89-.229-1.874-.408-2.791-.688l.046-.01c1.316-.282 2.052-1.42 1.785-2.713a3.882 3.882 0 00-.196-.646zm-7.93-6.828l.15-.01c1.08-.102 1.86-.822 2.04-1.819.492 1.155.697 2.534.996 3.74a8.27 8.27 0 00.66 1.864 8.124 8.124 0 00-1.542-.172c-1.104-.046-2.326.01-3.448-.153 1.196-.44 1.77-1.598 1.403-2.817a3.873 3.873 0 00-.259-.633zm-8.188-5.883a3.581 3.581 0 00.291-.053c.805-.185 1.39-.702 1.645-1.385.393.933.668 1.963.993 2.88.185.576.46 1.187.816 1.765a8.089 8.089 0 00-1.447-.022c-.709.036-1.462.114-2.21.153.68-.678.844-1.673.386-2.605a4.039 4.039 0 00-.474-.733zm-8.99-4.221c.078-.02.154-.044.23-.07 1.118-.392 1.714-1.412 1.51-2.54.625.96 1.088 2.106 1.596 3.1a8.122 8.122 0 001.31 1.954 8.172 8.172 0 00-1.792.23c-.877.19-1.813.466-2.737.628.683-.701.828-1.72.328-2.65a3.956 3.956 0 00-.445-.652zm26.659 6.294c.701.102 1.413.17 2.078.268.495.06 1.024.175 1.55.349a8.172 8.172 0 01-.505-2.223c-.096-.899-.133-1.882-.273-2.818-.357.694-1.056 1.146-1.931 1.187a2.5 2.5 0 01-.203.003c.103.213.194.434.258.661.301 1.052-.096 2.05-.976 2.575zm-7.353-9.081a5.62 5.62 0 00.309-.032c1.007-.147 1.727-.823 1.92-1.739.346.953.572 1.996.852 2.93.176.65.458 1.347.844 1.999a8.148 8.148 0 00-1.695-.078c-.742.026-1.534.1-2.316.122.635-.616.838-1.532.485-2.444a4.02 4.02 0 00-.399-.76zm-8.313-4.532a3.6 3.6 0 00.311-.046c1-.196 1.684-.907 1.828-1.83.31.739.572 1.514.862 2.217a8.2 8.2 0 001.117 2.022 8.155 8.155 0 00-1.787.072c-.69.085-1.42.22-2.149.313.399-.609.471-1.384.148-2.14a3.9 3.9 0 00-.33-.608zm22.346 20.338c.554-.46.85-1.17.773-1.984a3.99 3.99 0 00-.17-.81l.093.014c.87.12 1.644-.201 2.122-.823-.007.757-.055 1.517-.06 2.233-.024.69.046 1.464.234 2.22a8.126 8.126 0 00-1.608-.538c-.443-.11-.914-.209-1.384-.314zm9.07 8.15a8.151 8.151 0 00-1.86-.565c-.622-.126-1.289-.227-1.948-.351.646-.397 1.047-1.102 1.045-1.957a3.75 3.75 0 00-.063-.674l.1.028c.973.25 1.885-.085 2.418-.834 0 .67-.026 1.342-.018 1.975a8.159 8.159 0 00.326 2.377zm5.348 7.047a8.254 8.254 0 00-1.486-.55c-.465-.135-.956-.255-1.45-.384.57-.43.896-1.122.861-1.93a4 4 0 00-.094-.687c.066.02.137.038.203.055a2.27 2.27 0 001.864-.33c-.022.614-.059 1.225-.068 1.807a8.198 8.198 0 00.17 2.019zm-45.381-40.072c.135-.032.268-.07.397-.116.886-.318 1.44-1.03 1.523-1.872.443.847.797 1.777 1.187 2.608a8.19 8.19 0 001.048 1.754 8.089 8.089 0 00-1.685.136c-.74.12-1.525.296-2.308.416.584-.752.628-1.75.065-2.616a3.738 3.738 0 00-.227-.31zm40.216 95.517c.633-.59 1.268-1.176 1.88-1.789.392-.35.745-.698 1.053-1.034-.572.266-1.194.325-1.83.082l-.008-.004a1.74 1.74 0 01-.375-.24 2.645 2.645 0 01-.668-1.126c-.318.585-.73 1.01-1.132 1.216a1.739 1.739 0 01-.424.131h-.008a2.234 2.234 0 01-1.273-.245c.092.221.197.452.308.685.325.803.689 1.587 1.043 2.375.185.425.314.84.397 1.245a6.044 6.044 0 011.037-1.296zm3.714-11.744a2.374 2.374 0 01-.277-.027h-.005a1.752 1.752 0 01-.416-.16 2.65 2.65 0 01-.886-.963c-.19.637-.504 1.14-.856 1.423a1.735 1.735 0 01-.388.216l-.007.004c-.853.266-1.645.015-2.319-.526l.203.378c.377.78.789 1.54 1.191 2.304.212.412.367.82.474 1.218a6.018 6.018 0 01.955-1.358c.592-.628 1.192-1.254 1.763-1.901.2-.207.389-.407.566-.608zm-5.715 20.77c.683-.532 1.366-1.058 2.03-1.615.41-.308.782-.615 1.112-.912a2.289 2.289 0 01-1.828-.037h-.007a1.707 1.707 0 01-.356-.266 2.65 2.65 0 01-.598-1.164c-.353.56-.788.961-1.206 1.142a1.722 1.722 0 01-.432.105h-.007a2.23 2.23 0 01-1.139-.26c.052.155.11.314.168.475.255.826.545 1.642.83 2.456.148.44.24.864.285 1.274a6.091 6.091 0 011.148-1.198zm5.894-29.737a2.326 2.326 0 01-.391.011h-.008a1.752 1.752 0 01-.43-.114 2.653 2.653 0 01-.984-.864c-.121.653-.38 1.185-.701 1.506a1.754 1.754 0 01-.362.255l-.007.003a2.277 2.277 0 01-1.754.03l.107.125c.528.683 1.09 1.344 1.641 2.009.292.36.526.725.715 1.092a6.096 6.096 0 01.653-1.526c.45-.737.908-1.471 1.331-2.224l.19-.303zm-1.226-8.183c-.134.019-.273.02-.417.013h-.007a1.757 1.757 0 01-.43-.12 2.65 2.65 0 01-.977-.871c-.127.651-.39 1.181-.714 1.499a1.719 1.719 0 01-.364.253l-.007.003a2.252 2.252 0 01-.873.185c.515.524 1.045 1.032 1.57 1.543.33.327.602.665.828 1.012.08-.51.238-1.043.487-1.588.305-.64.613-1.28.904-1.927zm-4.273 24.95c.955-.174 1.233-1.52 1.274-2.4.055-1.163-.347-2.072-.925-3.152-.635-1.188-1.384-2.423-1.81-4.073-.687 1.882-1.315 3.494-1.236 5.5.034.813.227 1.983.814 3.131-.097-1.412.115-3.166.34-3.11.375.09.279 4.334 1.543 4.103zm3.114.088c-.871-.423-.78-1.795-.585-2.655.259-1.133.89-1.901 1.735-2.787.929-.975 1.98-1.966 2.836-3.44.155 1.998.33 3.719-.283 5.63a7.69 7.69 0 01-1.624 2.8c.474-1.335.738-3.083.507-3.09-.385-.012-1.428 4.103-2.584 3.544zm-4.821 8.95c.963-.114 1.325-1.44 1.421-2.316.128-1.158-.218-2.088-.727-3.203-.558-1.226-1.228-2.505-1.55-4.179-.804 1.839-1.53 3.406-1.577 5.414a7.695 7.695 0 00.616 3.175c-.01-1.416.314-3.153.536-3.083.365.113.005 4.342 1.28 4.19zm3.103.283c-.844-.476-.667-1.839-.417-2.686.328-1.115 1.006-1.842 1.905-2.673.989-.915 2.1-1.838 3.045-3.258.03 2.005.096 3.733-.635 5.602a7.724 7.724 0 01-1.794 2.694c.556-1.304.929-3.03.698-3.052-.384-.037-1.682 4.006-2.802 3.373z"/><path d="M167.616 94.526c.897-.37.893-1.743.751-2.614-.188-1.148-.768-1.953-1.558-2.89-.865-1.03-1.853-2.086-2.612-3.613-.28 1.986-.563 3.692-.07 5.638.198.79.63 1.893 1.442 2.896-.388-1.363-.54-3.122-.31-3.114.386.01 1.168 4.182 2.357 3.697zm3.066-.557c-.941-.235-1.135-1.595-1.12-2.476.018-1.163.476-2.045 1.12-3.086.709-1.145 1.532-2.333 2.062-3.954.567 1.925 1.093 3.572.888 5.569a7.69 7.69 0 01-1.008 3.073c.186-1.402.083-3.167-.144-3.126-.38.068-.55 4.308-1.798 4zm-9.357 26.754c.97-.03 1.447-1.318 1.62-2.182.228-1.143-.032-2.1-.442-3.254-.449-1.27-1.002-2.605-1.176-4.301-.962 1.76-1.825 3.258-2.049 5.253-.09.81-.074 1.994.336 3.217.115-1.41.589-3.112.803-3.023.356.146-.376 4.327.908 4.29zm3.066.555c-.799-.55-.504-1.892-.18-2.713.428-1.082 1.166-1.744 2.135-2.494 1.063-.825 2.252-1.646 3.319-2.977-.148 2-.233 3.728-1.126 5.524a7.66 7.66 0 01-2.025 2.524c.67-1.248 1.192-2.935.965-2.978-.38-.07-2.03 3.84-3.088 3.114zm3.24-35.372c.853-.462.703-1.828.47-2.677-.306-1.124-.969-1.864-1.853-2.713-.969-.932-2.062-1.877-2.977-3.315-.072 2.004-.172 3.728.522 5.613a7.708 7.708 0 001.74 2.728c-.529-1.314-.867-3.047-.636-3.064.384-.03 1.602 4.037 2.734 3.428zm2.99-.877c-.96-.133-1.298-1.466-1.377-2.344-.103-1.16.258-2.084.79-3.188.583-1.213 1.277-2.481 1.636-4.148.764 1.853 1.461 3.435 1.467 5.444a7.679 7.679 0 01-.68 3.163c.04-1.415-.248-3.158-.47-3.095-.37.107-.092 4.343-1.366 4.168zm-4.24-7.332c.858-.452.72-1.82.495-2.67-.297-1.127-.955-1.873-1.83-2.73-.961-.94-2.047-1.897-2.95-3.34-.088 2.003-.202 3.729.475 5.617a7.71 7.71 0 001.717 2.741c-.519-1.316-.842-3.053-.61-3.07.383-.026 1.566 4.052 2.703 3.452zm2.998-.849c-.96-.142-1.285-1.477-1.355-2.357-.092-1.16.277-2.08.818-3.18.592-1.208 1.297-2.47 1.668-4.135.752 1.862 1.435 3.45 1.422 5.458a7.686 7.686 0 01-.705 3.156c.05-1.415-.222-3.16-.447-3.097-.37.103-.13 4.341-1.401 4.153zm-13.818 24.554a6.333 6.333 0 00-.309-.838c-.341-.733-.688-1.464-1.006-2.208a2.273 2.273 0 001.67.292l.008-.002a1.754 1.754 0 00.406-.179 2.049 2.049 0 00.41-.364c.236.416.522.735.818.921.068.037.138.074.21.104-.487.485-.99.96-1.488 1.434a6.22 6.22 0 00-.72.84zm.03-10.815c.33.037.671 0 1.02-.126l.007-.003a1.693 1.693 0 00.377-.233c.103-.092.203-.203.295-.332.074.06.15.11.225.155a1.744 1.744 0 00.418.153h.007c.292.044.57.031.83-.028a18.053 18.053 0 01-.263.4c-.447.737-.925 1.46-1.4 2.183l-.055.088a6.416 6.416 0 00-.38-.653c-.362-.534-.727-1.065-1.082-1.604zm-3.851 27.031c.738-.449 1.48-.892 2.204-1.368.51-.295.97-.596 1.373-.893a2.245 2.245 0 01-1.51-.17l-.007-.004a1.735 1.735 0 01-.351-.271 2.553 2.553 0 01-.535-1.049c-.45.789-1.062 1.324-1.608 1.507a1.726 1.726 0 01-.44.068h-.007a2.235 2.235 0 01-1.015-.295c.146.747.314 1.491.48 2.233.096.454.136.886.136 1.298a6.091 6.091 0 011.278-1.056zm1.502-8.227c-.286-.816-.581-1.628-.838-2.455a17.032 17.032 0 01-.146-.404c.355.197.757.3 1.206.282h.007a1.82 1.82 0 00.43-.11 2.584 2.584 0 00.905-.745c.129.336.3.615.494.813a1.772 1.772 0 00.362.258l.007.004c.222.1.443.158.665.184-.554.519-1.122 1.02-1.687 1.523-.51.463-.897.96-1.185 1.468a6.378 6.378 0 00-.218-.818zm-2.302 4.864c.97-.032 1.444-1.322 1.614-2.188.225-1.142-.04-2.098-.453-3.252-.452-1.268-1.01-2.6-1.19-4.295-.956 1.762-1.815 3.263-2.03 5.26a7.69 7.69 0 00.343 3.216c.11-1.412.58-3.116.793-3.027.358.144-.361 4.326.923 4.286zm2.49-8.628c.96-.125 1.31-1.454 1.394-2.333.115-1.157-.24-2.086-.764-3.193-.572-1.219-1.255-2.492-1.599-4.161-.78 1.846-1.491 3.422-1.513 5.43a7.701 7.701 0 00.651 3.17c-.026-1.416.277-3.157.499-3.09.369.11.055 4.341 1.332 4.177zm2.262-8.144c.928-.28 1.057-1.648 1-2.529-.076-1.16-.576-2.017-1.27-3.027-.762-1.11-1.643-2.256-2.252-3.849-.472 1.95-.917 3.618-.615 5.604a7.67 7.67 0 001.156 3.022c-.255-1.392-.238-3.158-.007-3.13.382.05.756 4.276 1.99 3.907zm2.488.546c-.932-.263-1.086-1.63-1.045-2.51.055-1.163.54-2.03 1.217-3.051.742-1.122 1.602-2.284 2.181-3.888.508 1.94.982 3.604.717 5.593a7.688 7.688 0 01-1.102 3.042c.23-1.397.18-3.163-.048-3.13-.383.055-.683 4.29-1.92 3.943zm-2.047 7.914c-.85-.467-.69-1.833-.45-2.682.317-1.119.985-1.854 1.875-2.695.978-.927 2.078-1.863 3.007-3.291.055 2.004.14 3.73-.57 5.607a7.694 7.694 0 01-1.763 2.714c.54-1.309.893-3.04.662-3.059-.384-.033-1.635 4.024-2.761 3.406zm-1.824 8.168c-.834-.497-.626-1.853-.356-2.695.356-1.108 1.05-1.817 1.97-2.627 1.007-.891 2.14-1.79 3.119-3.186-.019 2.007.011 3.734-.766 5.586a7.701 7.701 0 01-1.857 2.65c.587-1.29.999-3.008.77-3.034-.382-.046-1.776 3.965-2.88 3.306zm3.993-25.252c-.944-.221-1.154-1.582-1.15-2.462.005-1.163.452-2.05 1.083-3.101.694-1.154 1.505-2.35 2.014-3.976.59 1.918 1.135 3.557.954 5.556a7.688 7.688 0 01-.97 3.086c.17-1.405.046-3.167-.181-3.125-.379.074-.499 4.316-1.75 4.022zm-2.204.314c.88-.406.814-1.78.633-2.643-.238-1.14-.855-1.918-1.684-2.819-.91-.991-1.943-2.003-2.77-3.492-.194 1.995-.399 3.712.179 5.635a7.693 7.693 0 001.57 2.828c-.448-1.344-.68-3.094-.448-3.097.386-.006 1.353 4.127 2.52 3.588zm-8.64 32.757c.966.085 1.59-1.139 1.863-1.977.36-1.108.213-2.09-.059-3.284-.297-1.312-.692-2.704-.668-4.408-1.159 1.636-2.19 3.024-2.645 4.979a7.702 7.702 0 00-.044 3.235c.277-1.388.949-3.023 1.152-2.91.336.186-.879 4.252.4 4.365zm2.98.91c-.729-.639-.278-1.938.137-2.713.55-1.027 1.362-1.599 2.41-2.23 1.154-.694 2.432-1.372 3.644-2.57-.378 1.97-.664 3.674-1.76 5.355a7.655 7.655 0 01-2.306 2.27c.81-1.162 1.526-2.776 1.305-2.844-.37-.114-2.463 3.577-3.43 2.732zm29.34-13.45a2.317 2.317 0 01-.516-.158l-.006-.004a1.707 1.707 0 01-.362-.256 2.647 2.647 0 01-.616-1.156c-.344.569-.775.977-1.187 1.163a1.735 1.735 0 01-.43.111l-.008.004a2.248 2.248 0 01-.899-.135c.246.664.51 1.323.772 1.98.164.434.271.855.334 1.261a6.091 6.091 0 011.098-1.242c.61-.517 1.224-1.032 1.82-1.567zm3.024-9.588c-.498.252-1.05.34-1.643.182l-.007-.002a1.726 1.726 0 01-.397-.199 2.649 2.649 0 01-.786-1.047c-.251.613-.615 1.082-.995 1.33a1.733 1.733 0 01-.406.177h-.008a2.235 2.235 0 01-1.43-.166l.193.4c.342.796.717 1.575 1.084 2.357.194.421.329.835.417 1.237a6.091 6.091 0 011.015-1.31c.622-.602 1.25-1.2 1.85-1.822a15.468 15.468 0 001.113-1.137zm-.54-8.344a2.289 2.289 0 01-.61-.055h-.007a1.735 1.735 0 01-.406-.185 2.647 2.647 0 01-.826-1.015c-.228.624-.572 1.106-.94 1.368a1.748 1.748 0 01-.403.192l-.008.003a2.234 2.234 0 01-1.063.01c.43.683.886 1.347 1.338 2.015.255.388.453.776.602 1.158a6.091 6.091 0 01.801-1.451c.513-.674 1.032-1.348 1.52-2.04zm.584-9.23a2.289 2.289 0 01-.633.088h-.007a1.748 1.748 0 01-.434-.09 2.65 2.65 0 01-1.032-.806c-.085.66-.314 1.206-.614 1.543a1.7 1.7 0 01-.347.277l-.006.004a2.246 2.246 0 01-1.527.188c.436.628.892 1.24 1.344 1.855.27.375.48.757.646 1.134.165-.49.406-.988.744-1.483.495-.708.997-1.413 1.466-2.14.142-.193.275-.383.4-.571zm-1.49-9.164a2.237 2.237 0 01-.9.306h-.007a1.735 1.735 0 01-.443-.035 2.2 2.2 0 01-.648-.3c-.048.522-.198.967-.414 1.273a1.768 1.768 0 01-.314.318l-.005.003c-.61.403-1.278.46-1.936.285l.212.179c.633.59 1.292 1.151 1.943 1.716.348.309.64.632.883.962a6.091 6.091 0 01.397-1.61c.326-.799.659-1.598.954-2.41a18.09 18.09 0 00.279-.687zm-6.95 42.823c.966-.069 1.39-1.374 1.531-2.245.181-1.15-.12-2.097-.574-3.234-.498-1.252-1.107-2.562-1.347-4.25-.892 1.799-1.693 3.329-1.837 5.332a7.704 7.704 0 00.463 3.202c.06-1.416.464-3.134.683-3.055.36.131-.203 4.338 1.08 4.25zm3.084.431c-.82-.516-.578-1.87-.288-2.702.382-1.098 1.092-1.79 2.03-2.579 1.034-.867 2.187-1.735 3.199-3.108-.066 2.005-.083 3.734-.904 5.565a7.676 7.676 0 01-1.92 2.603c.618-1.274 1.072-2.98.843-3.013-.382-.055-1.871 3.92-2.96 3.234zm-.875-8.411c.96-.13 1.3-1.462 1.38-2.339.107-1.16-.252-2.086-.78-3.19-.578-1.216-1.269-2.486-1.621-4.153-.772 1.852-1.473 3.432-1.484 5.438a7.69 7.69 0 00.668 3.166c-.033-1.416.258-3.157.482-3.092.369.107.08 4.341 1.355 4.172zm3.106.23c-.853-.461-.7-1.827-.463-2.676.31-1.122.975-1.859 1.86-2.706.973-.93 2.068-1.874 2.99-3.308.064 2.005.16 3.729-.542 5.612a7.658 7.658 0 01-1.748 2.722c.536-1.31.879-3.045.646-3.064-.384-.03-1.613 4.033-2.743 3.42zm-1.38-9.06c.928-.274 1.06-1.642 1.007-2.522-.072-1.163-.568-2.022-1.258-3.033-.757-1.113-1.634-2.261-2.238-3.856-.48 1.947-.93 3.616-.637 5.602.12.805.438 1.946 1.145 3.025-.25-1.393-.225-3.16.005-3.13.383.052.743 4.28 1.976 3.915zm3.104-.245c-.912-.326-.969-1.698-.867-2.575.136-1.157.68-1.986 1.427-2.959.817-1.068 1.757-2.167 2.447-3.724.37 1.97.73 3.662.323 5.628a7.69 7.69 0 01-1.31 2.957c.326-1.377.4-3.142.17-3.125-.384.03-.979 4.23-2.19 3.798zm-2.647-8.223c.918-.312.997-1.683.909-2.56-.117-1.16-.647-1.997-1.378-2.981-.8-1.084-1.72-2.197-2.384-3.766-.403 1.964-.79 3.65-.418 5.623a7.7 7.7 0 001.263 2.977c-.305-1.384-.35-3.149-.118-3.127.384.035.908 4.246 2.126 3.834zm3.024-.436c-.923-.29-1.034-1.66-.965-2.54.09-1.16.601-2.012 1.308-3.01.776-1.1 1.67-2.234 2.3-3.821.447 1.957.871 3.633.545 5.613a7.695 7.695 0 01-1.196 3.007c.273-1.39.278-3.156.048-3.13-.383.044-.813 4.267-2.038 3.881zm-2.566-7.998c.825-.507.598-1.864.318-2.698-.371-1.104-1.075-1.804-2.005-2.603-1.02-.877-2.167-1.757-3.162-3.142.042 2.007.04 3.734.842 5.575a7.697 7.697 0 001.892 2.625c-.604-1.281-1.04-2.993-.81-3.024.382-.05 1.829 3.94 2.925 3.267zm2.935-1.045c-.967-.077-1.379-1.39-1.508-2.26-.168-1.154.14-2.096.61-3.23.51-1.243 1.132-2.548 1.393-4.234.871 1.81 1.656 3.347 1.776 5.353a7.642 7.642 0 01-.499 3.196c-.04-1.416-.428-3.138-.646-3.063-.364.13.155 4.342-1.126 4.238zm-4.203-7.501c.76-.6.377-1.92 0-2.717-.498-1.052-1.277-1.665-2.294-2.35-1.117-.751-2.358-1.493-3.508-2.75.277 1.986.477 3.702 1.486 5.437a7.69 7.69 0 002.188 2.385c-.75-1.2-1.385-2.85-1.16-2.907.375-.096 2.278 3.697 3.286 2.902zm2.306-1.433c-.968.035-1.533-1.218-1.76-2.07-.304-1.125-.107-2.098.226-3.277.363-1.296.828-2.664.89-4.367 1.075 1.692 2.035 3.13 2.39 5.105a7.688 7.688 0 01-.12 3.234c-.209-1.403-.794-3.068-1.003-2.966-.345.17.661 4.293-.623 4.341z"/></g><path d="M57.286 69.824c-3.339 1.9-7.566.971-9.44-2.07l-.018-.03c-2.904.723-6.003-.35-7.533-2.835-1.876-3.042-.687-7.05 2.652-8.947l8.573-4.874c3.34-1.897 7.568-.97 9.441 2.073 1.532 2.483 1.02 5.612-1.039 7.709l.019.027c1.873 3.042.684 7.05-2.655 8.947z" fill="#fff"/><path d="M57.286 69.824c-3.339 1.9-7.566.971-9.44-2.07l-.018-.03c-2.904.723-6.003-.35-7.533-2.835-1.529-2.48-1.02-5.6 1.028-7.698-.736 1.558-.884 3.487-.393 5.348.8 3.029 4.655 5.512 7.153 4.101 1.26 3.144 5.696 3.046 8.232 1.606 2.537-1.441 4.759-5.13 2.498-7.704 2.488-1.426 2.08-5.867-.301-7.999-1.462-1.308-3.291-2.111-5.067-2.242 2.898-.715 5.99.36 7.516 2.839 1.532 2.484 1.02 5.611-1.039 7.71l.019.027c1.873 3.042.684 7.05-2.655 8.947z" fill="#a1a3a5"/><path d="M64.13 6.507c-2.973.406-5.129 3.066-4.81 5.938l.004.026c-2.14.953-3.527 3.157-3.267 5.5.317 2.873 2.99 4.87 5.964 4.462l7.638-1.044c2.976-.408 5.132-3.068 4.812-5.939-.26-2.344-2.09-4.109-4.373-4.454l-.001-.026c-.32-2.872-2.99-4.87-5.966-4.463z" fill="#fff"/><path d="M64.13 6.507c-2.973.406-5.129 3.066-4.81 5.938l.004.026c-2.14.953-3.527 3.157-3.267 5.5.258 2.341 2.082 4.102 4.36 4.451-1.21-.644-2.234-1.812-2.832-3.249-.974-2.338.2-5.816 2.418-6.128-.744-2.64 2.035-4.738 4.294-5.048 2.26-.31 5.414.978 5.268 3.74 2.222-.298 4.122 2.759 3.686 5.292-.266 1.554-1.004 2.964-2.034 3.913 2.13-.953 3.515-3.153 3.254-5.492-.26-2.344-2.09-4.109-4.373-4.454l-.001-.026c-.32-2.872-2.99-4.87-5.966-4.463z" fill="#a1a3a5"/><path d="M69.094 54.967c3.304-.949 5.294-4.163 4.449-7.177l-.01-.028c2.264-1.384 3.465-3.98 2.773-6.442-.845-3.014-4.21-4.688-7.513-3.738l-4.395-.125-4.08 2.562c-3.305.949-5.295 4.162-4.45 7.177.693 2.46 3.065 4.027 5.708 4.005l.007.026c.846 3.015 4.21 4.689 7.513 3.74z" fill="#fff"/><path d="M69.094 54.967c3.304-.949 5.294-4.163 4.449-7.177l-.01-.028c2.264-1.384 3.465-3.98 2.773-6.442-.69-2.455-3.053-4.024-5.693-4.003 1.477.48 2.836 1.55 3.757 2.983 1.5 2.33.758 6.252-1.704 6.968 1.29 2.69-1.502 5.414-4.011 6.135-2.507.72-6.298-.11-6.599-3.086-2.468.702-5.135-2.237-5.073-5.02.041-1.706.637-3.342 1.645-4.534-2.252 1.388-3.448 3.976-2.758 6.433.69 2.46 3.06 4.027 5.704 4.005l.01.026c.845 3.015 4.21 4.689 7.512 3.74z" fill="#a1a3a5"/><path d="M34.499 29.27c.4 3.25 3.127 5.6 6.09 5.254l.027-.004c.965 2.335 3.227 3.852 5.647 3.568 2.96-.347 5.039-3.261 4.636-6.51l-1.028-8.338c-.4-3.249-3.128-5.6-6.09-5.253-2.417.282-4.245 2.28-4.618 4.771l-.027.002c-2.961.347-5.038 3.264-4.637 6.51z" fill="#fff"/><path d="M34.499 29.27c.4 3.25 3.127 5.6 6.09 5.254l.027-.004c.965 2.335 3.227 3.852 5.647 3.568 2.414-.282 4.24-2.272 4.614-4.758-.672 1.32-1.882 2.436-3.367 3.09-2.418 1.063-5.993-.218-6.3-2.644-2.722.812-4.87-2.22-5.174-4.686-.304-2.467 1.043-5.91 3.888-5.749-.294-2.427 2.87-4.498 5.477-4.024 1.6.292 3.049 1.099 4.022 2.223-.971-2.326-3.227-3.836-5.641-3.553-2.418.282-4.246 2.28-4.619 4.771l-.027.002c-2.961.347-5.038 3.264-4.637 6.51z" fill="#a1a3a5"/><path d="M18.412 52.217c2.313 2.69 6.19 3.174 8.653 1.083l.023-.018c2.276 1.524 5.229 1.535 7.243-.174 2.464-2.093 2.588-5.973.273-8.664l-5.94-6.91c-2.313-2.69-6.19-3.174-8.653-1.083-2.013 1.71-2.465 4.61-1.302 7.083l-.022.018c-2.466 2.093-2.588 5.973-.275 8.665z" fill="#fff"/><path d="M18.412 52.217c2.313 2.69 6.19 3.174 8.653 1.083l.023-.018c2.276 1.524 5.229 1.535 7.243-.174 2.008-1.705 2.46-4.6 1.307-7.07.184 1.595-.237 3.33-1.183 4.813-1.544 2.412-5.542 3.405-7.277 1.4-1.97 2.37-5.731.924-7.487-1.122-1.757-2.043-2.61-5.962.056-7.525-1.723-2.014-.113-5.785 2.527-6.922 1.618-.702 3.41-.844 4.965-.412-2.274-1.517-5.218-1.525-7.228.18-2.013 1.71-2.463 4.612-1.302 7.084l-.022.018c-2.466 2.093-2.588 5.973-.275 8.665z" fill="#a1a3a5"/><path d="M35.339 32.407c-3.376-3.317-6.601-5.37-8.59-2.729-2.177 2.895.621 5.28 6.063 6.856 2.091-.779 2.935-2.156 2.529-4.127z" fill="#fff"/><path d="M35.339 32.407c-3.376-3.317-6.601-5.37-8.59-2.729-2.177 2.895.621 5.28 6.063 6.856a6.516 6.516 0 00.194-.076c-4.43-1.325-6.679-3.308-4.874-5.703 1.675-2.225 4.39-.495 7.23 2.296.034.159.056.314.07.465a4.356 4.356 0 00-.091-1.11z" fill="#a1a3a5"/><path d="M79.145 14.276c2.544-1.347 5.876-1.827 6.22.979 3.833.136 2.282 4.179.957 5.37-1.344 1.144-2.562 1.96-4.449 2.454-1.908.298-4.736-.43-5.646-2.372-.71-3.016.376-4.581 2.916-6.43z" fill="#fff"/><path d="M79.145 14.276c2.544-1.347 5.876-1.827 6.22.979 3.833.136 2.282 4.179.957 5.37-1.344 1.144-2.562 1.96-4.449 2.454a5.927 5.927 0 01-1.203.056c1.65-.674 3.7-1.674 4.578-2.448 1.02-.899 2.676-4.256-.576-4.61-.2-2.388-4.07-2.183-6.538-1.009.304-.262.642-.524 1.011-.792z" fill="#a1a3a5"/><path d="M7.233 102.349c1.782-4.174 6.118-6.326 9.68-4.805l.033.015c2.127-2.758 5.55-3.965 8.462-2.723 3.562 1.521 5.006 6.14 3.225 10.313l-4.576 10.717c-1.782 4.174-6.116 6.324-9.678 4.803-2.911-1.24-4.406-4.55-3.888-7.992l-.033-.015c-3.562-1.521-5.006-6.14-3.225-10.313z" fill="#fff"/><path d="M7.233 102.349c1.782-4.174 6.118-6.326 9.68-4.805l.033.015c2.127-2.758 5.55-3.965 8.462-2.723 2.903 1.24 4.4 4.54 3.89 7.976-.32-1.993-1.393-3.911-2.99-5.31-2.598-2.28-7.573-1.856-8.913 1.258-3.083-2.056-6.96 1.21-8.314 4.379-1.353 3.17-1.026 8.227 2.59 9.032-1.324 3.12 1.81 7.007 5.255 7.31 2.115.184 4.242-.37 5.901-1.518-2.13 2.747-5.545 3.947-8.448 2.706-2.911-1.242-4.406-4.55-3.888-7.992l-.033-.015c-3.562-1.521-5.006-6.14-3.225-10.313z" fill="#a1a3a5"/><path d="M37.377 85.87c4.535.132 8.121 3.379 8.01 7.251l-.001.037c3.345.973 5.722 3.718 5.63 6.88-.113 3.872-3.884 6.905-8.42 6.774l-11.647-.34c-4.537-.13-8.124-3.377-8.01-7.25.091-3.162 2.62-5.765 6.017-6.542v-.037c.114-3.87 3.883-6.903 8.42-6.774z" fill="#fff"/><path d="M37.377 85.87c4.535.132 8.121 3.379 8.01 7.251l-.001.037c3.345.973 5.722 3.718 5.63 6.88-.093 3.156-2.616 5.755-6.003 6.536 1.739-1.024 3.132-2.724 3.85-4.722 1.17-3.254-1.042-7.728-4.43-7.835.785-3.62-3.673-6.036-7.116-6.138-3.446-.1-8.035 2.054-7.46 5.713-3.388-.089-5.86 4.25-4.88 7.566.6 2.036 1.895 3.812 3.569 4.938-3.334-.978-5.7-3.72-5.608-6.874.092-3.162 2.621-5.765 6.018-6.542v-.037c.114-3.87 3.883-6.903 8.42-6.774z" fill="#a1a3a5"/><path d="M12.164 76.42c4.852-1.403 9.759.821 10.955 4.965l.011.037c3.876-.105 7.326 1.997 8.303 5.38 1.196 4.145-1.77 8.64-6.623 10.042-5.058 1.459-7.402 2.138-12.46 3.598-4.855 1.401-9.76-.823-10.955-4.965-.979-3.384.821-7.002 4.157-8.979l-.011-.037c-1.196-4.144 1.768-8.638 6.623-10.041z" fill="#fff"/><path d="M12.164 76.42c4.852-1.403 9.759.821 10.955 4.965l.011.037c3.876-.105 7.326 1.997 8.303 5.38.974 3.379-.816 6.991-4.14 8.97 1.495-1.68 2.394-3.954 2.477-6.315.134-3.847-3.733-7.836-7.36-6.8-.397-4.105-5.944-5.15-9.628-4.087-3.684 1.063-7.817 4.905-5.966 8.59-3.621 1.057-4.766 6.493-2.603 9.675 1.33 1.955 3.305 3.398 5.46 4.024-3.865.094-7.304-2.006-8.278-5.382-.979-3.384.821-7.002 4.157-8.979l-.011-.037c-1.196-4.144 1.768-8.638 6.623-10.041z" fill="#a1a3a5"/><path d="M42.388 115.613c.124-2.599 1.33-4.91 5.739-7.398 1.242-.701 2.584-.85 3.895-.685 2.658.336 2.226.991 1.19 2.933-1.978 3.709-4.485 4.35-6.859 3.4-2.237-.897-2.455.567-2.529 1.724l-1.436.026zM21.914 98.917c-.22 2.965.71 5.099 2.497 6.406.731 1.803.882 3.438 2.832 4.472.55.292 1.19.5 1.942.642l2.955 5.354 1.55-.026-2.573-5.113c.548.025 1.14.037 1.78.027 1.707-.018 2.38.046 2.905 1.828.288.974.404 2.148.476 3.212l1.695-.028c-.069-.897-.172-2.05-.08-3.059.155-1.692.266-1.213 1.477-1.209l.14 4.24 1.608-.028-.144-4.385c3.963-.41 6.55-2.455 6.104-7.028-1.615 2.265-6.91.418-8.5 3.268 1.108-5.307-1.25-6.162-1.76-8.946-2.225 1.737-4.073 3.938-4.064 7.266-1.952-1.859-5.703-1.499-8.8-2.245-1.003-1.275-1.435-2.88-1.274-4.751 3.169-.517 5.367-1.994 6.226-4.08-2.03.53-4.072-.516-5.695-.132-1.432.336-2.55 1.013-3.09 2.436.257-1.715-.042-3.182-.642-4.69-.6-1.51-1.403-1.708-2.463-3.888-1.382 2.967-2.45 3.17-2.547 4.724-.092 1.552.593 3.009 2.193 4.796a7.171 7.171 0 00-3.577-.827c-2.544.051-2.819 2.634-5.977 3.605 1.753.88 3.273 1.624 4.818 1.59 1.478-.03 2.95-.46 4.411-1.505 1.015-.728 1.527-.837 2.2-.283 1.749 1.436 2.74 3.747 3.927 5.637 2.09 3.329 4.435 6.487 6.49 9.65l1.587-.027a242.7 242.7 0 01-6.19-8.773c-1.531-2.29-3.028-4.416-3.587-5.963-.502-1.384-.167-2.023 1.15-2.167zm-6.492 7.08c1.772-.626 4.494-.64 6.737.243 1.81 2.907 3.84 5.619 5.852 8.657-1.629.742-4.33 1.335-6.332-.068.29-.48.751-1.231 1.041-1.713-4.568.367-4.605-6.038-7.298-7.12zM51.49 60.603c-.476-2.313.954-6.826-1.45-9.026 2.836 1.31 3.63-1.222 6.977-1.263-2.365-1.692-7.277-3.98-10.212-.963-1.44-1.248-2.732-1.708-4.481.382-2.647 3.166-5.108 7.143-7.624 11.204l1.028.687c2.378-4.271 4.775-8.436 7.218-11.066 1.246-1.338 2.01-1.176 2.737-.2-2.743.362-4.917 3.517-5.874 6.332-.504 1.488-.858 1.827-1.574 2.865 1.02-.613 1.514-.864 2.63-1.11 1.822-.402 3.886-.568 4.534-2.528 1.449 3.12 4.129 2.641 6.091 4.688zm-20.982-2.458c3.692-4.087 7.144-8.106 8.022-12.226 1.069-5.011-1.656-5.192-3.741-5.183 4.793 1.541 1.764 5.74 2.113 7.799-.567-1.994-2.953-2.08-3.655-4.5-1.414 1.748-3.706 1.153-5.039 3.36-.092-2.803.517-5.044 3.08-6.674-3.935-1.196-4.378-3.523-4.67-6.004 1.208 1.934 7.37 2.095 7.467 5.043 3.168-.421 5.988-.069 5.942 4.764-.046 4.864-4.54 9.803-7.863 14.724l-1.656-1.103z" fill="#00a650"/><path d="M43.348 43.022c.96-4.899 5.862-1.47 11.326-9.174.416-.32.816-1.329 1.41-2.381-.489-2.544-2.942-2.409-2.643.415.117 4.015-2.71 4.536-4.947 5.756 3.068-2.732.855-4.624 1.93-7.323-3.394 2.852-6.279.3-8.972-.155 2.345-2.268 5.29-4.5 9.036-3.27C48.14 23.761 47.4 20.64 49.336 18c.415 3.544 4.783 5.15 3.838 9.215 1.821-.124 3.442.17 4.068 2.625.963-1.015 1.148-2.374.148-3.66-1.278-1.643-3.146-.743-4.198-3.46-.997-2.566-.554-5.063 1.144-7.298-.35 3.468 5.165 5.251 4.755 13.272.054-.015.108-.028.163-.04 1.78-2.91 5.879-5.256 5.851-6.506-.96-.751-4.064 3.749-6.673-.508 1.957.329 2.919-2.18 5.649-.483-1.93-2.536 1.993-3.932 2.082-6.254 1.316 1.783 1.885 3.635 1.285 5.327 1.56-.585 2.682.467 5.35.039-1.989 2.61-4.173 2.787-6.221 2.075-.438 2.006-3.801 3.96-5.162 6.442l.04.013c4.79-3.607 6.624-4.685 11.966-7.496-.61-3.162.506-5.606 2.678-6.55 1.254-.542 2.764-.419 4.366-1.282-.23 2.204-2.518 2.418-2.887 3.876 1.953.07 2.996-.06 4.519.33-.61 1.392-1.774 2.45-3.43 3.362 1.846.243 3.365 1.015 4.406 2.602-1.5-.306-2.992-.136-4.47.886-1.071.541-2.013.403-2.788.122-1.325-.48-1.84-1.262-2.167-2.39-6.041 2.916-13.467 8.1-18.014 13.257l.16.118c3.59-3.82 8.412-7.537 12.53-9.503 2.182-1.042 5.605-2.165 7.62.069 1.636 1.809 2.457 5.938 6.963 5.79-.659 2.13-2.145 2.675-4.006 2.5-.02 2.388-.461 4.472-1.827 5.888-1.239-1.36-1.912-3.072-2.33-4.943l-1.166 1.015c.137-1.08-.34-1.857-.836-2.88-.912-1.871-1.824-3.896.73-5.56a.882.882 0 00.326-.42c-.986-1.025-2.123-.971-3.794-.25a26.132 26.132 0 00-3.666 1.802c.325-.06.663-.122 1.03-.183 2.173-.498 3.668.669 4.08 2.245.341 1.312.814 2.5 1.668 3.697-2.995-.336-7.14-.511-6.165-3.442.545-1.377-.467-1.392-1.7-1.211-1.329.194-2.196 1.067-3.22 1.907 1.249.073 2.362.647 3.049 2.763 5.594-1.095 6.76 2.497 8.834 2.898-1.824 1.2-4.792 1.292-7.66.01.542 2.69-2.252 6.54-.586 9.415-2.684-.73-3.691-3.832-4.707-6.486-1.406 1.548-3.082 2.386-5.242 3.054 2.784-2.491.653-8.057 6.509-8.156.059-.647 0-1.224-.554-1.503-1.737-.87-2.874 1.218-3.936 2.27-.66.652-.544 2.75-1.436 4.128-1.978 3.053-2.451 5.447-1.61 7.372-1.814-.109-2.975-1.203-3.547-2.754-1.541 1.778-3.908 2.706-5.962 2.691.489-.996 1.476-2.46 1.744-4.67a1.264 1.264 0 01-.524.035c-1.643 2.891-4.19 4.866-6.021 7.569-.52.766-1.064 1.524-1.584 2.277-1.744 2.526-3.472 5.178-4.91 7.33l-.964-.642c2.579-3.828 5.267-7.324 7.55-11.36 2.64-4.66 1.154-9.188-3.917-10.887-1.875.314-5.185-.04-7.107-1.777 1.034-.31 2.53-.412 3.568-.519-.823-.67-1.825-1.388-2.25-2.471 1.01-.296 2-.213 3.273.096-.576-1.005-1.598-1.545-1.351-3.323 1.848 1.859 4.952 1.423 4.908 6.608 4.258 2.5 5.357 5.198 5.464 8.011a6.719 6.719 0 01-.37 2.363 26.097 26.097 0 002.89-3.657c-.527-.343-1.07-.664-2.234.181z" fill="#00a650"/><path d="M47.41 112.215c1.26-.805 2.495-1.227 3.515-1.722 1.07-.52-.25.794-1.858 1.561-1.173.562-2.022.395-1.656.161zm-7.03-4.61c.821-.56 1.97-.74 2.866-.45-1.028.235-1.513.427-2.11.839-.671.463-.876.849-1.192.642-.46-.303.085-.79.436-1.03zm-5.198-4.296c-.979.908-.862 2.593-.635 4.138.225 1.532 1.362 1.746.991-.042-.257-1.239-.646-2.407-.356-4.094zm-24.334-2.62c1.362-.033 2.695-.12 3.719-.983 1.508-1.274 2.077.024.68.841-1.44.844-3.225.92-4.4.142zM63.5 43.057c-.393-1.305-.725-2.599-.225-3.841.738-1.831-.67-1.966-1.011-.384-.351 1.634.132 3.352 1.236 4.225zm-19.278-13.35c1.358.091 2.695.13 3.795-.634 1.62-1.126 2.066.218.598.903-1.514.705-3.297.612-4.393-.27zm10.02-9.836c.572 1.23.727 1.903 1.858 2.621 1.667 1.056.631 1.951-.6.9-1.259-1.077-1.541-2.116-1.259-3.52zM77.068 30.89c-.517-1.32-1.126-2.244-2.068-3.014-1.525-1.252-.535-1.837.724-.821 1.301 1.048 1.652 2.462 1.342 3.835zm.485-15.243c-.724.851-1.181 1.63-1.324 2.837-.232 1.959-1.343 1.429-1.08-.168.244-1.488 1.08-2.25 2.404-2.669zm-11.572 2.31c-.705.54-.947 1.17-.895 2.067.077 1.375.93 1.06.766.042-.139-.855-.116-1.41.13-2.112zM50.07 23.191c-.277.845-.122 1.503.424 2.213.84 1.093 1.366.353.66-.395-.597-.63-.892-1.1-1.084-1.818zm9.196 15.64c.153-.875.6-1.38 1.418-1.752 1.255-.566 1.371.334.393.661-.822.273-1.303.548-1.811 1.091zM29.437 37.73c.842-.288 1.501-.14 2.217.399 1.104.827.37 1.362-.387.662-.635-.59-1.11-.878-1.828-1.06zm7.253 7.123c.288-.84.142-1.498-.395-2.218-.823-1.104-1.36-.371-.665.387.59.637.877 1.111 1.06 1.831zm-6.1-.09c.018-.89.387-1.456 1.138-1.944 1.158-.75 1.407.126.487.593-.771.395-1.207.738-1.628 1.35zm17.877 11.461c-.813-.646-1.197-.97-1.403-1.844-.318-1.34.635-1.353.768-.332.11.86.243 1.386.635 2.176zm84.648 78.945c-.683.941-1.444 1.823-2.252 2.754 4.74-.3 19.49.29 30.522.264 6.187-.015 11.97.577 13.377-1.17 3.343-4.156 5.75-8.702 7.584-13.003 1.006-2.36 1.798-5.763 2.65-9.224 1.08-4.917.72-8.353-1.106-8.539-.074 3.463-4.085 5.635-7.107 5.933-8.803.867-17.405 1.115-26.22 1.06-6.258-.041-7.418 3.165-8.446 5.448a371.945 371.945 0 01-2.067 4.519c-2.099 4.2-4.288 8.303-6.935 11.958z" fill="#fff"/><path d="M133.115 135.169c-.683.941-1.444 1.823-2.252 2.754 4.74-.3 19.49.29 30.522.264 6.187-.015 11.97.577 13.377-1.17 3.343-4.156 5.75-8.702 7.584-13.003-5.737 5.656-15.37 4.664-24.489 4.517-7.716-.124-15.585.273-22.014 2.483a57.684 57.684 0 01-2.728 4.155z" fill="#00a650"/><path d="M184.968 114.906l.027-.116c1.082-4.917.72-8.353-1.105-8.539-.074 3.463-4.085 5.635-7.107 5.933-8.803.867-17.405 1.115-26.22 1.06-6.258-.041-7.418 3.165-8.446 5.448a371.558 371.558 0 01-2.067 4.517c12.932-6.235 39.186 2.352 44.918-8.303z" fill="#ed1c24"/><path d="M64.507 138.504c-2.606-3.396-5.273-6.743-7.6-10.566-1.696-2.787-3.119-5.925-4.66-9.05-1.108-2.245-2.747-4.43-8.999-4.172-8.808.364-16.705.227-25.53-.332-3.539-.225-6.571.323-7.915-3.895-2.967.545.43 15.692 11.55 28.567 1.467 1.698 6.477.976 12.662.775 11.026-.36 25.745-1.462 30.494-1.329z" fill="#fff"/><path d="M67.304 138.582c-3.216-2.426-6.075-4.837-7.825-6.753-6.538-2.04-14.497-2.167-22.276-1.77-9.108.467-18.234 1.776-24.163-3.675 1.603 4.209 4.255 8.646 8.312 12.672 1.593 1.58 6.478.976 12.663.775 11.026-.358 28.54-1.384 33.289-1.25z" fill="#00a650"/><path d="M54.813 124.121c-13.193-6.086-39.437 4.212-45.213-6.848-1.758-4.74-1.62-6.915.197-7.162.467.493.47 1.194 1.006 1.585 3.77 2.734 9.691 2.83 15.256 2.976 6.363.166 12.918-.196 17.9-.148 6.257.063 7.18 2.12 8.288 4.364.868 1.763 1.702 3.527 2.566 5.233z" fill="#ed1c24"/><path d="M175.177 44.012c1.362 3.28 2.426 6.067 3.729 8.91.721 1.576 1.995 4.535 3.328 7.468 1.465 3.225 2.669 5.778 1.907 7.984-.752 2.168-3.701 3.917-6.856 6.102-6.46 4.473-15.17 9.095-18.946 11.928-2.985 2.241-5.521 5.497-6.697 8.19.148-3.78-.042-8.28-.818-12.602-.659-3.665-1.502-8.171-3.468-11.304-2.001-3.188-.866-5.829 2.257-7.773 11.54-7.184 22.756-13.482 25.564-18.902z" fill="#fff"/><path d="M175.177 44.012c1.144 2.757 2.078 5.164 3.12 7.55l-.037.088c-3.223 5.353-13.747 10.747-25.09 17.807-1.825 1.135-3.488 3.46-3.905 5.599-.491-1.586-1.108-3.09-1.91-4.368-2-3.188-.865-5.829 2.258-7.773 11.54-7.184 22.756-13.482 25.564-18.902z" fill="#ed1c24"/><path d="M181.964 59.794l.27.596c1.465 3.223 2.669 5.778 1.907 7.982-.752 2.17-3.701 3.919-6.856 6.104-6.46 4.473-15.17 9.095-18.946 11.928-2.985 2.241-5.521 5.497-6.697 8.19.138-3.525-.018-7.677-.67-11.727 1.21-4.98 27.72-15.433 30.992-23.073z" fill="#00a650"/><path d="M18.54 46.107c-2.496 5.482-5.24 10.758-7.233 16.44-2.04 5.812-.175 9.27 3.716 12.343 7.814 6.17 22.138 10.713 27.804 19.223-.31-7.6-.424-15.148 3.967-20.97 2.267-3.005.56-6.427-2.566-8.367-11.551-7.168-22.674-13.253-25.689-18.67z" fill="#fff"/><path d="M18.54 46.107c-1.121 2.46-2.271 4.884-3.386 7.32 3.23 5.348 14.173 11.347 25.525 18.393 2.045 1.27 3.492 3.629 3.612 5.95a17.87 17.87 0 012.503-4.627c2.267-3.005.56-6.427-2.566-8.367-11.551-7.168-22.674-13.253-25.689-18.67z" fill="#ed1c24"/><path d="M12.717 58.967a97.416 97.416 0 00-1.41 3.581c-2.154 5.813-.406 8.927 3.487 12.23 4.048 3.436 9.674 6.757 15.009 9.682 5.17 2.84 10.065 5.27 13.024 9.654-.138-3.409-.21-5.209.117-8.445-2.396-10.113-30.485-16.062-30.227-26.702z" fill="#00a650"/><path d="M149.901 136.715c8.5.427 17.289.868 25.671.305l.853-.057-.438.733c-3.117 5.222-10.599 14.57-14.045 17.548l-.105.093-.139.014a8.642 8.642 0 01-.775.037c-.908 1.027-1.757 1.852-2.534 2.457l-.117.093-.147.001a12.367 12.367 0 01-.663-.005 13.768 13.768 0 01-2.627 2.51l-.125.09-.155-.007c-.166-.009-.362-.022-.583-.04a10.043 10.043 0 01-2.688 2.554l-.127.093-3.157-.449c-9.135-1.382-33.401-5.054-51.234 2.228l-.17.068-.168-.068c-17.835-7.282-42.1-3.61-51.236-2.228l-3.142.447-.14-.09a10.045 10.045 0 01-2.688-2.555c-.221.018-.417.031-.585.038l-.153.01-.127-.09a13.744 13.744 0 01-2.627-2.511 12.567 12.567 0 01-.66.005l-.148-.001-.119-.093c-.775-.605-1.626-1.43-2.532-2.455a8.639 8.639 0 01-.775-.039l-.14-.014-.106-.093c-3.446-2.979-10.928-12.326-14.043-17.548l-.438-.735.851.059c8.382.565 17.172.122 25.67-.305 17.939-.902 36.485-1.83 53.306 6.361 16.822-8.192 35.367-7.263 53.305-6.36z" fill="red"/><path d="M96.15 159.782v-1.078c-14.245-5.488-42.912-4.187-56.737-3.56a297.907 297.907 0 01-5.94.237 17.34 17.34 0 001.772 1.667c.908 0 2.81-.139 5.39-.329 11.96-.878 39.763-2.916 55.514 3.063z" fill="#fea"/><path d="M96.15 161.812v-1.076c-15.5-6.055-43.467-4.006-55.45-3.123-1.538.11-2.838.208-3.84.265.618.69 1.253 1.274 1.894 1.743a100.287 100.287 0 003.752-.37c10.088-1.096 36.68-3.979 53.642 2.561z" fill="#fea"/><path d="M96.15 163.848v-1.078c-16.74-6.625-43.454-3.725-53.546-2.629-.899.096-1.676.181-2.326.248a9.096 9.096 0 001.988 1.809l2.793-.397c9.098-1.377 33.091-5.002 51.09 2.047zm.895-1.078v1.076c17.997-7.046 41.992-3.422 51.09-2.045l2.79.397a9.1 9.1 0 001.99-1.81c-.649-.066-1.428-.15-2.325-.247-10.093-1.096-36.807-3.996-53.545 2.629z" fill="#fea"/><path d="M97.045 160.736v1.076c16.961-6.54 43.553-3.655 53.64-2.56a100.324 100.324 0 003.754.369 12.33 12.33 0 001.892-1.743c-1-.059-2.3-.153-3.836-.267-11.985-.879-39.952-2.931-55.45 3.125z" fill="#fea"/><path d="M97.045 158.704v1.078c15.749-5.98 43.551-3.941 55.514-3.063 2.58.19 4.48.329 5.39.329a17.337 17.337 0 001.77-1.667 286.26 286.26 0 01-5.94-.236c-13.825-.628-42.492-1.93-56.734 3.559z" fill="#fea"/><path d="M97.045 157.751c14.521-5.416 42.99-4.125 56.775-3.5 3.825.174 6.614.3 7.644.22 3.223-2.84 10.091-11.39 13.31-16.519-8.173.486-16.679.07-24.919-.343-17.803-.895-36.21-1.818-52.81 6.243v13.9zm-.896-13.9c-16.601-8.06-35.009-7.137-52.812-6.242-8.24.413-16.744.83-24.92.343 3.222 5.132 10.09 13.678 13.311 16.519 1.03.08 3.817-.046 7.644-.222 13.785-.623 42.252-1.914 56.777 3.502v-13.9z" fill="#fea" fill-rule="nonzero"/><path d="M149.936 141.112c5.82.296 11.495.558 16.927.563l-1.087.89c-5.119-.037-10.438-.284-15.884-.557-14.817-.746-29.205-1.119-42.344 2.436l-.05-.179-.137-.696c13.254-3.577 27.701-3.202 42.575-2.455zm-41.672 7.063c10.477-2.326 22.43-2.313 33.79-1.95 3.79.08 7.513.203 11.115.323l7.483.222 1.052-.864-8.506-.251c-3.603-.12-7.328-.244-11.12-.325-11.407-.365-23.416-.378-33.986 1.966l.172.879zm.73 3.747c14.174-1.931 34.846-1.433 46.499-.923l.875-.715.005-.14c-11.522-.524-32.96-1.098-47.55.9l.172.878zm-65.736-10.806c-5.819.292-11.495.554-16.925.561l1.085.89c5.12-.037 10.44-.284 15.886-.558 14.817-.745 29.203-1.118 42.344 2.437l.048-.18.137-.695c-13.254-3.577-27.701-3.203-42.575-2.455zm41.674 7.057c-10.48-2.326-22.431-2.313-33.79-1.95-3.792.08-7.513.204-11.117.324l-7.483.221-1.052-.864 8.506-.25c3.603-.12 7.33-.244 11.121-.326 11.406-.365 23.417-.378 33.987 1.966l-.172.879zm-.733 3.747c-14.173-1.93-34.843-1.432-46.498-.923l-.873-.714-.007-.14c11.522-.525 32.96-1.099 47.55.898l-.172.879z" fill="#6c6753" fill-rule="nonzero"/></svg>
