<?xml version="1.0" encoding="UTF-8" standalone="no"?>
<svg
   viewBox="0 0 4000 9000"
   version="1.1"
   id="svg14"
   width="4000"
   height="9000"
   xmlns:xlink="http://www.w3.org/1999/xlink"
   xmlns="http://www.w3.org/2000/svg"
   xmlns:svg="http://www.w3.org/2000/svg">
  <defs
     id="defs1">
    <path
       id="prefix__a"
       d="m 2805.486,1137.887 -19.53,3.445 -3.011,-0.346 a 4716.97,4716.97 0 0 1 22.541,-3.099 m 85.145,1.527 a 5864.487,5864.487 0 0 0 -49.919,9.827 774.88,774.88 0 0 0 -12.667,-2.176 4620.932,4620.932 0 0 1 50.859,-8.396 c 3.957,0.227 7.847,0.479 11.727,0.745 z m 68.43,-12.718 -24.254,4.4 -3.655,-0.423 a 4280.507,4280.507 0 0 1 27.909,-3.977 z m -2145.987,3238.309 -0.437,0.521 0.47,-0.599 z M 2955.137,1146.083 a 7246.447,7246.447 0 0 0 -64.965,14.089 577.066,577.066 0 0 0 -16.832,-4.205 5645.285,5645.285 0 0 1 64.014,-12.211 808.405,808.405 0 0 1 17.783,2.327 z m 85.307,-17.482 a 6126.534,6126.534 0 0 0 -52.203,10.54 693.593,693.593 0 0 0 -12.684,-2.281 4670.265,4670.265 0 0 1 52.897,-9.053 c 4.047,0.241 8.032,0.507 11.99,0.794 z m 73.317,-13.949 a 5564.757,5564.757 0 0 0 -30.949,5.76 l -4.461,-0.532 a 3790.018,3790.018 0 0 1 35.41,-5.228 z m -2235.655,3169.862 -3.846,8.175 a 7241.847,7241.847 0 0 0 -24.165,28.329 l 3.263,-6.188 a 6922.088,6922.088 0 0 1 24.748,-30.316 z m 23.543,-49.025 -0.549,1.112 -6.896,8.279 z m 1734.17,-3084.467 -2.401,-0.252 16.865,-2.217 z m 56.098,7.864 a 775.15,775.15 0 0 0 -12.566,-2.08 4841.91,4841.91 0 0 1 49.04,-7.793 c 3.862,0.223 7.669,0.467 11.453,0.722 a 6179.98,6179.98 0 0 0 -47.927,9.151 z m 51.022,10.731 a 627.187,627.187 0 0 0 -17.084,-4.082 5888.744,5888.744 0 0 1 62.172,-11.464 c 6.09,0.695 12.074,1.45 17.946,2.247 a 7200.858,7200.858 0 0 0 -63.034,13.299 z m 45.34,13.511 c -5.945,-2.086 -12.085,-4.068 -18.36,-5.998 a 7224.812,7224.812 0 0 1 72.46,-15 633.763,633.763 0 0 1 20.487,4.145 l -25.167,5.707 a 8851.801,8851.801 0 0 1 -49.42,11.146 z M 944.236,4205.081 c -1.942,4.524 -3.829,9.034 -5.732,13.55 a 8063.762,8063.762 0 0 0 -32.583,37.351 l 6.174,-12.575 a 7578.809,7578.809 0 0 1 32.141,-38.326 z m 22.474,-50.544 c -1.399,3.061 -2.866,6.139 -4.249,9.203 a 8206.308,8206.308 0 0 0 -25.178,29.668 l 3.778,-7.273 a 7604.827,7604.827 0 0 1 25.649,-31.598 z m 23.325,-49.558 -1.064,2.224 -13.277,16.093 z m 1494.347,-2944.903 -1.909,-0.208 13.199,-1.651 z m 57.543,7.876 a 904.079,904.079 0 0 0 -12.55,-2.007 4935.005,4935.005 0 0 1 47.479,-7.228 l 11.273,0.708 a 5742.395,5742.395 0 0 0 -46.202,8.527 z m 51.106,10.301 a 722.417,722.417 0 0 0 -16.082,-3.62 5836.5,5836.5 0 0 1 60.706,-10.807 c 6.152,0.69 12.208,1.423 18.164,2.203 -9.633,1.938 -19.351,3.9 -29.146,5.917 a 9558.74,9558.74 0 0 1 -33.642,6.307 z m 45.777,12.745 a 552.738,552.738 0 0 0 -16.44,-5.055 l 6.711,-1.268 0.101,-0.021 a 7042.716,7042.716 0 0 1 64.232,-12.867 721.539,721.539 0 0 1 20.571,3.964 8410.714,8410.714 0 0 1 -75.175,15.247 z m 41.382,15.471 c -5.609,-2.427 -11.414,-4.758 -17.358,-7.028 a 8245.357,8245.357 0 0 0 72.007,-14.786 h 0.056 l 9.012,-1.956 a 532.95,532.95 0 0 1 20.397,5.739 8205.523,8205.523 0 0 1 -84.114,18.031 z m -1667.821,2918.86 a 2058.662,2058.662 0 0 0 -6.818,17.691 9316.8,9316.8 0 0 0 -39.424,44.253 c 2.474,-5.603 4.92,-11.198 7.462,-16.812 a 8081.113,8081.113 0 0 1 38.78,-45.132 z m 20.616,-50.934 c -2.043,4.854 -4.025,9.704 -6.012,14.557 a 8978.802,8978.802 0 0 0 -33.434,38.535 l 6.527,-13.585 a 7849.814,7849.814 0 0 1 32.919,-39.507 z m 22.122,-50.967 -4.618,10.283 a 8413.558,8413.558 0 0 0 -26.202,31.078 l 4.4,-8.559 a 6650.626,6650.626 0 0 1 26.42,-32.802 z m 22.927,-49.971 -1.562,3.359 -17.162,20.999 0.347,-0.644 a 6164.242,6164.242 0 0 1 18.377,-23.714 z m 1191.962,-2797.62 4.679,0.318 a 7700.814,7700.814 0 0 1 -43.924,5.063 5231.317,5231.317 0 0 1 39.245,-5.381 z m 62.065,-7.475 -1.517,-0.176 10.428,-1.226 z m 55.786,7.559 a 941.792,941.792 0 0 0 -9.802,-1.555 5052.304,5052.304 0 0 1 45.771,-6.653 c 3.823,0.227 7.652,0.453 11.414,0.712 l -19.709,3.479 z m 50.243,9.586 c -3.706,-0.826 -7.422,-1.65 -11.212,-2.429 a 5673.063,5673.063 0 0 1 59.155,-10.127 999.3,999.3 0 0 1 16.905,2.022 7986.352,7986.352 0 0 1 -64.848,10.534 z m 46.858,12.049 a 625.854,625.854 0 0 0 -14.47,-4.106 8052.285,8052.285 0 0 0 52.841,-8.749 l 0.157,-0.025 19.591,-3.731 a 779.826,779.826 0 0 1 17.772,3.223 7835.95,7835.95 0 0 1 -75.891,13.388 z m 42.899,14.584 a 521.049,521.049 0 0 0 -16.351,-6.03 7882.868,7882.868 0 0 0 82.066,-14.775 c 6.392,1.562 12.673,3.174 18.769,4.87 a 7413.33,7413.33 0 0 1 -84.484,15.935 z m 38.769,17.132 a 417.93,417.93 0 0 0 -16.832,-7.981 7604.12,7604.12 0 0 0 88.984,-17.054 479.029,479.029 0 0 1 19.138,6.851 7184.321,7184.321 0 0 1 -91.29,18.184 z M 1082.669,4045.025 c -2.412,6.916 -4.814,13.816 -7.142,20.721 a 9887.176,9887.176 0 0 0 -45.547,50.108 2073.561,2073.561 0 0 1 8.167,-20.2 8904.035,8904.035 0 0 1 44.522,-50.629 z m 18.55,-51.011 a 2022.206,2022.206 0 0 0 -6.941,18.587 9451.583,9451.583 0 0 0 -40.336,45.546 c 2.541,-5.901 5.055,-11.811 7.663,-17.723 a 8743.748,8743.748 0 0 1 39.614,-46.41 z m 20.107,-51.28 c -2.105,5.175 -4.142,10.34 -6.191,15.501 a 9102.119,9102.119 0 0 0 -34.358,39.893 l 6.762,-14.499 a 7947.88,7947.88 0 0 1 33.787,-40.895 z m 21.707,-51.487 -4.836,11.233 a 8257.293,8257.293 0 0 0 -27.255,32.597 l 4.769,-9.572 a 7019.91,7019.91 0 0 1 27.322,-34.258 z m 22.732,-50.855 -2.194,4.771 a 7168.823,7168.823 0 0 0 -18.371,22.694 l 1.069,-2.033 a 6642.15,6642.15 0 0 1 19.496,-25.432 z m 1110.55,-2649.348 -6.135,-1.261 a 7532.128,7532.128 0 0 0 41.59,-5.031 l 0.258,-0.052 20.896,-3.36 9.029,1.013 a 6762.367,6762.367 0 0 1 -65.638,8.691 z m 48.609,11.439 a 751.612,751.612 0 0 0 -11.962,-3.121 7461.138,7461.138 0 0 0 75.584,-10.43 c 4.4,0.721 8.738,1.481 13.031,2.254 a 6947.956,6947.956 0 0 1 -76.653,11.297 z m 45.145,13.773 a 595.547,595.547 0 0 0 -15.102,-4.992 7305.576,7305.576 0 0 0 83.314,-12.656 754.129,754.129 0 0 1 16.754,4.005 6882.764,6882.764 0 0 1 -84.966,13.643 z m 41.175,16.143 a 485.51,485.51 0 0 0 -16.395,-6.909 6943.972,6943.972 0 0 0 89.707,-14.722 577.995,577.995 0 0 1 18.326,5.889 6630.337,6630.337 0 0 1 -91.638,15.742 z m 37.101,18.523 a 409.674,409.674 0 0 0 -16.507,-8.813 6715.675,6715.675 0 0 0 95.007,-16.605 c 6.342,2.529 12.522,5.136 18.478,7.831 a 6334.723,6334.723 0 0 1 -96.978,17.587 z m -826.049,5170.323 -1.304,-8.462 1.511,1.689 2.144,8.802 z M 1155.353,3963.85 a 1702.428,1702.428 0 0 0 -6.756,22.813 11089.31,11089.31 0 0 0 -51.128,55.164 c 2.67,-7.546 5.418,-15.102 8.189,-22.669 a 9905.896,9905.896 0 0 1 49.695,-55.308 z m 16.306,-50.817 c -2.412,7.196 -4.814,14.39 -7.131,21.57 a 10166.75,10166.75 0 0 0 -46.353,51.285 c 2.709,-7.018 5.463,-14.05 8.262,-21.082 a 9824.194,9824.194 0 0 1 45.222,-51.773 z m 18.018,-51.426 c -2.379,6.53 -4.758,13.062 -7.064,19.58 a 9022.54,9022.54 0 0 0 -41.164,46.807 2463.46,2463.46 0 0 1 7.926,-18.794 9107.052,9107.052 0 0 1 40.302,-47.593 z m 19.659,-51.911 a 2447.532,2447.532 0 0 0 -6.499,16.69 9278.69,9278.69 0 0 0 -35.242,41.275 c 2.306,-5.14 4.596,-10.281 6.947,-15.435 a 8786.285,8786.285 0 0 1 34.794,-42.53 z m 21.12,-52.071 -5.2,12.498 a 7877.893,7877.893 0 0 0 -28.251,34.147 c 1.69,-3.542 3.336,-7.071 5.055,-10.613 a 7506.022,7506.022 0 0 1 28.396,-36.032 z m 22.177,-51.512 -2.905,6.622 a 6330.595,6330.595 0 0 0 -19.743,24.698 l 2.054,-4.076 a 6329.362,6329.362 0 0 1 20.594,-27.244 z m 852.005,-2511.865 -0.812,-0.15 25.564,-2.21 z m 51.878,10.978 c -2.894,-0.695 -5.76,-1.396 -8.693,-2.074 a 6753.377,6753.377 0 0 0 77.386,-8.2 l 8.749,1.371 a 6414.916,6414.916 0 0 1 -77.442,8.903 z m 48.206,13.128 a 755.298,755.298 0 0 0 -13.333,-3.964 6471.51,6471.51 0 0 0 84.926,-10.262 890.854,890.854 0 0 1 14.391,3.114 6161.224,6161.224 0 0 1 -85.984,11.112 z m 44.417,15.292 a 612.36,612.36 0 0 0 -15.751,-5.816 6356.86,6356.86 0 0 0 91.083,-12.193 691.673,691.673 0 0 1 17.101,4.933 6002.65,6002.65 0 0 1 -92.433,13.076 z m 40.314,17.483 a 526.116,526.116 0 0 0 -16.558,-7.656 6169.318,6169.318 0 0 0 96.037,-13.953 541.699,541.699 0 0 1 18.237,6.784 5783.057,5783.057 0 0 1 -97.716,14.825 z m 36.333,19.653 c -5.34,-3.216 -10.77,-6.387 -16.417,-9.468 a 5920.452,5920.452 0 0 0 100.202,-15.521 429.345,429.345 0 0 1 17.951,8.697 5474.331,5474.331 0 0 1 -101.736,16.292 z m -726.009,5099.543 -0.823,-8.482 0.549,0.76 1.59,9.125 z m 3.073,34.327 -1.131,-13.18 3.314,3.608 2.121,13.206 z m -372.075,-2523.27 a 1652.374,1652.374 0 0 0 -6.146,24.529 12209.168,12209.168 0 0 0 -56.267,59.611 1887.627,1887.627 0 0 1 7.697,-24.471 11210.38,11210.38 0 0 1 54.716,-59.669 z m 13.798,-50.349 a 1919.337,1919.337 0 0 0 -6.684,23.696 11260.97,11260.97 0 0 0 -51.979,56.433 c 2.653,-7.825 5.385,-15.67 8.15,-23.514 a 10675.762,10675.762 0 0 1 50.513,-56.615 z m 15.589,-51.154 a 2166.755,2166.755 0 0 0 -7.003,22.395 11569.38,11569.38 0 0 0 -47.333,52.768 c 2.72,-7.332 5.514,-14.682 8.323,-22.033 a 10032.312,10032.312 0 0 1 46.013,-53.13 z m 17.313,-51.883 c -2.379,6.83 -4.679,13.654 -6.98,20.472 a 9955.236,9955.236 0 0 0 -42.217,48.433 c 2.664,-6.623 5.402,-13.266 8.128,-19.901 a 8771.205,8771.205 0 0 1 41.069,-49.004 z m 18.976,-52.521 c -2.222,5.928 -4.383,11.854 -6.549,17.776 a 9527.323,9527.323 0 0 0 -36.323,42.985 c 2.407,-5.591 4.87,-11.185 7.322,-16.781 a 9175.887,9175.887 0 0 1 35.55,-43.98 z m 20.442,-52.754 c -1.886,4.719 -3.728,9.431 -5.581,14.149 a 8631.746,8631.746 0 0 0 -29.505,36.115 l 5.844,-12.62 a 8307.356,8307.356 0 0 1 29.242,-37.644 z m 21.372,-51.947 -3.487,8.332 a 9931.18,9931.18 0 0 0 -21.159,26.888 l 2.844,-5.849 a 7581.983,7581.983 0 0 1 21.802,-29.371 z m 637.002,-2365.874 -4.674,-0.947 a 6007.713,6007.713 0 0 0 79.071,-5.505 l 3.135,0.423 a 5643.42,5643.42 0 0 1 -77.532,6.029 z m 53.412,12.778 c -3.666,-0.982 -7.394,-1.942 -11.122,-2.898 a 5856.456,5856.456 0 0 0 86.992,-7.455 c 3.795,0.715 7.529,1.45 11.262,2.19 a 5437.835,5437.835 0 0 1 -87.132,8.163 z m 48.8,14.7 a 825.771,825.771 0 0 0 -14.66,-4.758 5632.712,5632.712 0 0 0 93.076,-9.299 785.318,785.318 0 0 1 15.634,3.985 5268.374,5268.374 0 0 1 -94.05,10.072 z m 44.551,16.664 a 651.98,651.98 0 0 0 -16.333,-6.532 c 31.906,-3.28 64.512,-6.94 97.84,-10.982 a 683.172,683.172 0 0 1 17.632,5.778 5117.862,5117.862 0 0 1 -99.139,11.736 z m 40.386,18.601 a 526.136,526.136 0 0 0 -16.832,-8.24 5270.844,5270.844 0 0 0 101.736,-12.48 c 6.247,2.457 12.359,4.966 18.293,7.559 a 4905.938,4905.938 0 0 1 -103.197,13.161 z m 36.323,20.532 a 456.019,456.019 0 0 0 -16.574,-9.905 5027.609,5027.609 0 0 0 104.971,-13.759 446.724,446.724 0 0 1 17.817,9.365 4640.27,4640.27 0 0 1 -106.214,14.299 z m -618.111,5027.115 -0.213,-4.985 0.649,5.55 z m 1.433,36.381 -0.504,-13.569 2.256,3.028 1.427,13.849 z m 1.069,36.586 -0.465,-17.185 4.612,4.874 1.539,16.995 z m 125.128,160.983 a 1406.306,1406.306 0 0 1 -13.261,-13.447 l 4.747,2.704 c 4.808,4.46 9.667,8.903 14.587,13.329 z m 36.496,35.231 a 1347.646,1347.646 0 0 1 -10.406,-9.806 l 12.6,5.615 9.314,7.839 z M 1308.872,3797.615 a 1681.5,1681.5 0 0 0 -5.239,25.872 13156.048,13156.048 0 0 0 -60.946,63.465 1711.503,1711.503 0 0 1 6.846,-25.848 12537.685,12537.685 0 0 1 59.339,-63.489 z m 11.318,-49.902 a 1745.274,1745.274 0 0 0 -5.961,25.413 12196.171,12196.171 0 0 0 -57.022,60.812 1903.382,1903.382 0 0 1 7.529,-25.294 11950.029,11950.029 0 0 1 55.454,-60.931 z m 13.048,-50.752 a 2129.02,2129.02 0 0 0 -6.516,24.594 11948.837,11948.837 0 0 0 -52.763,57.739 2196.127,2196.127 0 0 1 7.993,-24.327 10989.273,10989.273 0 0 1 51.286,-58.006 z m 14.778,-51.629 c -2.34,7.8 -4.646,15.585 -6.879,23.371 a 10610.797,10610.797 0 0 0 -48.105,54.145 2160.206,2160.206 0 0 1 8.206,-22.909 10124.209,10124.209 0 0 1 46.778,-54.607 z m 16.434,-52.41 a 2048.576,2048.576 0 0 0 -6.958,21.63 10300.591,10300.591 0 0 0 -42.973,49.849 2361.992,2361.992 0 0 1 8.111,-20.935 9359.686,9359.686 0 0 1 41.82,-50.544 z m 18.064,-53.117 a 2577.405,2577.405 0 0 0 -6.717,19.361 9116.524,9116.524 0 0 0 -37.319,44.76 2727.467,2727.467 0 0 1 7.663,-18.417 8873.75,8873.75 0 0 1 36.373,-45.704 z m 19.361,-53.097 -5.872,15.771 a 9386.53,9386.53 0 0 0 -30.619,38.098 2486.27,2486.27 0 0 1 6.224,-14.162 8370.916,8370.916 0 0 1 30.267,-39.707 z m 20.342,-52.578 -4.109,10.326 a 8831.796,8831.796 0 0 0 -22.569,29.259 l 3.672,-7.883 a 7515.587,7515.587 0 0 1 23.006,-31.702 z m 20.756,-50.94 -0.745,1.779 -6.941,9.398 z m 392.215,-2170.349 -7.848,-1.746 a 5173.104,5173.104 0 0 0 88.884,-3.985 l 7.182,1.203 a 4702.185,4702.185 0 0 1 -88.218,4.528 z m 56.619,14.585 a 883.716,883.716 0 0 0 -13.076,-3.645 5000.342,5000.342 0 0 0 95.646,-5.796 c 4.601,0.981 9.18,1.975 13.686,3.002 a 4560.22,4560.22 0 0 1 -96.256,6.439 z m 50.631,16.203 a 841.501,841.501 0 0 0 -15.729,-5.395 4793.095,4793.095 0 0 0 100.543,-7.476 885.098,885.098 0 0 1 16.865,4.772 4399.772,4399.772 0 0 1 -101.679,8.099 z m 45.698,17.879 a 693.703,693.703 0 0 0 -16.983,-7.039 c 33.938,-2.508 68.76,-5.491 104.495,-8.956 6.213,2.112 12.332,4.265 18.299,6.488 -36.267,3.704 -71.526,6.868 -105.811,9.507 z m 41.181,19.523 c -5.586,-2.916 -11.346,-5.764 -17.19,-8.566 34.884,-2.866 70.742,-6.271 107.602,-10.217 a 588.143,588.143 0 0 1 18.371,8.165 c -37.352,4.146 -73.602,7.674 -108.783,10.618 z m 36.972,21.149 c -5.424,-3.412 -11.044,-6.746 -16.759,-10.034 35.595,-3.139 72.253,-6.871 109.998,-11.212 a 465.597,465.597 0 0 1 17.823,9.807 c -38.204,4.484 -75.215,8.293 -111.062,11.439 z m -501.642,4992.377 0.129,-13.615 1.383,2.281 0.694,14.155 z m -0.593,38.637 0.308,-17.809 3.51,4.577 0.722,17.839 z m -0.902,38.859 0.526,-20.74 5.609,5.778 0.616,20.396 z m 7.221,24.177 -1.769,-3.074 1.73,1.404 z m 59.737,89.474 a 962.438,962.438 0 0 1 -15.97,-21.616 984.49,984.49 0 0 0 19.194,23.3 z m 37.582,46.696 a 1161.772,1161.772 0 0 1 -17.873,-21.57 l 7.881,4.258 a 1230.826,1230.826 0 0 0 19.922,21.362 z m 34.459,38.977 a 1509.887,1509.887 0 0 1 -15.528,-17.185 l 14.201,5.96 a 1523.474,1523.474 0 0 0 15.97,15.656 z m -312.366,-2859 a 1601.708,1601.708 0 0 0 -4.137,26.959 14938.217,14938.217 0 0 0 -65.368,66.962 1728.801,1728.801 0 0 1 5.833,-26.979 14465.856,14465.856 0 0 1 63.672,-66.942 z m 8.766,-49.379 a 1605.7,1605.7 0 0 0 -4.932,26.742 13887,13887 0 0 0 -61.719,64.707 1670.67,1670.67 0 0 1 6.622,-26.699 c 19.877,-21.595 39.9,-43.187 60.029,-64.75 z m 10.439,-50.284 a 1919.615,1919.615 0 0 0 -5.648,26.289 12800.337,12800.337 0 0 0 -57.795,62.146 2076.026,2076.026 0 0 1 7.288,-26.134 c 18.601,-20.784 37.33,-41.55 56.155,-62.301 z m 12.141,-51.267 a 2233.162,2233.162 0 0 0 -6.224,25.538 11783.972,11783.972 0 0 0 -53.625,59.259 2192.533,2192.533 0 0 1 7.781,-25.23 c 17.24,-19.87 34.598,-39.725 52.068,-59.567 z m 13.72,-52.127 c -2.25,8.161 -4.456,16.31 -6.611,24.454 a 12148.286,12148.286 0 0 0 -49.029,55.815 c 2.648,-7.988 5.34,-15.988 8.077,-23.987 15.757,-18.779 31.61,-37.54 47.563,-56.282 z m 15.32,-52.977 a 2519.06,2519.06 0 0 0 -6.835,23.093 10608.395,10608.395 0 0 0 -43.958,51.706 3167.051,3167.051 0 0 1 8.145,-22.403 10097.205,10097.205 0 0 1 42.648,-52.396 z m 16.698,-53.332 a 2854.237,2854.237 0 0 0 -6.656,20.791 9372.538,9372.538 0 0 0 -38.332,46.763 2719.006,2719.006 0 0 1 7.674,-19.752 9008.822,9008.822 0 0 1 37.314,-47.802 z m 17.929,-53.52 -5.961,17.418 a 10058.866,10058.866 0 0 0 -31.805,40.412 l 6.583,-15.938 a 8559.905,8559.905 0 0 1 31.183,-41.892 z m 18.981,-53.332 -4.601,12.628 a 8135.368,8135.368 0 0 0 -24.047,31.961 l 4.456,-10.266 a 8022.242,8022.242 0 0 1 24.192,-34.323 z m 19.228,-51.436 -1.73,4.558 -14.296,19.997 0.487,-1.066 z m -29.281,-2047.791 0.879,0.111 c -6.499,-0.33 -12.953,-0.676 -19.368,-1.038 z m 112.158,3.777 -0.84,-0.157 c 20,0.365 40.314,0.585 60.957,0.656 a 3757.647,3757.647 0 0 1 -60.117,-0.499 z m 74.862,15.688 c -3.359,-0.806 -6.796,-1.572 -10.199,-2.358 a 4258.08,4258.08 0 0 0 99.183,-1.223 l 10.697,1.963 c -34.156,0.988 -67.378,1.527 -99.681,1.618 z m 62.166,16.594 c -4.736,-1.411 -9.589,-2.783 -14.425,-4.148 a 4127.316,4127.316 0 0 0 105.212,-2.99 1079.136,1079.136 0 0 1 15.701,3.738 c -36.574,1.678 -72.063,2.808 -106.488,3.4 z m 53.989,17.715 a 864.224,864.224 0 0 0 -16.373,-5.737 c 35.309,-0.968 71.677,-2.47 109.136,-4.538 a 921.306,921.306 0 0 1 17.884,5.409 c -38.075,2.248 -74.951,3.864 -110.647,4.866 z m 47.926,18.991 a 828.711,828.711 0 0 0 -17.218,-7.201 c 36.233,-1.325 73.625,-3.262 112.209,-5.83 a 743.848,743.848 0 0 1 18.757,7.007 c -39.227,2.716 -77.134,4.712 -113.748,6.024 z m 42.822,20.238 a 706.024,706.024 0 0 0 -17.106,-8.501 c 36.899,-1.591 75.063,-3.861 114.504,-6.836 a 614.31,614.31 0 0 1 18.617,8.494 c -40.09,3.068 -78.758,5.335 -116.015,6.843 z m 38.371,21.454 a 585.864,585.864 0 0 0 -16.463,-9.685 c 37.353,-1.746 76.048,-4.249 116.133,-7.525 6.129,3.242 12.124,6.539 17.94,9.919 -40.739,3.302 -79.927,5.718 -117.61,7.291 z m -375.283,4922.045 0.705,-13.525 0.571,1.194 0.011,14.365 z m -2.317,40.631 1.058,-18.159 2.496,4.018 -0.112,18.443 z m -2.592,40.873 1.394,-21.538 4.433,5.622 -0.325,21.383 z m -2.855,41.115 1.713,-23.958 6.314,6.331 -0.526,23.535 z m 6.952,26.53 -3.196,-7.025 3.314,2.632 z m 14.94,30.44 -2.11,-4.043 2.552,4.323 z m 32.108,55.69 a 843.883,843.883 0 0 1 -19.255,-32.123 l 3.454,2.228 a 862.44,862.44 0 0 0 22.916,33.492 z m 32.662,48.538 a 1052.773,1052.773 0 0 1 -18.517,-26.751 l 10.467,5.413 a 1084.843,1084.843 0 0 0 20.817,26.354 z m 31.553,42.083 a 1260.766,1260.766 0 0 1 -17.246,-22.514 l 15.925,6.389 a 1341.25,1341.25 0 0 0 18.405,21.09 z M 1473.485,3625.686 a 1639.749,1639.749 0 0 0 -2.916,27.869 15960.12,15960.12 0 0 0 -69.488,70.098 1853.682,1853.682 0 0 1 4.635,-27.887 15341.607,15341.607 0 0 1 67.769,-70.08 z m 6.23,-48.907 a 1734.446,1734.446 0 0 0 -3.717,27.812 15612.239,15612.239 0 0 0 -66.124,68.234 1670.59,1670.59 0 0 1 5.469,-27.785 14000.44,14000.44 0 0 1 64.372,-68.261 z m 7.837,-49.853 a 1930.094,1930.094 0 0 0 -4.517,27.653 14891.104,14891.104 0 0 0 -62.536,66.134 c 2.01,-9.162 4.092,-18.339 6.247,-27.529 a 13507.527,13507.527 0 0 1 60.806,-66.258 z m 9.348,-50.761 a 1994.95,1994.95 0 0 0 -5.195,27.213 13593.511,13593.511 0 0 0 -58.629,63.698 2277.93,2277.93 0 0 1 6.913,-27.004 12703.816,12703.816 0 0 1 56.911,-63.907 z m 10.848,-51.662 a 2203.324,2203.324 0 0 0 -5.732,26.551 13198.886,13198.886 0 0 0 -54.453,60.91 2315.327,2315.327 0 0 1 7.411,-26.219 11694.437,11694.437 0 0 1 52.774,-61.242 z m 12.342,-52.597 a 2482.46,2482.46 0 0 0 -6.202,25.782 12319.262,12319.262 0 0 0 -49.863,57.614 3040.343,3040.343 0 0 1 7.825,-25.321 11591.835,11591.835 0 0 1 48.24,-58.075 z m 13.653,-53.111 a 2701.76,2701.76 0 0 0 -6.426,24.379 11522.624,11522.624 0 0 0 -44.831,53.695 c 2.586,-7.89 5.223,-15.787 7.898,-23.682 a 10318.742,10318.742 0 0 1 43.359,-54.392 z m 14.912,-53.612 a 2863.883,2863.883 0 0 0 -6.331,22.299 11711.603,11711.603 0 0 0 -39.239,48.911 3524.352,3524.352 0 0 1 7.601,-21.318 10403.888,10403.888 0 0 1 37.969,-49.892 z m 16.081,-53.987 -5.905,19.438 a 10662.345,10662.345 0 0 0 -32.869,42.861 c 2.25,-6.005 4.517,-11.996 6.807,-18.002 a 9243.867,9243.867 0 0 1 31.967,-44.297 z m 16.832,-53.425 -4.769,14.876 a 11111.777,11111.777 0 0 0 -25.413,34.875 l 5.06,-12.718 a 10137.55,10137.55 0 0 1 25.122,-37.033 z m 17.162,-51.935 -2.58,7.709 -16.233,23.637 1.853,-4.472 z M 1495.623,1224.372 c 5.055,1.182 9.992,2.411 14.957,3.627 -51.089,-3.38 -99.105,-8.3 -144.154,-14.695 40.941,4.723 83.991,8.422 129.197,11.068 z m -114.173,-22.495 5.491,0.904 a 2131.144,2131.144 0 0 1 -24.036,-2.678 c 6.135,0.613 12.315,1.205 18.545,1.774 z m 117.448,9.887 -9.65,-2.191 c 36.748,1.912 74.795,3.224 114.173,3.907 4.478,0.819 8.934,1.65 13.345,2.501 -40.846,-0.656 -80.124,-2.073 -117.868,-4.217 z m 74.632,19.555 c -4.596,-1.346 -9.286,-2.657 -13.96,-3.964 38.164,1.346 77.756,1.995 118.819,1.924 5.737,1.378 11.43,2.769 17.039,4.198 -42.306,0.123 -82.928,-0.603 -121.898,-2.158 z m 60.644,19.519 a 1012.263,1012.263 0 0 0 -15.584,-5.355 c 38.92,0.91 79.379,1.038 121.406,0.368 a 1109,1109 0 0 1 18.433,5.707 c -43.208,0.689 -84.607,0.442 -124.255,-0.72 z m 52.074,20.068 a 1010.535,1010.535 0 0 0 -16.127,-6.579 c 39.496,0.613 80.639,0.372 123.454,-0.758 a 840.93,840.93 0 0 1 18.819,7.116 c -43.968,1.106 -85.994,1.163 -126.146,0.221 z m 45.856,20.699 c -5.2,-2.54 -10.49,-5.049 -15.841,-7.518 39.86,0.453 81.478,-0.046 124.898,-1.516 a 693.336,693.336 0 0 1 18.349,8.36 c -44.523,1.351 -86.964,1.567 -127.406,0.674 z m 40.386,21.318 c -4.92,-2.795 -9.93,-5.55 -15.007,-8.279 40.129,0.439 82.133,-0.151 126.063,-1.828 a 602.614,602.614 0 0 1 17.498,9.502 c -45.066,1.452 -87.888,1.639 -128.554,0.605 z m -232.176,4855.148 1.12,-12.005 -0.549,13.122 z m -4.086,42.738 1.791,-18.354 1.635,3.277 -0.946,18.899 z m -4.321,42.908 2.267,-22.118 3.375,5.302 -1.254,22.176 z m -4.573,43.141 2.681,-24.944 5.139,6.363 -1.539,24.67 z m -4.798,43.335 3.017,-26.99 6.924,6.784 -1.836,26.458 z m 16.788,56.895 c -5.256,-12.888 -10.02,-25.732 -14.251,-38.542 l 4.456,3.465 -0.286,3.954 -0.118,1.552 0.599,1.416 c 4.299,10.277 8.956,20.55 13.916,30.82 z m 25.653,55.73 c -5.973,-11.697 -11.587,-23.364 -16.793,-34.999 l 6.734,4.233 a 789.272,789.272 0 0 0 20.101,35.706 z m 27.848,50.286 c -6.096,-10.257 -11.951,-20.485 -17.52,-30.703 l 12.617,6.303 a 980.986,980.986 0 0 0 19.938,30.118 z m 28.229,44.855 a 1110.651,1110.651 0 0 1 -17.246,-26.809 l 17.52,6.766 a 1157.316,1157.316 0 0 0 18.813,25.406 z M 1559.945,3537.51 a 1704.564,1704.564 0 0 0 -1.606,28.669 17881.801,17881.801 0 0 0 -73.294,72.882 c 1.008,-9.521 2.11,-19.061 3.291,-28.616 a 15371.714,15371.714 0 0 1 71.609,-72.935 z m 3.789,-48.549 c -0.879,9.6 -1.679,19.186 -2.407,28.76 a 16471.322,16471.322 0 0 0 -70.227,71.4 1728.009,1728.009 0 0 1 4.12,-28.648 16523.135,16523.135 0 0 1 68.514,-71.512 z m 5.184,-49.418 a 2036.308,2036.308 0 0 0 -3.168,28.752 15978.39,15978.39 0 0 0 -66.93,69.722 c 1.584,-9.547 3.247,-19.1 4.982,-28.66 21.6,-23.305 43.308,-46.578 65.116,-69.814 z m 6.549,-50.27 a 2041.692,2041.692 0 0 0 -3.857,28.517 15039.063,15039.063 0 0 0 -63.348,67.753 c 1.83,-9.449 3.745,-18.917 5.715,-28.394 a 13863.885,13863.885 0 0 1 61.49,-67.876 z m 7.876,-51.144 a 2502.238,2502.238 0 0 0 -4.478,28.174 14809.746,14809.746 0 0 0 -59.424,65.415 2536.326,2536.326 0 0 1 6.32,-27.932 13213.584,13213.584 0 0 1 57.582,-65.657 z m 9.174,-52.03 a 2539.53,2539.53 0 0 0 -5.027,27.762 13869.996,13869.996 0 0 0 -55.209,62.743 c 2.25,-9.144 4.534,-18.3 6.891,-27.458 a 12685.675,12685.675 0 0 1 53.345,-63.047 z m 10.356,-52.625 a 3089.477,3089.477 0 0 0 -5.424,26.919 12904.069,12904.069 0 0 0 -50.596,59.578 2959.146,2959.146 0 0 1 7.26,-26.484 13056.059,13056.059 0 0 1 48.76,-60.013 z m 11.486,-53.228 a 3161.879,3161.879 0 0 0 -5.67,25.679 13091.445,13091.445 0 0 0 -45.531,55.794 2819.895,2819.895 0 0 1 7.4,-25.034 c 14.52,-18.843 29.13,-37.65 43.801,-56.439 z m 12.516,-53.754 a 3344.303,3344.303 0 0 0 -5.698,23.98 12306.832,12306.832 0 0 0 -39.939,51.181 3150.362,3150.362 0 0 1 7.26,-23.052 11325.563,11325.563 0 0 1 38.377,-52.109 z m 13.367,-53.795 a 3127.99,3127.99 0 0 0 -5.396,21.344 13199.583,13199.583 0 0 0 -33.664,45.403 l 6.639,-19.965 a 11640.603,11640.603 0 0 1 32.421,-46.782 z m 13.999,-53.425 -4.629,17.38 a 10755.726,10755.726 0 0 0 -26.465,37.89 l 5.374,-15.403 a 10496.7,10496.7 0 0 1 25.72,-39.867 z m 14.196,-51.907 -3.09,11.108 -17.856,27.42 2.95,-8.137 a 13316.514,13316.514 0 0 1 17.996,-30.391 z m 13.619,-48.107 -0.017,0.046 -0.101,0.169 z M 1077.234,1152.712 c -91.632,-24.515 -178.159,-49.309 -259.637,-74.41 59.401,16.926 121.652,33.472 186.897,49.622 a 1112.78,1112.78 0 0 0 35.371,11.432 945.927,945.927 0 0 0 37.369,13.356 z m 348.252,81.597 -4.327,-1.397 c 46.661,5.126 96.188,8.811 148.66,10.989 5.687,1.671 11.357,3.347 16.91,5.069 -57.666,-2.865 -111.358,-7.785 -161.243,-14.661 z m 64.685,22.261 -7.428,-2.737 c 46.185,4.724 95.282,7.93 147.367,9.561 a 983.113,983.113 0 0 1 17.162,6.26 c -56.21,-2.316 -108.525,-6.703 -157.101,-13.084 z m 52.248,20.992 c -2.463,-1.066 -5.016,-2.101 -7.512,-3.16 45.928,4.666 94.873,7.702 146.964,9.047 a 900.478,900.478 0 0 1 16.446,7.135 c -55.965,-2.15 -107.877,-6.525 -155.898,-13.022 z m 43.521,20.068 c -2.004,-0.988 -4.103,-1.942 -6.124,-2.923 45.844,4.938 94.918,8.095 147.333,9.396 a 750.564,750.564 0 0 1 15.438,7.825 c -56.546,-2.331 -108.704,-7.142 -156.647,-14.298 z m -58.31,4845.796 2.441,-18.302 0.907,2.313 -1.69,19.161 z m -6.124,44.987 3.095,-22.579 2.446,4.792 -2.161,22.877 z m -6.33,45.176 3.627,-25.711 4.069,6.213 -2.575,25.613 z m -6.533,45.37 4.069,-28.096 5.732,6.921 a 7294.827,7294.827 0 0 1 -2.939,27.698 z m -6.745,45.541 4.439,-29.831 7.422,7.11 -3.258,29.225 z m 11.946,57.037 c -3.997,-13.273 -7.49,-26.479 -10.4,-39.602 l 5.374,4.095 -0.196,1.723 -0.146,1.293 0.403,1.321 c 3.594,11.799 7.646,23.636 12.113,35.496 z m 19.776,56.12 c -5.032,-12.512 -9.645,-24.963 -13.804,-37.358 l 9.113,5.575 a 712.177,712.177 0 0 0 16.955,37.663 z m 23.101,51.979 a 842.274,842.274 0 0 1 -15.561,-33.952 l 14.307,6.941 a 910.462,910.462 0 0 0 18.158,33.271 z m 24.679,47.436 a 1042.14,1042.14 0 0 1 -16.222,-30.493 l 18.847,7.052 c 5.827,9.682 11.901,19.393 18.159,29.11 z m 67.44,-3041.675 c 0.336,44.94 2.357,89.649 6.376,134.025 h -0.017 c 24.876,349.285 31.201,729.076 4.696,1166.83 -13.048,215.375 -34.05,444.802 -64.702,691.524 15.091,-212.719 22.379,-412.01 24.176,-600.459 3.991,-418.56 -19.088,-783.325 -43.969,-1122.894 l -0.022,-0.155 c -6.045,-63.251 -7.165,-127.515 -4.316,-192.46 a 19305.28,19305.28 0 0 1 77.778,-76.411 z m 0.252,-47.504 c -0.179,9.82 -0.28,19.635 -0.308,29.435 a 18988.566,18988.566 0 0 0 -76.771,75.341 c 0.537,-9.744 1.176,-19.498 1.892,-29.267 24.96,-25.217 50.031,-50.39 75.187,-75.509 z m 1.444,-48.326 c -0.42,9.88 -0.772,19.757 -1.036,29.622 a 18366.667,18366.667 0 0 0 -74.022,74.246 c 0.823,-9.806 1.735,-19.632 2.726,-29.466 a 17438.658,17438.658 0 0 1 72.332,-74.402 z m 2.625,-49.088 a 2305.4,2305.4 0 0 0 -1.718,29.701 17846.038,17846.038 0 0 0 -71.027,72.953 2009.673,2009.673 0 0 1 3.526,-29.558 17375.942,17375.942 0 0 1 69.219,-73.096 z m 3.75,-49.867 a 2421.627,2421.627 0 0 0 -2.357,29.636 17377.96,17377.96 0 0 0 -67.714,71.373 2241.747,2241.747 0 0 1 4.249,-29.463 16652.084,16652.084 0 0 1 65.822,-71.546 z m 4.837,-50.611 a 2763.497,2763.497 0 0 0 -2.944,29.466 17048.33,17048.33 0 0 0 -64.086,69.518 2339.902,2339.902 0 0 1 4.915,-29.279 15391.026,15391.026 0 0 1 62.115,-69.705 z m 5.872,-51.402 a 2911.185,2911.185 0 0 0 -3.459,29.272 16441.38,16441.38 0 0 0 -60.151,67.344 3021.626,3021.626 0 0 1 5.53,-29.071 14350.194,14350.194 0 0 1 58.08,-67.545 z m 6.829,-51.954 c -1.338,9.6 -2.636,19.204 -3.89,28.811 a 15586.563,15586.563 0 0 0 -55.836,64.75 2743.782,2743.782 0 0 1 6.001,-28.531 14918.174,14918.174 0 0 1 53.725,-65.03 z m 7.707,-52.495 a 3964.458,3964.458 0 0 0 -4.215,28.059 14737.268,14737.268 0 0 0 -51.111,61.664 3492.302,3492.302 0 0 1 6.32,-27.635 14035.14,14035.14 0 0 1 49.006,-62.088 z m 8.52,-53.027 c -1.5,9.009 -2.984,18.017 -4.422,27.025 a 15417.254,15417.254 0 0 0 -45.95,57.991 4110.72,4110.72 0 0 1 6.499,-26.463 13416.757,13416.757 0 0 1 43.873,-58.553 z m 9.202,-53.254 c -1.511,8.489 -3,16.979 -4.467,25.477 a 14342.962,14342.962 0 0 0 -40.308,53.555 3842.944,3842.944 0 0 1 6.448,-24.684 13658.934,13658.934 0 0 1 38.327,-54.348 z m 9.751,-53.254 -4.316,23.21 a 17790.305,17790.305 0 0 0 -34.011,47.982 l 6.029,-21.998 a 14234.084,14234.084 0 0 1 32.298,-49.194 z m 10.093,-52.747 -3.84,19.81 a 14904.701,14904.701 0 0 0 -27.003,40.9 l 5.155,-18.073 a 12800.474,12800.474 0 0 1 25.688,-42.637 z m 10.165,-51.401 -2.872,14.383 -18.897,31.17 3.448,-11.737 z m 9.689,-47.892 -0.974,4.801 -8.984,16.464 0.179,-0.604 z m -216.933,3289.198 3,-18.003 0.386,1.265 -2.418,19.077 z m -7.982,47.136 3.879,-22.799 1.69,4.18 -3.062,23.306 z m -8.145,47.258 4.568,-26.367 3.129,5.965 -3.588,26.452 z m -8.323,47.429 5.116,-29.018 4.657,6.948 -4.025,28.79 z m -8.486,47.589 5.553,-31.048 6.247,7.364 -4.405,30.585 z m -8.671,47.742 5.928,-32.568 7.859,7.377 -4.736,31.911 z m 7.187,57.297 c -2.743,-13.668 -4.948,-27.225 -6.549,-40.672 l 6.236,4.658 -0.073,0.444 0.224,1.097 c 2.586,13.259 5.771,26.594 9.465,39.998 z m 14.341,56.777 a 637.963,637.963 0 0 1 -10.568,-39.484 l 10.876,6.519 a 658.735,658.735 0 0 0 13.641,39.502 z m 18.483,53.689 c -4.752,-12.362 -9.163,-24.645 -13.182,-36.857 l 15.684,7.417 a 810.223,810.223 0 0 0 15.824,36.048 z m 20.952,49.862 a 944.76,944.76 0 0 1 -14.57,-33.802 l 19.983,7.272 a 977.914,977.914 0 0 0 16.698,32.399 z m 200.264,-3121.897 c 1.287,29.702 3.146,59.357 5.659,88.936 h 0.01 c 24.876,359.131 14.475,754.163 -34.554,1211.73 -22.295,208.013 -52.572,428.971 -91.156,665.384 23.135,-202.396 39.675,-392.978 50.619,-573.688 26.56,-438.42 20.213,-818.746 -4.691,-1168.505 l -0.028,-0.13 c -4.36,-48.153 -6.359,-96.713 -6.387,-145.582 a 22250.857,22250.857 0 0 1 80.532,-78.145 z m -1.59,-47.665 c 0.246,10.106 0.543,20.206 0.901,30.305 a 21974.045,21974.045 0 0 0 -79.76,77.322 c 0.101,-9.972 0.263,-19.947 0.515,-29.937 a 21577.503,21577.503 0 0 1 78.344,-77.69 z m -0.677,-48.347 c 0.05,10.171 0.157,20.343 0.325,30.514 a 21129.448,21129.448 0 0 0 -77.437,76.702 c 0.341,-10.053 0.756,-20.127 1.254,-30.2 a 19593.73,19593.73 0 0 1 75.858,-77.016 z m 0.202,-48.933 a 3289.363,3289.363 0 0 0 -0.224,30.605 20650.25,20650.25 0 0 0 -74.789,75.84 2223.886,2223.886 0 0 1 1.965,-30.346 19790.312,19790.312 0 0 1 73.048,-76.099 z m 1.007,-49.569 a 3253.66,3253.66 0 0 0 -0.722,30.606 19469.478,19469.478 0 0 0 -71.789,74.694 2548.645,2548.645 0 0 1 2.614,-30.369 18353.384,18353.384 0 0 1 69.897,-74.931 z m 1.769,-50.147 a 3456.001,3456.001 0 0 0 -1.164,30.546 19684.993,19684.993 0 0 0 -68.447,73.252 2657.346,2657.346 0 0 1 3.219,-30.332 18380.27,18380.27 0 0 1 66.392,-73.466 z m 2.457,-50.714 a 3976.288,3976.288 0 0 0 -1.551,30.444 19081.826,19081.826 0 0 0 -64.73,71.491 3077.04,3077.04 0 0 1 3.762,-30.26 17548.401,17548.401 0 0 1 62.519,-71.675 z m 3.107,-51.167 a 4558.858,4558.858 0 0 0 -1.892,30.182 18642.083,18642.083 0 0 0 -60.627,69.354 3683.575,3683.575 0 0 1 4.232,-29.995 16976.862,16976.862 0 0 1 58.287,-69.541 z m 3.655,-51.526 c -0.75,9.887 -1.461,19.778 -2.161,29.676 a 18114.733,18114.733 0 0 0 -56.127,66.807 4103.15,4103.15 0 0 1 4.607,-29.47 16953.303,16953.303 0 0 1 53.681,-67.013 z m 4.142,-51.961 a 7117.408,7117.408 0 0 0 -2.368,29.072 17453.796,17453.796 0 0 0 -51.195,63.751 c 1.584,-9.6 3.213,-19.2 4.87,-28.792 a 16763.572,16763.572 0 0 1 48.693,-64.031 z m 4.506,-52.129 -2.469,28.121 a 18634.836,18634.836 0 0 0 -45.833,60.112 6443.292,6443.292 0 0 1 5.004,-27.719 17710.16,17710.16 0 0 1 43.298,-60.514 z m 4.798,-52.208 -2.485,26.796 a 18014.393,18014.393 0 0 0 -40,55.731 l 4.987,-26.19 a 18297.18,18297.18 0 0 1 37.498,-56.337 z m 4.948,-51.961 -2.385,24.866 a 22702.088,22702.088 0 0 0 -33.641,50.363 l 4.735,-23.958 a 19229.922,19229.922 0 0 1 31.291,-51.271 z m 4.97,-51.397 -0.621,6.448 -1.506,15.526 a 29358.354,29358.354 0 0 0 -26.706,43.604 l 4.181,-20.596 a 21907.58,21907.58 0 0 1 24.652,-44.982 z m 4.826,-49.957 -1.662,17.313 -18.987,34.524 3.118,-15.151 z m 4.422,-46.819 -0.868,9.422 -10.199,21.285 1.237,-5.953 5.592,-14.083 z M 1521.4,5995.88 l 3.443,-17.307 -3.017,18.64 z m -9.885,49.278 4.584,-22.788 1.052,3.387 -3.896,23.514 z m -10.025,49.432 5.446,-26.784 2.306,5.544 -4.568,27.063 z m -10.166,49.531 6.129,-29.831 3.689,6.837 -5.122,29.767 z m -10.31,49.665 6.678,-32.104 5.155,7.499 -5.57,31.776 z m -10.434,49.791 7.115,-33.867 6.667,7.701 -5.945,33.342 z m -10.563,49.92 7.456,-35.185 8.217,7.57 -6.264,34.49 z m 2.424,57.622 c -1.5,-14.071 -2.418,-28.003 -2.72,-41.789 l 7.825,5.744 c 1.321,14.032 3.291,28.175 5.855,42.434 z m 9.13,57.556 a 600.072,600.072 0 0 1 -7.154,-41.425 l 12.298,7.213 c 2.877,13.662 6.303,27.428 10.227,41.276 z m 13.921,55.394 a 721.654,721.654 0 0 1 -10.389,-39.484 l 16.753,7.754 a 762.553,762.553 0 0 0 13.188,38.631 z m 17.224,52.241 a 910.511,910.511 0 0 1 -12.544,-36.858 l 20.94,7.435 c 4.629,11.757 9.589,23.58 14.839,35.454 z m 334.706,-3203.034 a 3702.55,3702.55 0 0 0 3.241,44.376 h 0.01 c 24.864,368.984 -2.256,779.304 -73.798,1256.778 -29.835,199.044 -67.378,409.741 -112.091,633.936 29.354,-190.237 53.126,-370.336 71.492,-541.679 49.119,-458.413 59.525,-854.194 34.599,-1214.059 v -0.104 c -2.827,-33.224 -4.814,-66.552 -6.096,-99.939 a 25221.836,25221.836 0 0 1 82.647,-79.309 z m -2.961,-48.287 a 4209.871,4209.871 0 0 0 1.864,31.397 24689.79,24689.79 0 0 0 -82.161,78.777 2325.909,2325.909 0 0 1 -0.761,-30.717 23211.828,23211.828 0 0 1 81.058,-79.457 z m -2.463,-48.731 c 0.481,10.508 0.996,21.017 1.539,31.54 a 24191.52,24191.52 0 0 0 -80.403,78.738 2707.07,2707.07 0 0 1 -0.185,-30.961 23195.338,23195.338 0 0 1 79.049,-79.317 z m -2.015,-49.056 c 0.386,10.515 0.8,21.038 1.248,31.566 a 23512.462,23512.462 0 0 0 -78.215,78.406 c 0.062,-10.365 0.19,-20.74 0.358,-31.113 a 22708.15,22708.15 0 0 1 76.609,-78.859 z m -1.624,-49.46 c 0.302,10.511 0.632,21.019 0.991,31.542 a 23138.226,23138.226 0 0 0 -75.612,77.754 c 0.235,-10.397 0.532,-20.791 0.873,-31.188 a 21311.53,21311.53 0 0 1 73.748,-78.108 z m -1.282,-49.75 0.778,31.45 a 21831.633,21831.633 0 0 0 -72.55,76.741 3823.79,3823.79 0 0 1 1.31,-31.177 22345.652,22345.652 0 0 1 70.462,-77.014 z m -1.013,-50.096 0.604,31.372 a 23440.721,23440.721 0 0 0 -69.063,75.384 4155.208,4155.208 0 0 1 1.718,-31.188 21614.864,21614.864 0 0 1 66.741,-75.568 z m -0.817,-50.277 0.481,31.163 a 22230.724,22230.724 0 0 0 -65.116,73.628 4782.462,4782.462 0 0 1 2.054,-31.04 21140.608,21140.608 0 0 1 62.581,-73.751 z m -0.683,-50.394 0.409,30.767 a 22993.533,22993.533 0 0 0 -60.745,71.471 c 0.756,-10.25 1.534,-20.479 2.345,-30.708 a 21260.55,21260.55 0 0 1 57.991,-71.53 z m -0.627,-50.597 0.162,13.149 0.213,17.189 a 23404.39,23404.39 0 0 0 -55.903,68.847 7717.675,7717.675 0 0 1 2.547,-30.307 24384.905,24384.905 0 0 1 52.981,-68.878 z m -0.649,-50.57 0.392,29.722 a 23511.67,23511.67 0 0 0 -50.624,65.699 l 2.664,-29.657 a 24172.664,24172.664 0 0 1 47.568,-65.764 z m -0.756,-50.505 0.448,28.862 a 26037.09,26037.09 0 0 0 -44.898,61.978 l 2.709,-28.739 a 28050.147,28050.147 0 0 1 41.741,-62.101 z m -0.923,-50.238 0.543,27.673 a 35307.41,35307.41 0 0 0 -38.769,57.57 l 2.653,-27.42 a 28960.664,28960.664 0 0 1 35.573,-57.823 z m -1.198,-49.772 0.661,25.971 -32.192,52.246 2.469,-25.526 z m -1.506,-49.042 c 0.274,7.825 0.521,15.669 0.761,23.527 l -3.37,6.11 -21.825,39.56 2.149,-22.655 3.985,-8.321 z m -1.898,-47.536 c 0.291,6.564 0.593,13.129 0.856,19.713 l -17.8,37.207 1.635,-18.237 z m -2.172,-44.66 0.672,13.192 -9.891,25.1 0.856,-10.49 z m -290.854,3391.274 0.252,-1.12 -0.229,1.208 z m -11.873,51.517 5.217,-22.598 0.548,2.399 -4.663,23.565 z m -11.956,51.59 6.269,-27.029 1.595,4.966 -5.514,27.483 z m -12.085,51.72 7.115,-30.434 2.81,6.572 -6.197,30.532 z m -12.181,51.799 7.781,-33.066 4.148,7.492 -6.74,32.886 z m -12.269,51.889 8.296,-35.035 5.564,7.914 -7.182,34.635 z m -12.365,51.989 8.71,-36.572 7.025,7.956 -7.54,35.992 z m -12.382,52.148 0.05,-0.598 8.895,-37.182 8.531,7.708 -7.837,37.005 z m -2.424,57.914 a 485.886,485.886 0 0 1 1.114,-42.887 l 9.135,6.59 c 0.022,14.291 0.688,28.727 1.987,43.317 z m 4.142,58.486 c -1.774,-14.59 -2.995,-29.025 -3.655,-43.291 l 13.395,7.712 c 1.685,14.202 3.935,28.546 6.734,43.013 z m 9.494,57.122 c -2.939,-14.117 -5.441,-28.109 -7.462,-41.958 l 17.683,8.017 c 2.972,13.579 6.409,27.252 10.277,41.036 z m 13.305,54.515 a 842.977,842.977 0 0 1 -10.064,-39.689 l 21.707,7.551 a 884.9,884.9 0 0 0 12.544,38.292 z M 1933.42,3222.029 c 24.831,378.817 -19.009,804.338 -113.043,1301.517 -35.573,188.08 -78.344,386.434 -127.294,596.41 33.68,-176.074 62.648,-343.63 86.628,-503.64 71.682,-478.378 98.847,-889.606 73.893,-1259.598 v -0.078 a 3819.248,3819.248 0 0 1 -3.935,-55.047 27756.154,27756.154 0 0 1 83.751,-79.564 z m -3.599,-49.627 2.39,32.897 a 29968.275,29968.275 0 0 0 -83.605,79.375 4666.29,4666.29 0 0 1 -1.802,-31.716 27750.71,27750.71 0 0 1 83.017,-80.556 z m -3.689,-49.675 2.452,32.854 a 28746.377,28746.377 0 0 0 -82.67,80.154 5111.227,5111.227 0 0 1 -1.483,-31.878 28726.715,28726.715 0 0 1 81.701,-81.13 z m -3.829,-49.641 2.541,32.725 a 27424.575,27424.575 0 0 0 -81.148,80.524 c -0.431,-10.658 -0.834,-21.31 -1.203,-31.949 a 27396.133,27396.133 0 0 1 79.81,-81.3 z m -4.03,-49.641 2.664,32.563 a 28374.032,28374.032 0 0 0 -79.038,80.446 c -0.336,-10.67 -0.655,-21.33 -0.946,-31.975 a 27629.125,27629.125 0 0 1 77.32,-81.034 z m -4.266,-49.555 a 8198.907,8198.907 0 0 1 2.816,32.34 26991.59,26991.59 0 0 0 -76.351,79.946 l -0.744,-31.943 a 28260.3,28260.3 0 0 1 74.279,-80.343 z m -4.567,-49.517 a 7152.083,7152.083 0 0 1 3,32.127 27733.062,27733.062 0 0 0 -73.099,79.004 l -0.588,-31.906 a 30103.56,30103.56 0 0 1 70.687,-79.225 z m -4.92,-49.336 a 5619.905,5619.905 0 0 1 3.219,31.84 26949.076,26949.076 0 0 0 -69.286,77.594 l -0.47,-31.781 a 29169.564,29169.564 0 0 1 66.537,-77.653 z m -5.307,-49.113 a 5486.625,5486.625 0 0 1 3.448,31.416 30057.84,30057.84 0 0 0 -64.948,75.723 l -0.392,-31.496 a 30453.483,30453.483 0 0 1 61.892,-75.643 z m -5.777,-48.952 a 4845.992,4845.992 0 0 1 3.711,30.995 33349.781,33349.781 0 0 0 -60.084,73.362 l -0.017,-1.709 -0.364,-29.487 a 32321.175,32321.175 0 0 1 56.754,-73.161 z m -6.274,-48.632 a 3970.224,3970.224 0 0 1 3.991,30.466 38279.204,38279.204 0 0 0 -54.744,70.509 l -0.42,-30.739 a 45503.375,45503.375 0 0 1 51.173,-70.236 z m -6.841,-48.297 a 4141.141,4141.141 0 0 1 4.293,29.78 42503.681,42503.681 0 0 0 -48.945,67.13 l -0.493,-30.139 z m -7.416,-47.827 c 1.556,9.625 3.084,19.27 4.573,28.934 l -42.737,63.191 -0.633,-29.292 26.51,-42.939 z m -8.033,-47.301 a 2945.273,2945.273 0 0 1 4.814,27.855 l -20.09,32.541 -16.071,26.03 c -0.241,-9.398 -0.509,-18.79 -0.789,-28.156 z m -8.693,-46.574 a 2862.517,2862.517 0 0 1 5.01,26.342 l -29.264,53.118 c -0.302,-8.839 -0.638,-17.666 -0.979,-26.477 8.474,-17.73 16.882,-35.389 25.233,-52.983 z m -9.292,-45.585 c 1.719,8.087 3.42,16.171 5.066,24.288 l -22.177,46.685 c -0.369,-8.087 -0.756,-16.15 -1.164,-24.205 a 12520.85,12520.85 0 0 0 18.275,-46.768 z m -9.79,-44.058 c 1.634,7.021 3.23,14.06 4.797,21.103 a 10030.892,10030.892 0 0 1 -14.973,38.559 3513.32,3513.32 0 0 0 -1.231,-20.589 6477.985,6477.985 0 0 0 11.407,-39.073 z m -9.98,-41.34 3.874,15.676 a 5832.312,5832.312 0 0 1 -7.893,27.439 l -1.103,-14.251 a 4252.277,4252.277 0 0 0 5.122,-28.864 z m -9.119,-35.082 1.159,4.282 -1.562,9.391 -0.118,-1.183 z m -301.401,3512.404 5.738,-22.175 0.202,1.279 -5.334,23.379 z m -13.988,53.846 7.047,-27.088 1.008,4.261 -6.387,27.765 z m -14.039,53.871 8.049,-30.844 2.049,6.206 -7.215,31.131 z m -14.122,54.015 8.855,-33.827 3.241,7.408 -7.887,33.781 z m -14.179,54.041 9.482,-36.123 4.551,8.045 -8.424,35.837 z m -14.229,54.111 9.953,-37.844 5.933,8.268 -8.833,37.376 z m -14.279,54.165 10.333,-39.19 7.355,8.175 -9.169,38.567 z m -14.117,54.397 0.549,-3.067 9.852,-37.277 8.811,7.836 -9.432,39.445 z m -7.417,58.162 c 0.996,-14.896 2.631,-29.578 4.931,-44.03 l 10.126,7.198 a 495.078,495.078 0 0 0 -1.83,44.299 z m -0.655,59.52 c -0.61,-15.223 -0.661,-30.253 -0.084,-45.079 l 14.223,8.059 c 0.465,14.733 1.523,29.636 3.168,44.706 z m 5.032,58.818 a 679.99,679.99 0 0 1 -4.271,-44.266 l 18.371,8.182 a 694.39,694.39 0 0 0 7.182,43.328 z m 9.522,56.79 c -2.911,-14.279 -5.458,-28.436 -7.551,-42.442 l 22.373,7.645 c 2.961,13.563 6.342,27.245 10.087,41.029 z m -57.392,-59.222 a 789.55,789.55 0 0 0 4.512,46.171 c -56.071,-13.727 -113.143,-27.388 -170.535,-41.121 C 676.118,6316.759 125.441,6185.033 91.576,5938.598 51.537,5647.22 172.231,5312.793 391.801,4958.712 224.272,5262.307 136.815,5549.46 171.475,5804.416 h 0.006 c 33.619,257.932 515.261,413.042 989.649,565.803 69.163,22.281 138.176,44.493 205.604,66.975 z m -1.584,-61.676 c -0.33,15.701 -0.039,31.638 0.761,47.749 -65.917,-21.941 -133.295,-43.636 -200.818,-65.382 -470.52,-151.522 -948.244,-305.368 -980.777,-555.172 v -0.025 c -39.429,-290.078 81.215,-622.9 298.759,-974.617 -165.643,301.27 -252.92,586.747 -218.87,840.358 h -0.022 c 32.343,261.271 452.843,436.158 877.591,612.805 75.046,31.208 150.227,62.49 223.376,94.284 z m 4.618,-61.965 c -2.032,15.769 -3.403,31.776 -4.12,48.023 -71.761,-31.131 -145.397,-61.761 -218.898,-92.328 C 725.517,6094.062 308.487,5920.613 277.079,5666.855 l -0.028,-0.079 c -38.752,-288.409 81.45,-619.119 296.072,-967.83 -162.962,298.361 -249.573,581.63 -216.189,833.518 h -0.017 c 31.234,264.795 399.084,457.438 778.027,655.87 78.781,41.257 158.048,82.774 234.824,125.219 z m 11.335,-60.175 c -3.84,15.221 -6.958,30.721 -9.398,46.456 -75.528,-41.678 -153.379,-82.455 -230.771,-122.977 -375.837,-196.814 -740.692,-387.882 -771.12,-645.861 l -0.028,-0.104 c -37.672,-283.956 79.211,-608.893 286.685,-950.79 l 2.323,-3.016 c -157.443,292.756 -241.585,571.258 -209.136,819.44 h -0.017 c 30.221,268.261 351.65,476.897 687.907,695.166 81.634,52.996 164.165,106.586 243.555,161.686 z m 16.238,-57.498 -12.376,43.076 -0.302,1.105 C 1306.331,6185.798 1225.06,6133.026 1144.606,6080.824 810.98,5864.266 492.07,5657.27 462.538,5395.11 l -0.022,-0.129 c -34.738,-265.355 65.676,-566.398 247.071,-882.835 4.887,-6.16 9.768,-12.314 14.694,-18.478 -138.875,273.095 -211.98,533.343 -181.882,766.922 h -0.011 c 29.253,271.407 308.98,494.398 605.219,730.56 83.716,66.726 168.726,134.539 249.734,204.73 z m 16.452,-57.284 -12.505,43.525 c -79.793,-68.95 -163.326,-135.552 -245.61,-201.124 C 861.621,5746.578 583.954,5525.224 555.284,5259.226 l -0.028,-0.13 c -31.872,-247.021 53.289,-524.795 210.177,-816.412 7.904,-9.686 15.903,-19.38 23.896,-29.072 -119.9,252.272 -181.82,493.157 -154.19,711.043 h -0.017 c 28.312,273.965 270.049,509.624 528.555,761.623 83.863,81.768 169.511,165.281 250.116,252.318 z m 16.434,-57.192 -8.598,29.929 -3.65,12.692 c -79.233,-85.166 -163.096,-166.932 -245.268,-247.042 -256.76,-250.294 -496.873,-484.362 -524.693,-753.656 l -0.028,-0.148 c -29.063,-228.844 42.021,-483.863 175.875,-751.148 a 6984.067,6984.067 0 0 1 31.352,-37.2 c -101.478,231.136 -152.539,452.31 -127.356,654.036 h 0.011 c 27.422,275.625 234.152,522.046 456.862,787.518 82.447,98.253 167.066,199.139 245.493,305.019 z m 16.401,-57.102 -11.9,41.414 c -76.95,-103.228 -159.542,-201.697 -240.04,-297.663 C 973.254,5504.108 767.723,5259.097 740.754,4987.446 v -0.151 c -26.331,-210.977 31.867,-443.893 144.383,-687.562 a 8562.918,8562.918 0 0 1 38.164,-44.175 c -84.215,210.21 -125.425,411.879 -102.698,597.399 h 0.022 c 26.409,276.045 200.723,531.125 389.523,807.392 79.608,116.49 161.809,236.803 236.48,363.953 z m 16.356,-56.965 -11.43,39.807 C 1378.383,5883.587 1298.41,5766.499 1220.862,5653.029 1032.991,5378.123 859.539,5124.302 833.5,4851.56 v -0.176 c -23.706,-193.473 23.09,-405.1 116.133,-625.969 a 8775.663,8775.663 0 0 1 43.745,-49.484 c -68.206,189.522 -100.353,371.863 -80.045,541.09 h 0.022 c 25.312,274.712 169.438,535.766 326.064,819.46 75.616,136.983 154.161,279.289 223.565,430.856 z m 16.317,-56.874 -10.826,37.734 C 1400.487,5801.401 1324.271,5663.33 1250.786,5530.241 1094.788,5247.678 951.244,4987.678 926.228,4715.675 v -0.176 c -21.148,-176.204 15.371,-367.111 90.613,-565.817 a 9757.23,9757.23 0 0 1 48.973,-54.197 c -53.647,169.266 -77.694,332.609 -59.743,485.599 h 0.017 c 24.075,270.827 140.051,534.369 266.248,821.111 70.575,160.391 144.362,328.092 206.965,508.268 z m 16.261,-56.717 -10.076,35.14 c -61.405,-174.016 -132.83,-336.403 -201.271,-491.917 -125.8,-285.838 -241.417,-548.547 -265.252,-817.179 v -0.175 c -18.685,-159.216 8.794,-330.069 68.055,-507.352 a 10494.756,10494.756 0 0 1 53.955,-58.485 c -40.705,149.513 -57.823,294.326 -42.194,431.193 h -0.01 c 22.552,263.119 112.41,524.387 210.048,808.308 64.613,187.857 132.629,385.719 186.741,600.467 z m 16.199,-56.669 -9.119,31.878 C 1449.359,5622.1 1383.643,5430.91 1321.102,5249.067 1223.738,4965.94 1134.132,4705.405 1111.72,4443.905 l -0.028,-0.2 c -16.306,-142.495 3.347,-293.925 48.452,-450.516 a 11821.83,11821.83 0 0 1 58.651,-62.368 c -29.454,130.44 -40.722,257.278 -27.277,378.239 h -0.011 c 20.677,249.485 86.46,501.326 157.622,773.824 57.767,221.166 119.066,456.035 162.632,714.193 z m 16.138,-56.439 -7.915,27.694 c -43.297,-248.196 -102.463,-474.823 -158.31,-688.698 -70.994,-271.853 -136.62,-523.098 -157.219,-771.64 l -0.022,-0.175 c -14.039,-126.091 -0.907,-258.816 31.951,-395.527 a 13101.76,13101.76 0 0 1 62.967,-65.759 c -19.944,111.988 -26.437,221.349 -15.102,326.59 h -0.01 c 18.17,226.41 62.228,457.621 109.483,705.621 50.198,263.465 104.013,545.99 134.173,861.894 z m 16.076,-56.457 -6.387,22.442 c -30.719,-303.206 -82.609,-575.625 -131.123,-830.27 -47.171,-247.547 -91.151,-478.325 -109.276,-704.242 l -0.028,-0.176 c -11.867,-109.973 -4.03,-224.645 18.466,-342.252 a 13612.012,13612.012 0 0 1 67.07,-68.865 c -12.225,94.218 -15.035,186.649 -5.71,276.37 h -0.01 c 14.475,186.202 39.782,377.602 66.499,579.83 42.352,320.518 88.308,668.354 100.494,1067.163 z m 15.953,-56.048 -4.355,15.299 c -13.96,-382.49 -58.282,-718.05 -99.25,-1028.091 -26.656,-201.775 -51.901,-392.739 -66.393,-579.116 l -0.028,-0.183 c -9.807,-94.134 -6.112,-191.379 7.937,-290.656 a 16313.99,16313.99 0 0 1 70.943,-71.703 c -6.297,77.144 -6.488,153.173 0.952,227.594 h -0.017 c 8.34,110.591 18.589,225.604 29.141,344.048 36.049,404.825 75.697,850.272 61.07,1382.808 z m 15.942,-56.342 -1.735,6.128 c 10.876,-510.859 -27.445,-941.333 -62.385,-1333.714 -10.411,-116.944 -20.532,-230.505 -29.085,-343.889 l -0.028,-0.155 c -7.859,-78.576 -7.109,-159.042 0.409,-240.782 a 16620.26,16620.26 0 0 1 74.515,-74.214 c -2.133,60.728 -0.75,120.865 4.909,180.17 h -0.011 c 24.87,339.509 47.949,704.132 43.963,1121.881 -2.027,213.014 -11.1,439.967 -30.552,684.575 z m 452.344,-2439.092 c 23.683,510.366 -94.672,1110.018 -290.793,1851.952 35.936,-159.523 67.988,-312.215 95.696,-458.713 94.268,-498.395 138.181,-925.059 113.227,-1305.112 v -0.043 l -0.739,-10.277 a 33688.357,33688.357 0 0 1 82.609,-77.807 z m -3.067,-52.035 c 0.772,11.647 1.578,23.281 2.233,35.006 a 34304.198,34304.198 0 0 0 -82.99,78.12 l -2.412,-33.126 a 33136.495,33136.495 0 0 1 83.169,-80 z m -3.941,-51.564 c 1.002,11.516 2.021,23.032 2.86,34.647 -27.758,26.594 -55.55,53.3 -83.337,80.11 l -2.491,-33.094 a 33763.186,33763.186 0 0 1 82.968,-81.663 z m -4.814,-51.062 c 1.243,11.4 2.245,22.921 3.28,34.438 a 33194.638,33194.638 0 0 0 -82.732,81.39 l -2.586,-32.99 a 35099.583,35099.583 0 0 1 82.038,-82.838 z m -6.163,-50.189 c 1.467,11.226 2.799,22.527 4.153,33.816 a 33431.817,33431.817 0 0 0 -81.4,82.143 c -0.896,-10.978 -1.808,-21.928 -2.732,-32.86 a 34320.17,34320.17 0 0 1 79.979,-83.099 z m -7.148,-49.567 c 1.696,11.009 3.549,21.94 5.105,33.027 a 35378.192,35378.192 0 0 0 -79.401,82.449 c -0.946,-10.913 -1.909,-21.8 -2.894,-32.672 a 33341.036,33341.036 0 0 1 77.19,-82.804 z m -8.071,-49.123 c 1.942,10.9 3.795,21.846 5.547,32.834 a 40518.108,40518.108 0 0 0 -76.256,81.747 6437.359,6437.359 0 0 0 -3.09,-32.509 40217.853,40217.853 0 0 1 73.799,-82.072 z m -9.113,-48.451 c 2.177,10.756 4.12,21.624 6.107,32.47 a 43092.358,43092.358 0 0 0 -72.516,80.602 5895.744,5895.744 0 0 0 -3.325,-32.269 42901.018,42901.018 0 0 1 69.734,-80.803 z m -10.412,-47.461 a 3031.886,3031.886 0 0 1 7.036,31.566 50205.251,50205.251 0 0 0 -68.251,79.047 5610.292,5610.292 0 0 0 -3.588,-31.903 57890.442,57890.442 0 0 1 64.803,-78.71 z m -11.34,-47.03 c 2.62,10.301 5.295,20.582 7.753,30.957 a 56859.284,56859.284 0 0 0 -63.314,76.871 4316.354,4316.354 0 0 0 -3.868,-31.58 70527.2,70527.2 0 0 1 59.429,-76.248 z m -12.231,-46.48 c 2.849,10.171 5.491,20.425 8.133,30.688 a 87173.999,87173.999 0 0 0 -57.66,73.941 4248.376,4248.376 0 0 0 -4.181,-31.145 l 43.202,-59.123 z m -13.54,-45.464 c 3.062,9.912 5.956,19.883 8.883,29.838 l -16.311,22.318 -35.343,48.354 a 3595.914,3595.914 0 0 0 -4.528,-30.624 l 7.63,-11.269 z m -14.52,-44.72 c 3.224,9.586 6.605,19.107 9.706,28.739 l -45.391,67.077 a 3020.141,3020.141 0 0 0 -4.87,-29.999 40744.992,40744.992 0 0 0 40.555,-65.817 z m -15.36,-44.182 a 1494.909,1494.909 0 0 1 9.975,28.219 39106.81,39106.81 0 0 1 -38.455,62.451 3035.403,3035.403 0 0 0 -5.206,-29.194 23887.854,23887.854 0 0 0 33.686,-61.476 z m -16.384,-43.24 c 3.56,9.04 6.913,18.158 10.316,27.252 a 19255.426,19255.426 0 0 1 -31.374,57.363 c -1.797,-9.39 -3.65,-18.756 -5.53,-28.101 a 12820.577,12820.577 0 0 0 26.588,-56.514 z m -17.375,-41.996 c 3.61,8.506 7.254,16.989 10.775,25.528 a 11316.755,11316.755 0 0 1 -24.327,51.864 2468.635,2468.635 0 0 0 -5.777,-26.792 8247.503,8247.503 0 0 0 19.329,-50.6 z M 1856.789,2379 c 3.583,7.93 7.187,15.852 10.641,23.819 a 7203.667,7203.667 0 0 1 -17.156,45.203 2263.852,2263.852 0 0 0 -5.855,-24.827 5702.28,5702.28 0 0 0 12.37,-44.195 z m -18.449,-39.541 c 3.426,7.106 6.661,14.261 9.986,21.397 a 4889.548,4889.548 0 0 1 -10.221,37.007 2357.338,2357.338 0 0 0 -5.659,-21.825 3551.699,3551.699 0 0 0 5.894,-36.579 z m -18.265,-36.335 c 2.726,5.323 5.491,10.631 8.189,15.961 a 3026.663,3026.663 0 0 1 -4.097,26.622 2057.011,2057.011 0 0 0 -4.674,-16.398 c 0.24,-8.756 0.436,-17.482 0.582,-26.185 z m -16.239,-31.663 c 1.181,2.207 2.239,4.45 3.415,6.66 l -0.067,10.231 -1.668,-5.297 c -0.543,-3.875 -1.114,-7.735 -1.68,-11.594 z m 27.927,23.773 c -3.778,-7.357 -7.45,-14.754 -11.346,-22.073 2.877,-485.169 -140.605,-894.369 -880.468,-1100.966 -247.95,-91.189 -460.237,-177.635 -640.434,-261.059 200.275,90.704 445.588,181.302 741.973,273.361 l 0.375,0.125 0.179,0.032 c 786.681,166.945 863.121,594.865 789.721,1110.58 z m 22.222,44.604 c -3.901,-8.23 -7.876,-16.43 -11.94,-24.607 79.071,-530.169 10.299,-971.807 -797.098,-1143.232 -176.206,-54.734 -334.191,-108.906 -475.356,-162.84 166.024,60.2 357.723,118.603 577.819,175.416 l 0.274,0.078 0.341,0.046 c 14.929,2.32 29.494,4.777 43.902,7.292 15.707,5.718 32.04,11.121 48.99,16.203 21.931,8.792 45.245,16.851 69.93,24.182 22.183,9.015 45.866,17.21 71.016,24.612 55.769,22.949 121.266,40.465 197.157,52.111 330.771,162.836 384.401,435.496 333.671,762.034 -13.383,86.105 -33.998,176.034 -58.706,268.705 z m 20.56,43.96 c -3.874,-8.623 -8.038,-17.156 -12.035,-25.736 26.577,-98.286 48.783,-193.656 62.973,-284.95 49.947,-321.468 0.543,-591.528 -306.976,-758.59 45.906,5.577 95.304,9.165 148.363,10.68 215.422,123.313 273.172,311.635 248.912,539.684 -16.692,156.797 -71.867,332.556 -141.237,518.912 z m 18.964,44.649 c -3.84,-9.144 -7.629,-18.301 -11.587,-27.399 71.929,-191.948 129.544,-373.092 146.751,-534.798 24.092,-226.445 -30.495,-414.522 -234.342,-540.445 40.213,0.598 82.441,0.052 126.723,-1.669 157.969,97.521 211.168,239.448 200.163,411.922 -12.593,197.47 -108.519,435.283 -227.708,692.389 z m 17.784,44.648 c -3.594,-9.547 -7.159,-19.106 -10.982,-28.57 122.032,-262.403 220.952,-505.369 233.849,-707.647 10.966,-171.878 -39.664,-314.158 -189.69,-413.764 37.677,-1.795 76.782,-4.4 117.398,-7.872 124.339,79.596 172.399,192.201 168.789,329.261 -5.884,223.241 -147.334,511.927 -319.364,828.592 z m 16.742,44.911 c -3.426,-9.691 -7.07,-19.296 -10.663,-28.921 175.209,-321.936 320.214,-615.822 326.231,-844.282 3.605,-136.877 -42.234,-250.042 -160.393,-331.451 36.099,-3.301 73.328,-7.259 111.75,-11.899 103.88,66.656 147.893,159.599 148.666,273.004 1.623,240.593 -188.862,573.864 -415.591,943.549 z m 15.438,45.618 c -3.28,-9.912 -6.644,-19.789 -10.036,-29.661 230.222,-375.009 424.788,-713.525 423.136,-959.559 -0.772,-113.456 -42.799,-207.089 -141.422,-275.434 a 4779.821,4779.821 0 0 0 107.44,-14.759 c 91.8,57.095 133.311,136.541 136.849,233.956 9.168,252.602 -233.161,626.748 -515.967,1045.457 z m 14.212,46.229 c -3,-10.231 -5.956,-20.479 -9.146,-30.624 286.478,-423.942 533.218,-803.213 523.848,-1061.516 -3.543,-97.56 -43.135,-177.753 -130.166,-236.459 a 5628.364,5628.364 0 0 0 103.527,-16.826 c 85.766,49.849 126.354,119.954 131.8,206.724 16.39,261.054 -279.99,673.659 -619.863,1138.701 z m 13.238,46.643 a 1635.256,1635.256 0 0 0 -8.581,-31.031 c 343.763,-470.295 644.929,-887.983 628.153,-1155.132 -5.458,-86.939 -44.142,-157.823 -125.229,-209.299 32.5,-5.7 65.637,-11.769 99.491,-18.255 84.596,44.154 125.8,107.879 132.735,187.896 23.011,265.459 -324.765,711.036 -719.449,1216.691 z m 12.242,47.022 c -2.564,-10.481 -5.43,-20.83 -8.133,-31.247 l 13.221,-16.937 c 396.363,-507.82 745.634,-955.3 722.181,-1225.776 -6.952,-80.187 -46.135,-144.738 -125.833,-190.615 a 7395.306,7395.306 0 0 0 94.588,-19.049 c 87.876,39.365 131.492,98.8 139.76,175.081 28.408,262.106 -352.893,723.813 -790.028,1253.131 z m 10.787,48.093 c -2.362,-10.691 -4.696,-21.406 -7.176,-32.046 l 52.152,-63.178 c 438.989,-531.562 821.912,-995.239 792.917,-1262.776 -8.284,-76.422 -49.645,-136.754 -132.085,-178.025 a 8179.438,8179.438 0 0 0 88.576,-19.186 c 95.78,34.873 143.661,91.534 153.261,166.476 33.082,258.231 -380.052,734.431 -858.285,1285.66 a 118270.63,118270.63 0 0 0 -89.36,103.075 z m 9.818,48.524 c -2.037,-10.963 -4.041,-21.948 -6.297,-32.802 32.091,-37.077 64.002,-73.861 95.64,-110.324 480.265,-553.567 895.145,-1031.783 861.33,-1295.76 -9.611,-75.026 -54.845,-132.66 -144.216,-169.738 l 30.378,-6.882 a 8575.784,8575.784 0 0 1 50.507,-11.38 c 108.688,30.013 163.074,84.775 174.118,160.295 37.129,254.008 -406.232,743.298 -924.236,1314.952 -45.262,49.953 -91.1,100.529 -137.224,151.639 z m 8.878,48.939 c -1.836,-11.048 -3.862,-22.012 -5.861,-32.977 48.346,-53.587 96.39,-106.593 143.796,-158.918 520.232,-574.11 965.495,-1065.501 927.488,-1325.52 -11.01,-75.317 -61.881,-131.126 -162.161,-163.869 a 7015.98,7015.98 0 0 1 74.213,-15.833 c 124.825,24.477 187.065,77.504 199.586,154.401 40.61,249.535 -431.477,750.733 -987.98,1341.546 -62.179,66.012 -125.404,133.142 -189.081,201.17 z m 7.713,49.641 c -1.646,-11.166 -3.426,-22.26 -5.189,-33.367 66.029,-70.554 131.582,-140.153 196.004,-208.551 558.872,-593.324 1032.968,-1096.644 991.323,-1352.517 -12.399,-76.203 -69.729,-130.359 -182.956,-158.344 a 5834.387,5834.387 0 0 1 66.006,-12.961 c 143.953,17.991 215.282,69.171 229.299,147.889 43.605,244.998 -455.753,757.061 -1049.481,1365.88 -80.32,82.362 -162.352,166.488 -245.006,251.971 z m 6.482,50.413 c -1.36,-11.392 -2.687,-22.806 -4.221,-34.114 85.032,-87.984 169.438,-174.548 252.041,-259.237 596.247,-611.404 1097.738,-1125.651 1052.974,-1377.148 -13.759,-77.309 -78.175,-129.704 -205.822,-152.438 a 4460.228,4460.228 0 0 1 54.99,-9.717 c 166.427,10.333 248.252,59.371 263.807,140.31 46.174,240.359 -479.129,762.375 -1108.837,1388.159 -99.658,99.033 -201.914,200.654 -304.932,304.185 z m 5.57,50.869 c -1.097,-11.555 -2.25,-23.072 -3.543,-34.51 105.43,-106.001 210.093,-210.033 312.047,-311.355 632.379,-628.439 1159.915,-1152.668 1112.431,-1399.792 -15.03,-78.237 -86.589,-128.601 -229.041,-145.672 a 3652.913,3652.913 0 0 1 39.301,-5.994 c 192.405,1.293 286.13,47.737 303.242,131.134 48.374,235.712 -501.553,766.871 -1166.067,1408.683 -120.018,115.918 -243.757,235.444 -368.37,357.506 z m 4.657,51.299 c -0.907,-11.64 -2.06,-23.139 -3.112,-34.694 127.132,-124.582 253.407,-246.553 375.809,-364.765 667.33,-644.53 1219.585,-1177.936 1169.784,-1420.615 -16.043,-78.178 -93.3,-126.103 -247.485,-137.84 l 13.166,-1.594 c 222.33,-9.377 329.556,33.913 348.269,119.982 50.238,231.097 -523.12,770.657 -1221.253,1427.632 -141.34,133.014 -287.766,270.83 -435.178,411.894 z m 3.364,52.136 c -0.722,-11.769 -1.444,-23.527 -2.267,-35.231 150.026,-143.664 299.134,-283.995 442.974,-419.346 701.078,-659.746 1276.848,-1201.588 1225.06,-1439.828 -16.048,-73.829 -91.134,-118.446 -239.671,-128.372 225.75,-13.569 334.919,26.348 354.018,109.862 51.8,226.504 -543.825,773.806 -1274.464,1445.149 -163.729,150.431 -334.186,307.061 -505.65,467.766 z m -515.39,2694.431 5.849,-20.438 -5.62,21.811 z m -16.042,56.088 7.713,-26.963 0.549,3.36 -7.193,27.836 z m -16.099,56.162 8.928,-31.132 1.388,5.641 -8.206,31.591 z m -16.11,56.177 9.869,-34.405 2.424,7.135 -8.995,34.531 z m -16.16,56.282 10.63,-37.013 3.599,8.015 -9.639,36.862 z m -16.16,56.278 11.206,-39.033 4.875,8.434 -10.143,38.676 z m -16.188,56.316 5.833,-20.284 5.821,-20.284 6.224,8.512 -10.535,40.037 z m -16.177,56.339 11.99,-41.737 7.601,8.313 -10.826,41.074 z m -16.104,56.435 c 0.498,-1.81 0.935,-3.634 1.455,-5.434 l 10.691,-37.221 9.018,7.897 -11.055,41.829 z m -12.214,58.581 c 2.233,-15.318 5.133,-30.391 8.732,-45.195 l 10.882,7.631 a 493.97,493.97 0 0 0 -5.625,45.35 z m -5.363,60.612 c 0.565,-15.832 1.746,-31.436 3.566,-46.8 l 14.856,8.292 c -0.772,15.255 -0.912,30.714 -0.442,46.379 z m 0.661,60.534 c -0.879,-15.709 -1.231,-31.216 -1.024,-46.522 l 18.931,8.313 c 0.784,15.014 2.121,30.196 3.969,45.553 z m 5.609,59.006 a 777.972,777.972 0 0 1 -4.663,-45.034 l 22.827,7.683 a 829.16,829.16 0 0 0 7.378,43.647 z M 4000,6909.924 v 92.593 c -51.699,242.258 -238.854,516.977 -428.667,795.538 -216.211,317.328 -435.854,639.682 -460.517,922.023 -8.615,98.685 6.773,192.604 54.548,279.921 h -14.957 c -46.37,-87.746 -61.187,-182.029 -52.539,-281.038 24.959,-285.691 245.582,-609.484 462.756,-928.224 213.229,-312.941 423.104,-621.015 439.376,-880.813 z M 32.639,0 H 46.538 C 27.394,47.763 11.777,94.616 0,140.505 V 92.645 C 9.326,62.146 20.235,31.262 32.639,0 Z m 2825.123,9000 c -9.023,-43.741 -10.523,-89.046 -5.732,-135.689 21.948,-213.668 173.899,-456.132 327.972,-701.969 195.019,-311.195 393.436,-627.796 338.96,-902.262 l -0.022,-0.05 c -47.73,-230.091 -403.394,-312.703 -819.768,-409.403 -146.247,-33.958 -300.035,-69.679 -450.447,-114.092 182.161,46.624 368.47,78.813 542.258,108.839 412.255,71.218 753.532,130.186 796.477,339.479 h -0.01 c 53.395,271.314 -151.173,592.36 -353.604,910.052 -165.156,259.175 -328.907,516.172 -351.616,744.254 -5.531,55.521 -2.737,109.264 10.355,160.842 h 13.58 c -13.524,-51.149 -16.524,-104.47 -11.038,-159.569 22.401,-225.021 185.324,-480.71 349.635,-738.572 203.835,-319.882 409.82,-643.15 355.428,-919.49 l -0.022,-0.051 c -44.691,-218.028 -389.943,-277.683 -807.006,-349.733 -135.394,-23.391 -278.412,-48.107 -421.054,-79.935 177.062,32.966 354.365,53.529 518.726,72.578 409.484,47.458 738.117,85.555 777.865,281.92 h -0.017 c 53.311,273.141 -158.691,600.777 -369.814,927.063 -175.478,271.176 -350.357,541.452 -373.525,781.03 -6.197,64.058 -1.528,125.831 16.726,184.76 h 13.781 c -18.847,-58.507 -23.767,-119.877 -17.615,-183.538 22.866,-236.406 196.888,-505.351 371.499,-775.194 212.556,-328.494 425.997,-658.353 371.689,-936.603 l -0.017,-0.025 c -41.595,-205.661 -374.415,-244.246 -789.105,-292.307 -124.428,-14.421 -256.284,-29.714 -389.792,-50.603 170.323,20.642 337.958,30.925 492.585,40.394 403.847,24.734 718.285,43.998 754.825,227.348 h 0.011 c 53.199,275.024 -166.135,609.199 -385.885,943.997 -185.817,283.09 -371.947,566.671 -395.569,817.797 -6.84,72.674 -0.062,142.514 24.12,208.735 h 14.056 c -24.965,-65.805 -32.085,-135.261 -25.284,-207.566 23.308,-247.799 208.587,-530.063 393.542,-811.855 221.204,-337.002 441.989,-673.38 387.749,-953.597 v -0.045 c -38.5,-193.143 -357.315,-212.679 -766.799,-237.759 -113.267,-6.94 -233.53,-14.305 -356.677,-25.879 162.01,9.704 319.307,11.042 463.836,12.264 395.596,3.34 694.73,5.874 728.136,176.179 h 0.01 c 53.155,276.975 -173.429,617.642 -401.748,960.896 -196.228,295.01 -393.744,591.944 -417.807,854.568 -7.456,81.378 1.679,159.341 32.544,232.796 h 14.346 c -31.839,-73.026 -41.422,-150.613 -34,-231.624 23.762,-259.298 220.387,-554.895 415.736,-848.579 229.785,-345.462 457.836,-688.333 403.657,-970.52 v -0.021 c -35.438,-180.677 -339.139,-183.256 -740.764,-186.643 -101.584,-0.857 -209.489,-1.774 -320.897,-5.629 151.968,0.195 297.902,-6.05 431.645,-11.782 385.062,-16.49 668.175,-28.623 698.52,128.807 h 0.01 c 53.126,278.97 -180.645,626.078 -417.455,977.703 -206.679,306.877 -415.68,617.205 -440.192,891.406 -8.061,90.151 3.784,176.259 42.049,256.881 h 14.554 c -39.44,-80.208 -51.744,-165.949 -43.711,-255.762 24.209,-270.762 232.293,-579.732 438.065,-885.259 238.311,-353.86 473.565,-703.172 419.425,-987.388 v -0.025 c -32.46,-168.406 -320.292,-156.077 -711.769,-139.311 -89.197,3.822 -183.835,7.878 -282.055,10.088 140.146,-7.768 273.598,-20.16 395.77,-31.509 372.523,-34.607 639.18,-59.376 666.546,85.444 3.146,16.639 5.228,33.543 6.37,50.675 v -75.436 c -51.01,-131.438 -313.962,-107.029 -674.086,-73.577 -264.669,24.587 -582.387,54.086 -906.178,30.592 -44.333,-4.074 -88.749,-9.086 -133.121,-15.194 -40.694,-6.441 -81.305,-13.766 -121.725,-22.091 -37.599,-8.594 -74.985,-17.996 -112.041,-28.35 -33.815,-10.295 -67.288,-21.336 -100.336,-33.196 -30.596,-11.863 -60.767,-24.4 -90.389,-37.685 -26.756,-12.899 -52.998,-26.385 -78.646,-40.494 -22.995,-13.61 -45.413,-27.713 -67.215,-42.33 l -1.601,-1.632 a 1305.583,1305.583 0 0 0 -30.938,-40.451 c -8.923,-15.007 -18.159,-29.864 -27.669,-44.604 a 1617.155,1617.155 0 0 0 -24.372,-48.833 1862.24,1862.24 0 0 0 -20.98,-52.981 2238.502,2238.502 0 0 0 -17.442,-56.874 2698.78,2698.78 0 0 0 -13.966,-61.1 3313.54,3313.54 0 0 0 -10.417,-65.479 4126.87,4126.87 0 0 0 -6.74,-69.425 5269.438,5269.438 0 0 0 -2.989,-73.336 c 0.442,-26.354 0.705,-52.485 0.823,-78.412 a 8265.34,8265.34 0 0 0 4.741,-82.519 10896.75,10896.75 0 0 0 8.799,-87.304 13519.28,13519.28 0 0 0 12.897,-91.561 c 5.849,-32.28 11.559,-64.283 17.123,-96.023 a 22450.647,22450.647 0 0 0 21.444,-100.627 c 8.827,-35.63 17.509,-70.934 26.04,-105.937 256.004,-920.843 420.242,-1636.822 390.469,-2231.849 174.079,-163.238 347.211,-322.344 513.386,-475.036 733.689,-674.151 1331.811,-1223.743 1278.321,-1457.589 -23.756,-103.861 -173.362,-145.341 -492.501,-107.794 -44.781,1.878 -93.983,5.835 -147.876,11.956 -45.301,1.821 -94.918,5.656 -149.069,11.583 -45.575,1.737 -95.287,5.382 -149.36,11.036 -46.365,1.626 -96.804,5.122 -151.521,10.581 -46.499,1.482 -96.854,4.73 -151.319,9.845 -47.316,1.294 -98.461,4.337 -153.608,9.179 -47.507,1.071 -98.685,3.801 -153.681,8.24 -48.083,0.786 -99.732,3.167 -155.103,7.203 -48.66,0.442 -100.767,2.415 -156.497,5.98 -48.878,0.018 -101.042,1.481 -156.681,4.457 -30.669,-0.312 -62.609,-0.085 -95.774,0.683 -67.311,-1.677 -131.912,-4.328 -193.877,-7.922 -109.477,-7.969 -211.196,-18.434 -305.688,-31.236 -37.739,-43.538 -62.486,-94.134 -75.494,-151.001 C 1090.791,742.791 1238.975,396.281 1497.969,0 h -14.878 c -258.104,396.604 -405.364,743.862 -350.592,983.305 12.415,54.256 35.136,102.971 69.147,145.51 l -12.382,-1.755 -0.649,-0.098 -0.067,-0.01 a 4174.765,4174.765 0 0 1 -28.604,-4.489 C 1107.17,1070.913 1074.447,1008.718 1059.468,937.315 1010.645,704.686 1147.668,374.949 1388.105,0 h -14.817 c -239.531,375.196 -375.703,705.635 -326.522,939.954 14.319,68.236 44.249,128.307 91.671,179.014 a 4102.349,4102.349 0 0 1 -36.686,-6.259 C 1031.222,1053.561 989.71,979.399 973.231,892.666 930.113,665.788 1056.081,353.269 1277.996,0 h -14.8 c -221.003,353.464 -346.12,666.607 -302.705,895.058 15.763,82.964 53.585,154.766 116.793,213.323 a 3848.961,3848.961 0 0 1 -30.585,-5.654 C 955.117,1036.235 903.849,949.463 886.402,846.296 849.15,626.018 964.202,331.197 1167.64,0 h -14.716 C 950.399,331.334 836.113,626.709 873.611,848.427 c 16.67,98.591 63.152,182.587 144.764,248.788 -7.831,-1.548 -15.679,-3.086 -23.398,-4.666 C 878.693,1018.867 816.7,918.756 798.939,797.987 767.661,585.308 872.134,308.683 1057.155,0 h -14.694 C 858.336,308.776 754.624,585.882 786.099,799.871 c 16.938,115.127 72.701,211.946 175.506,285.704 -4.976,-1.066 -9.835,-2.158 -14.761,-3.242 C 801.783,1001.483 728.108,887.143 710.834,747.568 685.584,543.584 779.645,285.743 946.363,0 H 931.759 C 765.925,285.761 672.547,544.006 697.937,749.139 c 16.401,132.436 81.898,242.712 208.571,324.063 l -3.431,-0.806 C 724.336,984.261 637.853,854.575 622.001,694.774 602.768,500.755 686.709,262.32 835.29,0 H 820.703 C 672.995,262.274 589.77,501.014 609.11,696.049 623.501,841.24 694.305,962.156 836.953,1050.551 637.713,954.747 545.191,813.209 532.496,639.421 519.157,456.761 593.353,238.384 724,0 H 709.474 C 579.695,238.259 506.148,456.84 519.549,640.329 531.002,797.213 605.488,928.392 761.772,1024.353 546.535,919.925 450.66,767.202 442.235,581.253 434.544,411.501 499.28,213.933 612.3,0 H 597.892 C 485.706,213.732 421.569,411.411 429.288,581.811 436.962,751.226 515.104,893.597 686.529,998.045 453.575,883.803 354.364,718.99 351.224,520.095 348.778,364.956 404.401,188.956 500.204,0 H 485.863 C 390.889,188.683 335.826,364.683 338.283,520.304 341.177,703.489 423.187,858.313 612.356,972.4 358.742,846.94 256.172,668.773 259.486,455.859 261.652,317.108 308.526,163.485 387.62,0 h -14.251 c -78.315,163.141 -124.658,316.653 -126.83,455.702 -3.09,197.706 82.57,365.98 291.454,490.961 C 261.451,808.43 155.819,616.082 167.003,388.584 172.931,268.065 211.493,137.581 274.588,0 H 260.454 C 198.108,137.132 159.983,267.382 154.056,387.974 143.561,601.511 233.217,784.574 465.672,922.043 161.932,769.092 53.093,561.443 73.77,318.422 82.318,217.936 112.897,111.337 160.885,0 H 146.874 C 99.558,110.791 69.365,217.019 60.823,317.355 41.276,547.177 134.565,745.799 393.38,897.47 172.937,785.34 49.348,649.95 0,496.466 v 39.007 C 50.994,662.629 154.812,776.76 324.507,874.841 178.629,800.183 72.416,717.821 0,628.614 v 20.543 C 62.385,722.228 147.518,790.626 258.607,853.874 154.168,800.126 68.604,743.7 0,684.675 V 701.76 C 54.627,747.573 119.435,791.812 195.304,834.421 121.758,796.279 56.866,757.439 0,717.839 v 15.703 c 43.017,29.513 90.44,58.597 142.564,87.277 C 91.285,794.132 43.857,767.415 0,740.613 v 15.027 c 38.987,23.612 80.7,47.158 125.369,70.665 C 81.159,803.559 39.44,781.005 0,758.602 v 14.818 c 229.674,129.732 536.884,264.388 935.509,410.983 l 0.509,0.148 c 718.643,200.513 868.708,595.031 871.26,1064.472 -3.123,-5.686 -6.365,-11.332 -9.561,-17.001 C 1724.926,1791.3 1507.87,1413.88 834.673,1172.351 l 0.006,-0.011 C 492.619,1025.172 217.135,895.189 0,775.298 v 14.708 c 216.85,119.36 490.733,248.497 829.547,394.266 l 0.381,0.132 c 648.147,232.423 869.973,592.417 948.451,1013.772 -1.551,-2.625 -3.23,-5.218 -4.797,-7.837 -15.153,-40.511 -31.794,-80.499 -50.109,-119.945 C 1562.593,1723.99 1273.25,1420.023 729.245,1172.43 441.776,1029.033 200.124,904.686 0,793.144 v 14.786 c 199.363,110.935 439.168,234.317 723.585,376.193 l 0.202,0.098 c 540.825,246.124 828.282,547.892 987.913,891.607 8.2,17.665 16.065,35.44 23.61,53.325 C 1511.301,1785.346 1153.757,1476.996 624.071,1172.698 524.518,1115.505 446.813,1071.043 372.511,1028.526 236.866,950.907 112.858,879.949 0,814.398 v 15.007 c 111.19,64.543 233.032,134.266 366.064,210.39 85.301,48.808 175.282,100.294 251.56,144.119 559.958,321.684 926.659,648.111 1145.983,1016.796 10.322,27.873 19.944,56.009 28.934,84.385 4.652,33.112 8.581,66.556 11.872,100.32 -1.618,36.115 -3.851,72.589 -6.51,109.376 -7.439,38.923 -15.304,78.21 -23.37,117.777 l -17.638,57.512 a 45918.725,45918.725 0 0 0 -20.582,67.136 c -16.972,42.887 -33.91,86.048 -50.557,129.386 -20.431,43.869 -40.605,87.945 -60.275,132.14 -23.353,44.877 -46.247,89.902 -68.441,134.994 -25.211,44.799 -49.824,89.695 -73.591,134.599 -26.695,44.76 -52.651,89.557 -77.661,134.323 -28.01,44.954 -55.164,89.897 -81.265,134.767 -28.777,44.688 -56.636,89.326 -83.359,133.864 -29.219,44.221 -57.465,88.375 -84.54,132.394 -29.723,44.058 -58.422,88.019 -85.906,131.823 -29.589,43.147 -58.142,86.18 -85.492,129.048 -29.986,43.108 -58.87,86.082 -86.549,128.878 -30.759,43.739 -60.353,87.311 -88.688,130.692 -30.059,42.394 -58.993,84.62 -86.717,126.651 -30.193,42.238 -59.261,84.312 -87.109,126.167 -30.837,42.844 -60.493,85.503 -88.889,127.941 -323.511,447.534 -518.228,873.82 -468.538,1235.441 35.08,255.235 590.179,388.021 1118.986,514.513 59.06,14.13 117.79,28.168 175.416,42.297 44.758,312.338 268.101,688.698 485.331,1054.66 187.916,316.583 371.213,625.358 429.271,876.563 53.748,232.562 8.9,418.956 -36.474,571.643 h 13.496 c 45.458,-153.491 89.673,-340.688 35.623,-574.541 -58.517,-253.181 -242.313,-562.813 -430.755,-880.267 -215.444,-362.958 -436.946,-736.186 -482.958,-1044.728 l 26.421,6.532 c 61.248,287.224 278.288,624.626 492.143,957.041 203.634,316.522 404.357,628.536 463.736,886.616 58.506,256.127 -14.067,465.954 -73.804,638.688 l -3.683,10.659 h 13.68 l 2.233,-6.447 c 60.291,-174.335 133.535,-386.11 74.218,-645.798 -59.888,-260.291 -261.221,-573.239 -465.459,-890.725 -211.745,-329.138 -426.613,-663.181 -489.053,-946.543 l 25.95,6.511 c 76.06,263.151 287.026,564.329 497.153,864.266 220.208,314.313 439.464,627.274 500.002,891.681 h 0.01 c 57.688,255.54 -25.721,474.081 -95.948,658.039 -8.99,23.561 -17.772,46.562 -26.018,69.017 h 13.843 c 7.747,-20.974 15.942,-42.441 24.316,-64.401 70.859,-185.615 155.019,-406.126 96.451,-665.526 v -0.028 c -61.086,-266.776 -281.093,-580.805 -502.04,-896.188 -207.647,-296.39 -416.139,-594.012 -493.257,-853.193 l 25.346,6.479 c 89.225,240.254 294.555,508.079 500.719,776.956 237.622,309.913 476.341,621.242 537.814,891.114 h 0.011 c 57.028,255.469 -36.753,482.396 -117.274,677.214 -18.248,44.156 -35.83,86.68 -50.854,127.573 h 13.82 c 14.582,-39.328 31.486,-80.226 49.018,-122.646 81.232,-196.561 175.864,-425.507 117.929,-684.961 v -0.024 c -62.111,-272.667 -301.686,-585.116 -540.159,-896.134 -203.208,-265.034 -405.599,-529.044 -495.709,-765.142 l 24.579,6.417 c 100.879,218.704 301.11,456.091 503.232,695.69 255.713,303.135 514.461,609.863 576.65,884.309 h 0.01 c 56.451,255.678 -47.3,490.74 -137.963,696.119 -28.749,65.122 -56.188,127.288 -76.894,186.372 h 13.748 c 20.369,-57.33 47.081,-117.832 75.024,-181.146 91.459,-207.181 196.116,-444.289 138.724,-704.165 v -0.025 c -62.9,-277.58 -322.66,-585.512 -579.392,-889.849 -198.607,-235.437 -395.378,-468.718 -496.851,-682.995 7.932,2.104 15.83,4.209 23.672,6.328 111.201,198.636 307.06,408.531 505.286,620.933 274.342,293.969 553.218,592.801 615.86,870.674 h -0.017 c 55.987,256.262 -57.375,499.206 -158.008,714.856 -40.286,86.341 -78.551,168.349 -103.32,245.39 h 13.613 c 24.557,-75.156 62.015,-155.442 101.433,-239.905 101.518,-217.554 215.887,-462.636 158.982,-723.084 l -0.022,-0.05 C 2643.178,7755.638 2363.076,7455.5 2087.531,7160.242 1893.486,6952.321 1701.708,6746.811 1590.328,6552.921 l 22.603,6.227 c 120.448,180.228 312.915,365.559 507.654,553.086 293.301,282.427 591.858,569.919 654.556,849.805 l -0.017,0.01 c 55.55,256.977 -67.12,507.636 -177.594,733.366 -52.69,107.673 -102.643,209.721 -129.5,304.591 h 13.468 c 26.79,-92.763 75.886,-193.099 127.669,-298.898 111.419,-227.664 235.142,-480.482 178.652,-741.802 l -0.022,-0.025 c -63.549,-283.754 -363.533,-572.616 -658.228,-856.388 -189.735,-182.699 -377.264,-363.305 -497.338,-538.34 a 3775.624,3775.624 0 0 1 21.343,6.078 c 128.968,163.545 319.167,327.129 511.141,492.22 312.254,268.54 629.239,541.146 691.651,821.469 h -0.011 c 55.175,257.87 -76.541,516.094 -196.715,751.694 -65.844,129.08 -128.263,251.44 -155.103,363.994 h 13.345 c 26.879,-110.188 88.43,-230.858 153.34,-358.104 121.159,-237.539 253.978,-497.907 197.834,-760.273 l -0.028,-0.053 c -63.325,-284.58 -381.989,-558.622 -695.889,-828.58 -185.901,-159.867 -370.111,-318.308 -497.953,-476.09 a 3784.22,3784.22 0 0 1 19.849,5.882 c 137.129,148.598 326.427,293.014 516.565,438.057 330.872,252.407 664.296,506.773 726.004,785.769 h -0.017 c 54.851,258.94 -85.654,524.561 -215.4,769.834 -79.636,150.541 -155.26,293.482 -179.895,423.558 h 13.199 c 24.741,-127.469 99.486,-268.763 178.17,-417.514 130.798,-247.261 272.445,-515.04 216.626,-778.568 l -0.028,-0.053 c -62.698,-283.663 -398.031,-539.476 -730.795,-793.335 -182.721,-139.379 -364.659,-278.183 -499.633,-420.229 6.107,1.878 12.18,3.756 18.198,5.648 145.318,135.222 335.148,262.709 524.497,389.879 348.672,234.178 695.782,467.304 756.298,743.096 h 0.017 c 54.537,260.155 -94.531,533.036 -233.709,787.785 -93.994,172.033 -183.494,335.883 -203.718,483.291 h 13.07 c 20.37,-144.6 108.996,-306.813 202.021,-477.092 140.297,-256.796 290.564,-531.866 235.019,-796.676 v -0.05 c -61.629,-280.875 -410.923,-515.47 -761.783,-751.116 -180.046,-120.918 -360.511,-242.134 -502.185,-369.68 5.525,1.799 11.01,3.601 16.457,5.413 153.67,122.972 345.157,235.212 534.55,346.219 365.185,214.043 722.561,423.519 781.498,694.202 h 0.01 c 54.285,261.448 -103.163,541.484 -251.678,805.592 -104.512,185.85 -204.624,363.9 -224.49,523.521 -0.817,6.589 -1.461,13.143 -2.004,19.667 h 13.037 a 470.674,470.674 0 0 1 1.858,-18.094 c 19.552,-157.085 119.054,-334.045 222.923,-518.752 149.667,-266.174 308.358,-548.387 253.043,-814.625 v -0.053 c -60.135,-276.207 -419.962,-487.111 -787.644,-702.624 -177.157,-103.83 -356.15,-208.76 -503.842,-322.314 l 1.293,0.456 c 4.54,1.598 9.074,3.178 13.619,4.737 161.848,110.974 355.137,208.813 544.458,304.637 379.884,192.264 743.714,376.412 800.658,640.148 h 0.011 c 54.073,262.923 -111.582,549.986 -269.31,823.281 -114.442,198.311 -224.748,389.452 -245.112,560.404 a 476.759,476.759 0 0 0 -3.163,42.799 h 13.02 a 454.187,454.187 0 0 1 3.04,-41.276 c 20.056,-168.408 129.69,-358.384 243.432,-555.479 158.937,-275.409 325.873,-564.68 270.782,-832.395 v -0.078 c -58.254,-269.76 -424.799,-455.286 -807.521,-648.987 -174.078,-88.108 -351.527,-177.928 -504.402,-277.942 l 10.786,3.366 c 170.267,99.781 366.411,184.375 556.493,266.343 392.266,169.16 758.576,327.141 813.174,582.234 h 0.011 c 53.882,264.42 -119.821,558.441 -286.673,840.836 -124.439,210.628 -245.106,414.857 -265.951,597.242 -2.564,22.402 -3.588,44.454 -2.989,66.137 h 13.025 c -0.644,-21.208 0.353,-42.765 2.855,-64.667 20.532,-179.646 140.504,-382.704 264.227,-592.108 168.106,-284.521 343.108,-580.746 288.196,-850.079 v -0.051 c -56.009,-261.682 -425.292,-420.944 -820.742,-591.478 -172.327,-74.317 -349.663,-150.806 -507.816,-238.667 l 5.211,1.442 c 179.62,89.713 380.595,162.27 573.123,231.766 401.894,145.068 766.804,276.801 818.766,521.916 h 0.011 c 53.708,266.025 -127.904,566.904 -303.769,858.275 -134.515,222.856 -265.716,440.215 -287.043,634.013 -3.358,30.514 -3.957,60.41 -1.489,89.638 h 13.121 c -2.569,-28.768 -2.049,-58.188 1.26,-88.221 21.013,-190.939 151.492,-407.094 285.263,-628.724 177.163,-293.501 360.102,-596.598 305.347,-867.593 v -0.079 c -53.451,-252.148 -421.614,-385.056 -827.101,-531.419 -168.464,-60.803 -343.399,-123.958 -504.581,-198.846 186.975,78.073 390.15,137.969 582.616,194.715 408.51,120.434 768.456,226.555 817.58,460.458 h -0 c 53.613,267.721 -135.78,575.412 -320.595,875.672 -144.652,235.011 -286.55,465.529 -308.347,670.767 -4.114,38.75 -3.946,76.548 1.237,113.269 h 13.21 c -5.363,-36.273 -5.62,-73.623 -1.551,-111.902 21.478,-202.25 162.626,-431.554 306.522,-665.335 186.13,-302.399 376.884,-612.28 322.263,-885.004 l -0.017,-0.053 c -50.675,-241.54 -414.141,-348.706 -826.642,-470.312 -157.437,-46.417 -322.061,-94.96 -478.95,-153.815 185.727,61.781 380.847,107.118 564.161,149.694 411.958,95.682 763.871,177.407 809.95,399.289 h -0.01 c 53.501,269.521 -143.533,583.912 -337.191,892.929 -154.89,247.137 -307.642,490.887 -329.898,707.494 -4.836,47.086 -3.487,92.833 5.245,137.015 h 13.39 z m -231.073,-7828.063 -0.017,0.01 m -1897.427,0.486 -0.078,-0.039 m 1897.505,-0.447 -0.078,0.013" />
  </defs>
  <clipPath
     id="prefix__b">
    <use
       xlink:href="#prefix__a"
       overflow="visible"
       id="use1" />
  </clipPath>
  <linearGradient
     id="prefix__c"
     gradientUnits="userSpaceOnUse"
     x1="4599.2529"
     y1="-975.32898"
     x2="-20.664"
     y2="8756.5303">
    <stop
       offset="0"
       stop-color="#fffb90"
       id="stop1" />
    <stop
       offset=".12"
       stop-color="#965f00"
       id="stop2" />
    <stop
       offset=".24"
       stop-color="#fbec7a"
       id="stop3" />
    <stop
       offset=".31"
       stop-color="#f8dc65"
       id="stop4" />
    <stop
       offset=".4"
       stop-color="#c8a443"
       id="stop5" />
    <stop
       offset=".49"
       stop-color="#996c22"
       id="stop6" />
    <stop
       offset=".62"
       stop-color="#caaa4d"
       id="stop7" />
    <stop
       offset=".69"
       stop-color="#fbe878"
       id="stop8" />
    <stop
       offset=".73"
       stop-color="#fdf491"
       id="stop9" />
    <stop
       offset=".77"
       stop-color="#ffa"
       id="stop10" />
    <stop
       offset=".8"
       stop-color="#fdf491"
       id="stop11" />
    <stop
       offset=".83"
       stop-color="#fbe878"
       id="stop12" />
    <stop
       offset=".92"
       stop-color="#d0a549"
       id="stop13" />
    <stop
       offset="1"
       stop-color="#a4631b"
       id="stop14" />
  </linearGradient>
  <path
     clip-path="url(#prefix__b)"
     fill="url(#prefix__c)"
     d="M 0,0 H 4000 V 9000 H 0 Z"
     id="path14"
     style="fill:url(#prefix__c)" />
</svg>
